<svg xmlns="http://www.w3.org/2000/svg" width="23.036" height="24.78" viewBox="0 0 23.036 24.78">
  <g id="logout-svgrepo-com-2" transform="translate(-17.35 0.25)">
    <g id="Group_10134" data-name="Group 10134" transform="translate(17.6 0)">
      <g id="Group_10133" data-name="Group 10133" transform="translate(0 0)">
        <path id="Path_12493" data-name="Path 12493" d="M136.882,135.166l.01-.01a.376.376,0,0,0,.04-.055s0-.01.01-.015.025-.04.035-.059a.017.017,0,0,1,0-.01c.01-.02.02-.04.03-.064,0,0,0,0,0-.01s.015-.045.025-.069c0,0,0-.01,0-.01a.347.347,0,0,0,.015-.069.045.045,0,0,1,0-.025c0-.02,0-.04.01-.059a.718.718,0,0,0,0-.169.248.248,0,0,0-.01-.059.045.045,0,0,0,0-.025c0-.025-.01-.045-.015-.069,0,0,0-.01,0-.01a.39.39,0,0,0-.025-.069s0,0,0-.01-.02-.045-.03-.064a.017.017,0,0,0,0-.01.372.372,0,0,0-.035-.059s0-.01-.01-.015a.52.52,0,0,0-.04-.055l-.01-.01a.7.7,0,0,0-.059-.064l-4.9-4.9a.852.852,0,1,0-1.2,1.2l3.449,3.449H120.452a.85.85,0,1,0,0,1.7h13.719l-3.425,3.425a.85.85,0,1,0,1.2,1.2l4.872-4.872C136.842,135.205,136.862,135.185,136.882,135.166Z" transform="translate(-114.545 -122.488)" fill="#737986" stroke="#737986" stroke-width="0.5"/>
        <path id="Path_12494" data-name="Path 12494" d="M22.214,1.7h6.344a.85.85,0,1,0,0-1.7H22.214A4.622,4.622,0,0,0,17.6,4.614V19.666a4.622,4.622,0,0,0,4.614,4.614h6.24a.85.85,0,1,0,0-1.7h-6.24A2.919,2.919,0,0,1,19.3,19.666V4.614A2.919,2.919,0,0,1,22.214,1.7Z" transform="translate(-17.6 0)" fill="#737986" stroke="#737986" stroke-width="0.5"/>
      </g>
    </g>
  </g>
</svg>
