<svg xmlns="http://www.w3.org/2000/svg" width="30" height="30" viewBox="0 0 30 30">
  <g id="Group_10517" data-name="Group 10517" transform="translate(-377.45 -881.235)">
    <g id="Group_10467" data-name="Group 10467" transform="translate(377.45 881.235)">
      <g id="Group_10435" data-name="Group 10435" transform="translate(0.343 4.008)">
        <path id="Rectangle_2682" data-name="Rectangle 2682" d="M3,0H29.313a0,0,0,0,1,0,0V17.649a8,8,0,0,1-8,8H3a3,3,0,0,1-3-3V3A3,3,0,0,1,3,0Z" fill="#fff"/>
      </g>
      <g id="Group_10436" data-name="Group 10436" transform="translate(3.55 8.588)">
        <path id="Path_12629" data-name="Path 12629" d="M53.209,233.549H48.17A21.069,21.069,0,0,0,27.1,254.618H49.545a3.664,3.664,0,0,0,3.664-3.664Z" transform="translate(-27.102 -233.549)" fill="#d2d5df"/>
      </g>
      <g id="Group_10437" data-name="Group 10437" transform="translate(0 3.664)">
        <path id="Path_12630" data-name="Path 12630" d="M45.344,249.135H21.07a1.72,1.72,0,0,1-1.718-1.718v-22.9A1.719,1.719,0,0,1,21.07,222.8H49.008a.344.344,0,0,1,.344.344v21.985A4.013,4.013,0,0,1,45.344,249.135ZM21.07,223.486a1.032,1.032,0,0,0-1.031,1.031v22.9a1.032,1.032,0,0,0,1.031,1.031H45.344a3.324,3.324,0,0,0,3.321-3.321V223.486Z" transform="translate(-19.352 -222.799)" fill="#21365f"/>
      </g>
      <g id="Group_10438" data-name="Group 10438" transform="translate(25.992 0.344)">
        <path id="Path_12631" data-name="Path 12631" d="M79.766,241.2a3.664,3.664,0,0,0-3.664-3.664V215.549a3.664,3.664,0,0,1,3.664,3.664Z" transform="translate(-76.102 -215.549)" fill="#fff"/>
      </g>
      <g id="Group_10439" data-name="Group 10439" transform="translate(29.651 25.878)">
        <path id="Path_12632" data-name="Path 12632" d="M84.095,271.414v-.11l-.006,0C84.09,271.337,84.095,271.375,84.095,271.414Z" transform="translate(-84.089 -271.299)" fill="#fff"/>
      </g>
      <g id="Group_10440" data-name="Group 10440" transform="translate(27.366 3.092)">
        <path id="Path_12633" data-name="Path 12633" d="M81.386,222.351a3.645,3.645,0,0,0-2.284-.8v19.505a3.662,3.662,0,0,1,2.284,3.281l.006,0V222.465C81.392,222.427,81.387,222.389,81.386,222.351Z" transform="translate(-79.102 -221.549)" fill="#d2d5df"/>
      </g>
      <g id="Group_10441" data-name="Group 10441" transform="translate(25.649)">
        <path id="Path_12634" data-name="Path 12634" d="M79.36,241.135a.344.344,0,0,1-.344-.344,3.324,3.324,0,0,0-3.321-3.321.344.344,0,0,1-.344-.344V215.143a.344.344,0,0,1,.344-.344,4.012,4.012,0,0,1,4.008,4.008v21.985A.344.344,0,0,1,79.36,241.135ZM76.039,236.8a4.009,4.009,0,0,1,2.977,1.751V218.807a3.327,3.327,0,0,0-2.977-3.3Z" transform="translate(-75.352 -214.799)" fill="#21365f"/>
      </g>
      <g id="Group_10442" data-name="Group 10442" transform="translate(18.32)">
        <path id="Path_12635" data-name="Path 12635" d="M59.694,217.318a.344.344,0,0,1-.344-.344v-1.832a.344.344,0,1,1,.687,0v1.832A.344.344,0,0,1,59.694,217.318Z" transform="translate(-59.35 -214.799)" fill="#21365f"/>
      </g>
      <g id="Group_10443" data-name="Group 10443" transform="translate(17.404 0.916)">
        <path id="Path_12636" data-name="Path 12636" d="M59.526,217.486H57.694a.344.344,0,1,1,0-.687h1.832a.344.344,0,1,1,0,.687Z" transform="translate(-57.35 -216.799)" fill="#21365f"/>
      </g>
      <g id="Group_10444" data-name="Group 10444" transform="translate(15.571 0.916)">
        <circle id="Ellipse_125" data-name="Ellipse 125" cx="0.344" cy="0.344" r="0.344" fill="#21365f"/>
      </g>
      <g id="Group_10445" data-name="Group 10445" transform="translate(14.197 0.916)">
        <circle id="Ellipse_126" data-name="Ellipse 126" cx="0.344" cy="0.344" r="0.344" fill="#21365f"/>
      </g>
      <g id="Group_10446" data-name="Group 10446" transform="translate(12.365 0.916)">
        <circle id="Ellipse_127" data-name="Ellipse 127" cx="0.344" cy="0.344" r="0.344" fill="#21365f"/>
      </g>
      <g id="Group_10447" data-name="Group 10447" transform="translate(9.617 0.916)">
        <circle id="Ellipse_128" data-name="Ellipse 128" cx="0.344" cy="0.344" r="0.344" fill="#21365f"/>
      </g>
      <g id="Group_10448" data-name="Group 10448" transform="translate(2.29 27.48)">
        <path id="Path_12637" data-name="Path 12637" d="M28.719,275.484H24.7a.344.344,0,1,1,0-.687h4.023a.344.344,0,1,1,0,.687Z" transform="translate(-24.352 -274.797)" fill="#21365f"/>
      </g>
      <g id="Group_10449" data-name="Group 10449" transform="translate(8.145 27.48)">
        <path id="Path_12638" data-name="Path 12638" d="M38.494,275.484H37.48a.344.344,0,1,1,0-.687h1.014a.344.344,0,1,1,0,.687Z" transform="translate(-37.136 -274.797)" fill="#21365f"/>
      </g>
      <g id="Group_10450" data-name="Group 10450" transform="translate(25.191 26.564)">
        <path id="Path_12639" data-name="Path 12639" d="M76.528,273.484H74.7a.344.344,0,1,1,0-.687h1.832a.344.344,0,0,1,0,.687Z" transform="translate(-74.352 -272.797)" fill="#21365f"/>
      </g>
      <g id="Group_10451" data-name="Group 10451" transform="translate(26.107 25.648)">
        <path id="Path_12640" data-name="Path 12640" d="M76.7,273.316a.344.344,0,0,1-.344-.344v-1.832a.344.344,0,0,1,.687,0v1.832A.344.344,0,0,1,76.7,273.316Z" transform="translate(-76.352 -270.797)" fill="#21365f"/>
      </g>
      <g id="Group_10452" data-name="Group 10452" transform="translate(21.068 24.732)">
        <path id="Path_12641" data-name="Path 12641" d="M67.527,269.484H65.695a.344.344,0,0,1,0-.687h1.832a.344.344,0,1,1,0,.687Z" transform="translate(-65.351 -268.797)" fill="#21365f"/>
      </g>
      <g id="Group_10453" data-name="Group 10453" transform="translate(21.984 23.816)">
        <path id="Path_12642" data-name="Path 12642" d="M67.695,269.316a.344.344,0,0,1-.344-.344v-1.832a.344.344,0,0,1,.687,0v1.832A.344.344,0,0,1,67.695,269.316Z" transform="translate(-67.351 -266.797)" fill="#21365f"/>
      </g>
      <g id="Group_10454" data-name="Group 10454" transform="translate(3.662 6.409)">
        <path id="Path_12643" data-name="Path 12643" d="M29.523,229.48H27.691a.344.344,0,1,1,0-.687h1.832a.344.344,0,1,1,0,.687Z" transform="translate(-27.347 -228.793)" fill="#21365f"/>
      </g>
      <g id="Group_10455" data-name="Group 10455" transform="translate(4.578 5.493)">
        <path id="Path_12644" data-name="Path 12644" d="M29.691,229.312a.344.344,0,0,1-.344-.344v-1.832a.344.344,0,0,1,.687,0v1.832A.344.344,0,0,1,29.691,229.312Z" transform="translate(-29.347 -226.793)" fill="#21365f"/>
      </g>
      <g id="Group_10456" data-name="Group 10456" transform="translate(3.092 6.756)">
        <path id="Path_12645" data-name="Path 12645" d="M45.75,238.366H44.4a8.25,8.25,0,0,0-.472-1.759l1.174-.677a.5.5,0,0,0,.184-.689l-.756-1.309a.5.5,0,0,0-.688-.184l-1.176.678a8.39,8.39,0,0,0-1.286-1.286l.678-1.176a.5.5,0,0,0-.184-.688l-1.309-.756a.5.5,0,0,0-.688.184l-.678,1.175a8.235,8.235,0,0,0-1.758-.473v-1.354a.5.5,0,0,0-.5-.5H35.423a.5.5,0,0,0-.5.5v1.354a8.239,8.239,0,0,0-1.758.473l-.678-1.175a.5.5,0,0,0-.688-.184l-1.309.756a.5.5,0,0,0-.185.688l.679,1.176a8.373,8.373,0,0,0-1.287,1.286l-1.175-.678a.5.5,0,0,0-.688.184l-.756,1.309a.5.5,0,0,0,.185.689l1.174.677a8.278,8.278,0,0,0-.472,1.759H26.606a.5.5,0,0,0-.5.5v1.511a.5.5,0,0,0,.5.5H27.96a8.27,8.27,0,0,0,.472,1.758l-1.174.678a.5.5,0,0,0-.185.688l.756,1.309a.5.5,0,0,0,.688.185l1.175-.678a8.374,8.374,0,0,0,1.287,1.287l-.679,1.175a.5.5,0,0,0,.185.688l1.309.756a.5.5,0,0,0,.688-.185l.678-1.174a8.265,8.265,0,0,0,1.758.472V249.2a.5.5,0,0,0,.5.5h1.511a.5.5,0,0,0,.5-.5v-1.354a8.261,8.261,0,0,0,1.758-.472l.678,1.174a.5.5,0,0,0,.688.185l1.309-.756a.5.5,0,0,0,.184-.688l-.678-1.175a8.391,8.391,0,0,0,1.286-1.287l1.176.678a.5.5,0,0,0,.688-.185l.756-1.309a.5.5,0,0,0-.184-.688l-1.174-.678a8.242,8.242,0,0,0,.472-1.758H45.75a.5.5,0,0,0,.5-.5v-1.511A.5.5,0,0,0,45.75,238.366Z" transform="translate(-26.102 -229.549)" fill="#fff"/>
      </g>
      <g id="Group_10457" data-name="Group 10457" transform="translate(6.757 10.419)">
        <path id="Path_12646" data-name="Path 12646" d="M35.317,250.445l-.679,1.175a.5.5,0,0,0,.185.688l1.309.756a.5.5,0,0,0,.688-.185l.678-1.174a8.265,8.265,0,0,0,1.758.472v1.354a.5.5,0,0,0,.5.5h1.511a.5.5,0,0,0,.5-.5v-1.354a8.261,8.261,0,0,0,1.758-.472l.678,1.174a.5.5,0,0,0,.688.185l1.309-.756a.5.5,0,0,0,.184-.688l-.678-1.175A8.394,8.394,0,0,0,47,249.158l1.176.678a.5.5,0,0,0,.688-.185l.756-1.309a.5.5,0,0,0-.184-.688l-1.174-.678a8.242,8.242,0,0,0,.472-1.758h1.354a.5.5,0,0,0,.5-.5V243.2a.5.5,0,0,0-.5-.5H48.734a8.25,8.25,0,0,0-.472-1.759l1.174-.677a.5.5,0,0,0,.184-.689l-.756-1.309a.5.5,0,0,0-.688-.184L47,238.761a8.346,8.346,0,0,0-1.2-1.208c-.082,0-.164-.006-.246-.006A11.45,11.45,0,0,0,34.1,249c0,.084,0,.167.006.251A8.344,8.344,0,0,0,35.317,250.445Z" transform="translate(-34.105 -237.547)" fill="#d2d5df"/>
      </g>
      <g id="Group_10458" data-name="Group 10458" transform="translate(2.748 6.411)">
        <path id="Path_12647" data-name="Path 12647" d="M36.528,249.637H35.016a.848.848,0,0,1-.847-.847v-1.064a8.568,8.568,0,0,1-1.262-.339l-.533.923a.847.847,0,0,1-1.157.31l-1.309-.756a.847.847,0,0,1-.31-1.157l.534-.925a8.738,8.738,0,0,1-.923-.923l-.925.534a.848.848,0,0,1-1.157-.311l-.756-1.309a.848.848,0,0,1,.31-1.157l.923-.533a8.627,8.627,0,0,1-.339-1.262H26.2a.848.848,0,0,1-.847-.847v-1.511a.848.848,0,0,1,.847-.848h1.064a8.586,8.586,0,0,1,.339-1.261l-.923-.533a.847.847,0,0,1-.31-1.158l.756-1.309a.849.849,0,0,1,1.157-.311l.925.534a8.778,8.778,0,0,1,.923-.923l-.534-.925a.848.848,0,0,1,.31-1.157l1.309-.755a.848.848,0,0,1,1.157.31l.533.923a8.62,8.62,0,0,1,1.262-.339v-1.065a.848.848,0,0,1,.847-.848h1.511a.848.848,0,0,1,.847.848v1.065a8.615,8.615,0,0,1,1.262.339l.533-.923a.848.848,0,0,1,1.157-.31l1.309.755a.848.848,0,0,1,.31,1.157l-.534.925a8.782,8.782,0,0,1,.923.923l.925-.534a.849.849,0,0,1,1.157.311l.756,1.309a.849.849,0,0,1-.31,1.158l-.923.533a8.641,8.641,0,0,1,.339,1.261h1.065a.848.848,0,0,1,.847.848v1.511a.848.848,0,0,1-.847.847H44.28a8.744,8.744,0,0,1-.339,1.262l.923.533a.848.848,0,0,1,.31,1.157l-.756,1.309a.848.848,0,0,1-1.157.311l-.925-.534a8.655,8.655,0,0,1-.923.923l.534.925a.847.847,0,0,1-.31,1.157l-1.309.756a.847.847,0,0,1-1.157-.31l-.533-.923a8.562,8.562,0,0,1-1.262.339v1.064A.848.848,0,0,1,36.528,249.637Zm-3.774-3.017a.349.349,0,0,1,.125.023,8,8,0,0,0,1.685.453.343.343,0,0,1,.292.339v1.354a.16.16,0,0,0,.16.16h1.511a.16.16,0,0,0,.16-.16v-1.354a.343.343,0,0,1,.292-.339,8,8,0,0,0,1.685-.453.345.345,0,0,1,.422.148l.678,1.174a.16.16,0,0,0,.219.058l1.309-.756a.16.16,0,0,0,.059-.218l-.679-1.175a.344.344,0,0,1,.082-.44,8.012,8.012,0,0,0,1.233-1.233.344.344,0,0,1,.44-.082l1.176.679a.162.162,0,0,0,.219-.059l.756-1.309a.16.16,0,0,0-.059-.219l-1.174-.678a.343.343,0,0,1-.148-.422,7.907,7.907,0,0,0,.453-1.685.343.343,0,0,1,.339-.292h1.355a.16.16,0,0,0,.16-.16v-1.511a.161.161,0,0,0-.16-.161H43.99a.343.343,0,0,1-.339-.292,7.922,7.922,0,0,0-.453-1.685.344.344,0,0,1,.148-.422l1.174-.678a.161.161,0,0,0,.059-.219l-.756-1.309a.161.161,0,0,0-.219-.059l-1.175.679a.344.344,0,0,1-.44-.082A7.974,7.974,0,0,0,40.755,233a.344.344,0,0,1-.082-.44l.679-1.176a.161.161,0,0,0-.059-.219l-1.309-.755a.161.161,0,0,0-.219.058l-.678,1.175a.344.344,0,0,1-.422.147,8,8,0,0,0-1.685-.453.343.343,0,0,1-.292-.339v-1.354a.161.161,0,0,0-.16-.161H35.016a.161.161,0,0,0-.16.161V231a.343.343,0,0,1-.292.339,7.984,7.984,0,0,0-1.685.453.343.343,0,0,1-.422-.147l-.678-1.175a.158.158,0,0,0-.1-.074.162.162,0,0,0-.121.016l-1.309.755a.161.161,0,0,0-.059.219l.679,1.176a.344.344,0,0,1-.082.44,7.974,7.974,0,0,0-1.234,1.233.344.344,0,0,1-.439.082l-1.175-.679a.161.161,0,0,0-.219.059L26.965,235a.161.161,0,0,0,.059.219l1.174.678a.343.343,0,0,1,.148.422,7.92,7.92,0,0,0-.453,1.685.343.343,0,0,1-.34.292H26.2a.161.161,0,0,0-.16.161v1.511a.16.16,0,0,0,.16.16h1.354a.344.344,0,0,1,.34.292,7.906,7.906,0,0,0,.453,1.685.343.343,0,0,1-.148.422l-1.174.678a.159.159,0,0,0-.075.1.16.16,0,0,0,.016.122l.755,1.309a.162.162,0,0,0,.219.059l1.175-.679a.344.344,0,0,1,.439.082,8,8,0,0,0,1.234,1.233.344.344,0,0,1,.082.44l-.679,1.175a.161.161,0,0,0,.059.218l1.309.756a.161.161,0,0,0,.219-.058l.678-1.174A.343.343,0,0,1,32.754,246.619Z" transform="translate(-25.352 -228.797)" fill="#21365f"/>
      </g>
      <g id="Group_10459" data-name="Group 10459" transform="translate(7.672 11.336)">
        <circle id="Ellipse_129" data-name="Ellipse 129" cx="5.496" cy="5.496" r="5.496" fill="#fff"/>
      </g>
      <g id="Group_10460" data-name="Group 10460" transform="translate(10.878 14.542)">
        <path id="Path_12648" data-name="Path 12648" d="M50.889,248.839a5.477,5.477,0,0,0-.357-1.934,5.485,5.485,0,0,0-7.073,7.074,5.484,5.484,0,0,0,7.429-5.139Z" transform="translate(-43.103 -246.549)" fill="#d2d5df"/>
      </g>
      <g id="Group_10461" data-name="Group 10461" transform="translate(7.328 10.991)">
        <path id="Path_12649" data-name="Path 12649" d="M41.192,250.476a5.84,5.84,0,1,1,5.84-5.84A5.846,5.846,0,0,1,41.192,250.476Zm0-10.992a5.153,5.153,0,1,0,5.153,5.153A5.158,5.158,0,0,0,41.192,239.484Z" transform="translate(-35.352 -238.797)" fill="#21365f"/>
      </g>
      <g id="Group_10462" data-name="Group 10462" transform="translate(16.145 16.374)">
        <circle id="Ellipse_130" data-name="Ellipse 130" cx="0.458" cy="0.458" r="0.458" fill="#21365f"/>
      </g>
      <g id="Group_10463" data-name="Group 10463" transform="translate(9.274 16.374)">
        <circle id="Ellipse_131" data-name="Ellipse 131" cx="0.458" cy="0.458" r="0.458" fill="#21365f"/>
      </g>
      <g id="Group_10465" data-name="Group 10465" transform="translate(12.822 12.78)">
        <path id="Path_12651" data-name="Path 12651" d="M47.69,244.19a.344.344,0,0,1-.344-.344v-.8a.344.344,0,0,1,.687,0v.8A.344.344,0,0,1,47.69,244.19Z" transform="translate(-47.346 -242.703)" fill="#21365f"/>
      </g>
      <g id="Group_10466" data-name="Group 10466" transform="translate(12.822 19.396)">
        <path id="Path_12652" data-name="Path 12652" d="M47.69,258.633a.343.343,0,0,1-.344-.344v-.8a.344.344,0,0,1,.687,0v.8A.343.343,0,0,1,47.69,258.633Z" transform="translate(-47.346 -257.146)" fill="#21365f"/>
      </g>
    </g>
  </g>
</svg>
