<svg xmlns="http://www.w3.org/2000/svg" xmlns:xlink="http://www.w3.org/1999/xlink" width="30" height="30" viewBox="0 0 30 30">
  <defs>
    <linearGradient id="linear-gradient" x1="0.5" x2="0.5" y2="1" gradientUnits="objectBoundingBox">
      <stop offset="0" stop-color="#7980db"/>
      <stop offset="1" stop-color="#6e8fe7"/>
    </linearGradient>
  </defs>
  <g id="Group_10519" data-name="Group 10519" transform="translate(-445.245 -752.25)">
    <g id="Group_10515" data-name="Group 10515" transform="translate(445.245 752.25)">
      <g id="Group_10470" data-name="Group 10470" transform="translate(14.585 6.583)">
        <path id="Path_12685" data-name="Path 12685" d="M9.16,27.872A9.16,9.16,0,0,1,0,18.712C0,13.653,14.219,27.872,9.16,27.872Z" transform="translate(0 -17.624)" fill="#e8ebec"/>
      </g>
      <g id="Group_10471" data-name="Group 10471" transform="translate(0.344 0.345)">
        <rect id="Rectangle_2683" data-name="Rectangle 2683" width="22.9" height="29.312" rx="3" fill="#fff"/>
      </g>
      <g id="Group_10472" data-name="Group 10472" transform="translate(4.466 5.841)">
        <path id="Rectangle_2684" data-name="Rectangle 2684" d="M18.778,0h0a0,0,0,0,1,0,0V22a1.817,1.817,0,0,1-1.817,1.817H0a0,0,0,0,1,0,0V18.778A18.778,18.778,0,0,1,18.778,0Z" fill="#6e8fe7"/>
      </g>
      <g id="Group_10473" data-name="Group 10473" transform="translate(0 0.001)">
        <path id="Path_12653" data-name="Path 12653" d="M159.846,127.153H139.694a1.719,1.719,0,0,1-1.718-1.718V98.872a1.719,1.719,0,0,1,1.718-1.718h20.152a1.719,1.719,0,0,1,1.718,1.718v26.564A1.719,1.719,0,0,1,159.846,127.153ZM139.694,97.841a1.032,1.032,0,0,0-1.031,1.031v26.564a1.032,1.032,0,0,0,1.031,1.031h20.152a1.032,1.032,0,0,0,1.031-1.031V98.872a1.032,1.032,0,0,0-1.031-1.031Z" transform="translate(-137.976 -97.154)" fill="#21365f"/>
      </g>
      <g id="Group_10474" data-name="Group 10474" transform="translate(5.84 0.344)">
        <path id="Rectangle_2685" data-name="Rectangle 2685" d="M0,0H11.908a0,0,0,0,1,0,0V.664a3,3,0,0,1-3,3H3a3,3,0,0,1-3-3V0A0,0,0,0,1,0,0Z" fill="#fff"/>
      </g>
      <g id="Group_10475" data-name="Group 10475" transform="translate(8.588 2.176)">
        <path id="Path_12654" data-name="Path 12654" d="M164.513,103.734h-7.786a1.832,1.832,0,0,1,1.832-1.832h7.328v.458A1.375,1.375,0,0,1,164.513,103.734Z" transform="translate(-156.727 -101.902)" fill="#bdc3d8"/>
      </g>
      <g id="Group_10476" data-name="Group 10476" transform="translate(5.496)">
        <path id="Path_12655" data-name="Path 12655" d="M160.854,101.5h-9.16a1.72,1.72,0,0,1-1.718-1.717V97.5a.344.344,0,0,1,.344-.344h11.908a.344.344,0,0,1,.343.344v2.29A1.72,1.72,0,0,1,160.854,101.5Zm-10.191-3.664v1.947a1.032,1.032,0,0,0,1.031,1.031h9.16a1.032,1.032,0,0,0,1.03-1.031V97.839Z" transform="translate(-149.976 -97.152)" fill="#21365f"/>
      </g>
      <g id="Group_10477" data-name="Group 10477" transform="translate(11.336 7.215)">
        <ellipse id="Ellipse_135" data-name="Ellipse 135" cx="9.16" cy="9.16" rx="9.16" ry="9.16" fill="#fff"/>
      </g>
      <g id="Group_10478" data-name="Group 10478" transform="translate(18.207 9.144)">
        <path id="Path_12656" data-name="Path 12656" d="M189.179,124.347a9.134,9.134,0,0,0-3.551-7.23,9.145,9.145,0,0,0-4.348,16.294A9.154,9.154,0,0,0,189.179,124.347Z" transform="translate(-177.729 -117.117)" fill="url(#linear-gradient)"/>
      </g>
      <g id="Group_10479" data-name="Group 10479" transform="translate(10.993 6.871)">
        <path id="Path_12657" data-name="Path 12657" d="M171.482,131.161a9.5,9.5,0,1,1,9.5-9.5A9.514,9.514,0,0,1,171.482,131.161Zm0-18.32a8.817,8.817,0,1,0,8.817,8.817A8.827,8.827,0,0,0,171.482,112.841Z" transform="translate(-161.978 -112.154)" fill="#21365f"/>
      </g>
      <g id="Group_10480" data-name="Group 10480" transform="translate(13.226 9.236)">
        <path id="Path_12658" data-name="Path 12658" d="M167.2,122.4a.33.33,0,0,1-.112-.019.343.343,0,0,1-.213-.436,7.678,7.678,0,0,1,4.373-4.6.344.344,0,0,1,.258.637,6.984,6.984,0,0,0-3.982,4.192A.343.343,0,0,1,167.2,122.4Z" transform="translate(-166.854 -117.319)" fill="#21365f"/>
      </g>
      <g id="Group_10481" data-name="Group 10481" transform="translate(12.825 15.257)">
        <path id="Path_12659" data-name="Path 12659" d="M166.331,132.3a.343.343,0,0,1-.343-.327c-.006-.128-.01-.257-.01-.387a7.851,7.851,0,0,1,.042-.81.349.349,0,0,1,.378-.306.344.344,0,0,1,.306.377,7,7,0,0,0-.039.739q0,.179.009.354a.344.344,0,0,1-.326.36Z" transform="translate(-165.978 -130.464)" fill="#21365f"/>
      </g>
      <g id="Group_10482" data-name="Group 10482" transform="translate(20.153 6.871)">
        <path id="Path_12660" data-name="Path 12660" d="M182.322,122a.358.358,0,0,1-.132-.026.345.345,0,0,1-.212-.318V112.5a.344.344,0,0,1,.687,0v8.334l5.912-5.874a.344.344,0,0,1,.484.488l-6.5,6.457A.348.348,0,0,1,182.322,122Z" transform="translate(-181.978 -112.154)" fill="#21365f"/>
      </g>
      <g id="Group_10483" data-name="Group 10483" transform="translate(14.177 16.031)">
        <path id="Path_12661" data-name="Path 12661" d="M169.273,139.78a.344.344,0,0,1-.26-.567l5.976-6.939a.342.342,0,0,1,.432-.073l7.932,4.58a.343.343,0,0,1-.344.595l-7.686-4.438-5.791,6.723A.343.343,0,0,1,169.273,139.78Z" transform="translate(-168.929 -132.154)" fill="#21365f"/>
      </g>
      <g id="Group_10484" data-name="Group 10484" transform="translate(16.332 12.21)">
        <path id="Path_12662" data-name="Path 12662" d="M173.7,128.718a4.164,4.164,0,1,1,4.84,3.355A4.163,4.163,0,0,1,173.7,128.718Z" transform="translate(-173.636 -123.812)" fill="#fff"/>
      </g>
      <g id="Group_10485" data-name="Group 10485" transform="translate(19.445 13.977)">
        <path id="Path_12663" data-name="Path 12663" d="M185.58,129.325a4.142,4.142,0,0,0-.688-1.643,4.155,4.155,0,0,0-3.7,6.535,4.147,4.147,0,0,0,4.392-4.891Z" transform="translate(-180.432 -127.67)" fill="url(#linear-gradient)"/>
      </g>
      <g id="Group_10486" data-name="Group 10486" transform="translate(15.989 11.868)">
        <path id="Path_12664" data-name="Path 12664" d="M177.394,132.078a4.507,4.507,0,1,1,4.507-4.508A4.513,4.513,0,0,1,177.394,132.078Zm0-8.327a3.82,3.82,0,1,0,3.82,3.82A3.824,3.824,0,0,0,177.394,123.751Z" transform="translate(-172.887 -123.064)" fill="#21365f"/>
      </g>
      <g id="Group_10487" data-name="Group 10487" transform="translate(3.092 6.757)">
        <rect id="Rectangle_2686" data-name="Rectangle 2686" width="2.748" height="2.749" rx="1" fill="#fff"/>
      </g>
      <g id="Group_10488" data-name="Group 10488" transform="translate(3.092 12.253)">
        <rect id="Rectangle_2687" data-name="Rectangle 2687" width="2.748" height="2.748" rx="1" fill="#fff"/>
      </g>
      <g id="Group_10489" data-name="Group 10489" transform="translate(3.092 17.75)">
        <rect id="Rectangle_2688" data-name="Rectangle 2688" width="2.748" height="2.748" rx="1" fill="#fff"/>
      </g>
      <g id="Group_10490" data-name="Group 10490" transform="translate(3.092 23.246)">
        <rect id="Rectangle_2689" data-name="Rectangle 2689" width="2.748" height="2.748" rx="1" fill="#fff"/>
      </g>
      <g id="Group_10491" data-name="Group 10491" transform="translate(4.008 8.131)">
        <path id="Rectangle_2690" data-name="Rectangle 2690" d="M1,0h.832a0,0,0,0,1,0,0V.375a1,1,0,0,1-1,1H0a0,0,0,0,1,0,0V1A1,1,0,0,1,1,0Z" fill="#bdc3d8"/>
      </g>
      <g id="Group_10492" data-name="Group 10492" transform="translate(4.008 24.62)">
        <path id="Rectangle_2691" data-name="Rectangle 2691" d="M1,0h.832a0,0,0,0,1,0,0V.374a1,1,0,0,1-1,1H0a0,0,0,0,1,0,0V1A1,1,0,0,1,1,0Z" fill="#bdc3d8"/>
      </g>
      <g id="Group_10493" data-name="Group 10493" transform="translate(4.008 13.627)">
        <path id="Rectangle_2692" data-name="Rectangle 2692" d="M1,0h.832a0,0,0,0,1,0,0V.374a1,1,0,0,1-1,1H0a0,0,0,0,1,0,0V1A1,1,0,0,1,1,0Z" fill="#bdc3d8"/>
      </g>
      <g id="Group_10494" data-name="Group 10494" transform="translate(4.008 19.124)">
        <path id="Rectangle_2693" data-name="Rectangle 2693" d="M1,0h.832a0,0,0,0,1,0,0V.374a1,1,0,0,1-1,1H0a0,0,0,0,1,0,0V1A1,1,0,0,1,1,0Z" fill="#bdc3d8"/>
      </g>
      <g id="Group_10495" data-name="Group 10495" transform="translate(2.748 6.413)">
        <path id="Path_12665" data-name="Path 12665" d="M146.611,114.59h-1.832a.8.8,0,0,1-.8-.8v-1.833a.8.8,0,0,1,.8-.8h1.832a.8.8,0,0,1,.8.8v1.833A.8.8,0,0,1,146.611,114.59Zm-1.832-2.749a.115.115,0,0,0-.115.115v1.833a.115.115,0,0,0,.115.115h1.832a.115.115,0,0,0,.115-.115v-1.833a.115.115,0,0,0-.115-.115Z" transform="translate(-143.977 -111.154)" fill="#21365f"/>
      </g>
      <g id="Group_10496" data-name="Group 10496" transform="translate(2.748 11.91)">
        <path id="Path_12666" data-name="Path 12666" d="M146.611,126.591h-1.832a.8.8,0,0,1-.8-.8v-1.832a.8.8,0,0,1,.8-.8h1.832a.8.8,0,0,1,.8.8v1.832A.8.8,0,0,1,146.611,126.591Zm-1.832-2.748a.114.114,0,0,0-.115.114v1.832a.114.114,0,0,0,.115.115h1.832a.115.115,0,0,0,.115-.115v-1.832a.115.115,0,0,0-.115-.114Z" transform="translate(-143.977 -123.156)" fill="#21365f"/>
      </g>
      <g id="Group_10497" data-name="Group 10497" transform="translate(2.748 17.406)">
        <path id="Path_12667" data-name="Path 12667" d="M146.611,138.592h-1.832a.8.8,0,0,1-.8-.8v-1.833a.8.8,0,0,1,.8-.8h1.832a.8.8,0,0,1,.8.8v1.833A.8.8,0,0,1,146.611,138.592Zm-1.832-2.749a.115.115,0,0,0-.115.115v1.833a.115.115,0,0,0,.115.115h1.832a.115.115,0,0,0,.115-.115v-1.833a.115.115,0,0,0-.115-.115Z" transform="translate(-143.977 -135.156)" fill="#21365f"/>
      </g>
      <g id="Group_10498" data-name="Group 10498" transform="translate(2.748 22.903)">
        <path id="Path_12668" data-name="Path 12668" d="M146.611,150.593h-1.832a.8.8,0,0,1-.8-.8V147.96a.8.8,0,0,1,.8-.8h1.832a.8.8,0,0,1,.8.8v1.832A.8.8,0,0,1,146.611,150.593Zm-1.832-2.748a.115.115,0,0,0-.115.115v1.832a.114.114,0,0,0,.115.115h1.832a.115.115,0,0,0,.115-.115V147.96a.115.115,0,0,0-.115-.115Z" transform="translate(-143.977 -147.158)" fill="#21365f"/>
      </g>
      <g id="Group_10499" data-name="Group 10499" transform="translate(10.807 6.871)">
        <path id="Path_12669" data-name="Path 12669" d="M165.308,112.841h-3.391a.343.343,0,1,1,0-.687h3.391a.343.343,0,0,1,0,.687Z" transform="translate(-161.573 -112.154)" fill="#21365f"/>
      </g>
      <g id="Group_10500" data-name="Group 10500" transform="translate(7.329 6.871)">
        <path id="Path_12670" data-name="Path 12670" d="M155.968,112.841h-1.647a.343.343,0,1,1,0-.687h1.647a.343.343,0,1,1,0,.687Z" transform="translate(-153.978 -112.154)" fill="#21365f"/>
      </g>
      <g id="Group_10501" data-name="Group 10501" transform="translate(7.329 8.703)">
        <path id="Path_12671" data-name="Path 12671" d="M159.359,116.841h-5.038a.344.344,0,0,1,0-.687h5.038a.344.344,0,0,1,0,.687Z" transform="translate(-153.978 -116.154)" fill="#21365f"/>
      </g>
      <g id="Group_10502" data-name="Group 10502" transform="translate(7.329 12.368)">
        <path id="Path_12672" data-name="Path 12672" d="M157.069,124.843h-2.747a.344.344,0,0,1,0-.687h2.747a.344.344,0,0,1,0,.687Z" transform="translate(-153.978 -124.156)" fill="#21365f"/>
      </g>
      <g id="Group_10503" data-name="Group 10503" transform="translate(7.329 14.2)">
        <path id="Path_12673" data-name="Path 12673" d="M156.611,128.843h-2.289a.343.343,0,1,1,0-.687h2.289a.343.343,0,1,1,0,.687Z" transform="translate(-153.978 -128.156)" fill="#21365f"/>
      </g>
      <g id="Group_10504" data-name="Group 10504" transform="translate(7.329 17.864)">
        <path id="Path_12674" data-name="Path 12674" d="M156.611,136.843h-2.289a.343.343,0,1,1,0-.687h2.289a.343.343,0,1,1,0,.687Z" transform="translate(-153.978 -136.156)" fill="#21365f"/>
      </g>
      <g id="Group_10505" data-name="Group 10505" transform="translate(7.329 19.697)">
        <path id="Path_12675" data-name="Path 12675" d="M157.069,140.845h-2.747a.343.343,0,1,1,0-.687h2.747a.343.343,0,1,1,0,.687Z" transform="translate(-153.978 -140.158)" fill="#21365f"/>
      </g>
      <g id="Group_10506" data-name="Group 10506" transform="translate(7.329 23.361)">
        <path id="Path_12676" data-name="Path 12676" d="M159.359,148.845h-5.038a.343.343,0,1,1,0-.687h5.038a.343.343,0,1,1,0,.687Z" transform="translate(-153.978 -148.158)" fill="#21365f"/>
      </g>
      <g id="Group_10507" data-name="Group 10507" transform="translate(11.908 25.193)">
        <path id="Path_12677" data-name="Path 12677" d="M166.611,152.845h-2.29a.343.343,0,0,1,0-.687h2.29a.343.343,0,1,1,0,.687Z" transform="translate(-163.977 -152.158)" fill="#21365f"/>
      </g>
      <g id="Group_10508" data-name="Group 10508" transform="translate(7.329 25.193)">
        <path id="Path_12678" data-name="Path 12678" d="M157.069,152.845h-2.747a.343.343,0,1,1,0-.687h2.747a.343.343,0,1,1,0,.687Z" transform="translate(-153.978 -152.158)" fill="#21365f"/>
      </g>
      <g id="Group_10509" data-name="Group 10509" transform="translate(24.733 2.29)">
        <path id="Path_12679" data-name="Path 12679" d="M194.153,102.839h-1.832a.344.344,0,0,1,0-.687h1.832a.344.344,0,0,1,0,.687Z" transform="translate(-191.977 -102.152)" fill="#21365f"/>
      </g>
      <g id="Group_10510" data-name="Group 10510" transform="translate(25.649 1.374)">
        <path id="Path_12680" data-name="Path 12680" d="M194.321,102.671a.344.344,0,0,1-.344-.343V100.5a.343.343,0,1,1,.687,0v1.832A.344.344,0,0,1,194.321,102.671Z" transform="translate(-193.977 -100.152)" fill="#21365f"/>
      </g>
      <g id="Group_10511" data-name="Group 10511" transform="translate(27.481 6.412)">
        <path id="Path_12681" data-name="Path 12681" d="M200.153,111.839h-1.832a.344.344,0,1,1,0-.687h1.832a.344.344,0,1,1,0,.687Z" transform="translate(-197.977 -111.152)" fill="#21365f"/>
      </g>
      <g id="Group_10512" data-name="Group 10512" transform="translate(28.397 5.496)">
        <path id="Path_12682" data-name="Path 12682" d="M200.32,111.671a.344.344,0,0,1-.343-.344V109.5a.343.343,0,1,1,.687,0v1.832A.344.344,0,0,1,200.32,111.671Z" transform="translate(-199.977 -109.152)" fill="#21365f"/>
      </g>
      <g id="Group_10513" data-name="Group 10513" transform="translate(25.649 26.108)">
        <path id="Path_12683" data-name="Path 12683" d="M196.153,154.843h-1.832a.343.343,0,1,1,0-.687h1.832a.343.343,0,1,1,0,.687Z" transform="translate(-193.977 -154.156)" fill="#21365f"/>
      </g>
      <g id="Group_10514" data-name="Group 10514" transform="translate(26.565 25.192)">
        <path id="Path_12684" data-name="Path 12684" d="M196.321,154.675a.344.344,0,0,1-.344-.344V152.5a.343.343,0,1,1,.687,0v1.832A.344.344,0,0,1,196.321,154.675Z" transform="translate(-195.977 -152.156)" fill="#21365f"/>
      </g>
    </g>
  </g>
</svg>
