<?xml version="1.0" standalone="no"?>
<!DOCTYPE svg PUBLIC "-//W3C//DTD SVG 20010904//EN"
 "http://www.w3.org/TR/2001/REC-SVG-20010904/DTD/svg10.dtd">
<svg version="1.0" xmlns="http://www.w3.org/2000/svg"
 width="260.000000pt" height="260.000000pt" viewBox="0 0 260.000000 260.000000"
 preserveAspectRatio="xMidYMid meet">
<metadata>
Created by potrace 1.14, written by Peter Selinger 2001-2017
</metadata>
<g transform="translate(0.000000,260.000000) scale(0.100000,-0.100000)"
fill="#000000" stroke="none">
<path d="M98 2358 c6 -7 425 -429 931 -937 507 -509 921 -932 921 -942 0 -9
-7 -20 -16 -23 -20 -8 -1238 -8 -1258 0 -9 3 -16 14 -16 23 0 10 73 90 161
180 l162 162 -78 76 -77 76 -363 -364 c-200 -200 -361 -366 -358 -369 8 -8
2403 -6 2400 2 -1 4 -419 425 -929 936 -511 510 -928 935 -928 944 0 9 6 20
13 25 18 11 1259 11 1275 0 6 -5 12 -17 12 -26 0 -9 -73 -89 -162 -178 l-162
-162 75 -77 76 -76 366 367 c202 202 367 369 367 371 0 2 -545 4 -1211 4 -968
0 -1209 -3 -1201 -12z"/>
<path d="M0 1302 l0 -977 369 369 368 369 -198 198 c-110 110 -201 199 -204
199 -3 0 -5 -66 -5 -147 l0 -147 50 -51 50 -50 -79 -80 c-43 -44 -91 -92 -107
-107 l-29 -27 0 449 c0 248 2 450 4 450 3 0 265 -261 582 -579 317 -319 585
-583 595 -588 22 -10 277 -11 284 0 3 3 -374 387 -837 851 l-843 844 0 -976z"/>
<path d="M2235 1914 c-198 -200 -361 -367 -363 -372 -1 -4 88 -97 198 -207
l200 -200 0 153 0 153 -51 50 -50 50 103 105 c57 57 105 104 108 104 4 0 5
-894 1 -896 0 0 -265 264 -587 587 l-586 587 -149 1 c-82 1 -149 -1 -149 -4 0
-3 380 -387 845 -853 l845 -847 0 978 c0 537 -1 977 -2 976 -2 -1 -165 -165
-363 -365z"/>
</g>
</svg>
