<svg id="video_overlay_2" xmlns="http://www.w3.org/2000/svg" xmlns:xlink="http://www.w3.org/1999/xlink" width="53.981" height="75.62" viewBox="0 0 53.981 75.62">
  <defs>
    <clipPath id="clip-path">
      <rect id="Rectangle_21" data-name="Rectangle 21" width="53.981" height="75.62" fill="#2e2b62"/>
    </clipPath>
  </defs>
  <path id="Path_51" data-name="Path 51" d="M8.709,50.618,48.851,74.6l4.329-63.48Z" transform="translate(0.801 1.023)" fill="#6e8fe7"/>
  <g id="Group_34" data-name="Group 34">
    <g id="Group_33" data-name="Group 33" clip-path="url(#clip-path)">
      <path id="Path_52" data-name="Path 52" d="M39.314,65.159a1.091,1.091,0,0,1-.63-.2L.463,38.023A1.094,1.094,0,0,1,.431,36.26L47.752.224a1.092,1.092,0,0,1,1.742,1.025l-9.1,62.974a1.093,1.093,0,0,1-1.08.936M2.94,37.1,38.487,62.148,46.95,3.581Z" transform="translate(0 0)" fill="#2e2b62"/>
      <path id="Path_53" data-name="Path 53" d="M37.3,65.16a1.094,1.094,0,0,1-.952-.558L21.972,38.939A1.1,1.1,0,0,1,22,37.825C24.33,34.094,44.8,1.344,45.551.412a1.092,1.092,0,0,1,1.934.838l-9.1,62.974a1.093,1.093,0,0,1-.881.918,1.147,1.147,0,0,1-.2.019M24.194,38.435,36.683,60.726,44.6,5.909c-4.481,7.076-13.654,21.718-20.41,32.526" transform="translate(2.009 0)" fill="#2e2b62"/>
      <path id="Path_54" data-name="Path 54" d="M24.934,39.5h-.058L1.034,38.222a1.093,1.093,0,0,1-.6-1.96L47.751.225a1.092,1.092,0,0,1,1.586,1.45L25.858,38.986a1.091,1.091,0,0,1-.924.511M4.118,36.2l20.234,1.081L44.276,5.616Z" transform="translate(0 0)" fill="#2e2b62"/>
    </g>
  </g>
</svg>
