<svg xmlns="http://www.w3.org/2000/svg" xmlns:xlink="http://www.w3.org/1999/xlink" width="591.095" height="661.136" viewBox="0 0 591.095 661.136">
  <defs>
    <linearGradient id="linear-gradient" x1="0.316" y1="0.158" x2="0.955" y2="0.896" gradientUnits="objectBoundingBox">
      <stop offset="0" stop-color="#7c96e7"/>
      <stop offset="1" stop-color="#7c54aa"/>
    </linearGradient>
    <filter id="Polygon_Mobile_Section" x="0" y="0" width="591.095" height="661.136" filterUnits="userSpaceOnUse">
      <feOffset dy="3" input="SourceAlpha"/>
      <feGaussianBlur stdDeviation="3" result="blur"/>
      <feFlood flood-color="#fff" flood-opacity="0.161" result="color"/>
      <feComposite operator="out" in="SourceGraphic" in2="blur"/>
      <feComposite operator="in" in="color"/>
      <feComposite operator="in" in2="SourceGraphic"/>
    </filter>
  </defs>
  <g data-type="innerShadowGroup">
    <path id="Polygon_Mobile_Section-2" data-name="Polygon_Mobile_Section" d="M1470.767,7763.06c-3.635-145.964-28.41-281.459-126.1-294.222S977.908,7735.485,972.415,7847.92s149.081,137.3,232.247,233.255,336.765,32.508,356.306-46.349-86.565-125.8-90.2-271.766Zm0,0" transform="translate(-972.273 -7468.415)" fill="url(#linear-gradient)"/>
    <g transform="matrix(1, 0, 0, 1, 0, 0)" filter="url(#Polygon_Mobile_Section)">
      <path id="Polygon_Mobile_Section-3" data-name="Polygon_Mobile_Section" d="M1470.767,7763.06c-3.635-145.964-28.41-281.459-126.1-294.222S977.908,7735.485,972.415,7847.92s149.081,137.3,232.247,233.255,336.765,32.508,356.306-46.349-86.565-125.8-90.2-271.766Zm0,0" transform="translate(-972.27 -7468.42)" fill="#fff"/>
    </g>
  </g>
</svg>
