<svg id="calendar_1_" data-name="calendar (1)" xmlns="http://www.w3.org/2000/svg" width="39.319" height="39.319" viewBox="0 0 39.319 39.319">
  <path id="Path_2065" data-name="Path 2065" d="M31.127,3.277H29.489V1.638a1.638,1.638,0,0,0-3.277,0V3.277H13.106V1.638a1.638,1.638,0,1,0-3.277,0V3.277H8.191A8.2,8.2,0,0,0,0,11.468V31.127a8.2,8.2,0,0,0,8.191,8.191H31.127a8.2,8.2,0,0,0,8.191-8.191V11.468A8.2,8.2,0,0,0,31.127,3.277ZM3.277,11.468A4.915,4.915,0,0,1,8.191,6.553H31.127a4.915,4.915,0,0,1,4.915,4.915v1.638H3.277ZM31.127,36.042H8.191a4.915,4.915,0,0,1-4.915-4.915V16.383H36.042V31.127A4.915,4.915,0,0,1,31.127,36.042Z" fill="#fff"/>
  <circle id="Ellipse_104" data-name="Ellipse 104" cx="2.457" cy="2.457" r="2.457" transform="translate(17.202 22.117)" fill="#fff"/>
  <circle id="Ellipse_105" data-name="Ellipse 105" cx="2.457" cy="2.457" r="2.457" transform="translate(9.011 22.117)" fill="#fff"/>
  <circle id="Ellipse_106" data-name="Ellipse 106" cx="2.457" cy="2.457" r="2.457" transform="translate(25.393 22.117)" fill="#fff"/>
</svg>
