<svg id="clock" xmlns="http://www.w3.org/2000/svg" width="41.318" height="41.318" viewBox="0 0 41.318 41.318">
  <path id="Path_2063" data-name="Path 2063" d="M20.659,0A20.659,20.659,0,1,0,41.318,20.659,20.659,20.659,0,0,0,20.659,0Zm0,37.875A17.216,17.216,0,1,1,37.875,20.659,17.216,17.216,0,0,1,20.659,37.875Z" transform="translate(0 0)" fill="#fff"/>
  <path id="Path_2064" data-name="Path 2064" d="M15.494,6a1.722,1.722,0,0,0-1.722,1.722v7.446L7.969,18.8A1.725,1.725,0,1,0,9.8,21.73L16.408,17.6a1.722,1.722,0,0,0,.807-1.477v-8.4A1.722,1.722,0,0,0,15.494,6Z" transform="translate(5.165 4.33)" fill="#fff"/>
</svg>
