<svg xmlns="http://www.w3.org/2000/svg" width="40.93" height="30.698" viewBox="0 0 40.93 30.698">
  <g id="credit-card" transform="translate(0 0)">
    <ellipse id="Ellipse_76" data-name="Ellipse 76" cx="2.109" cy="2.109" rx="2.109" ry="2.109" transform="translate(7.193 18.978)" fill="#fff"/>
    <path id="Path_1766" data-name="Path 1766" d="M32.4,3H8.527A8.537,8.537,0,0,0,0,11.527V25.171A8.537,8.537,0,0,0,8.527,33.7H32.4a8.537,8.537,0,0,0,8.527-8.527V11.527A8.537,8.537,0,0,0,32.4,3ZM8.527,6.411H32.4a5.116,5.116,0,0,1,5.116,5.116H3.411A5.116,5.116,0,0,1,8.527,6.411ZM32.4,30.287H8.527a5.116,5.116,0,0,1-5.116-5.116V14.938H37.519V25.171A5.116,5.116,0,0,1,32.4,30.287Z" transform="translate(0 -3)" fill="#fff"/>
  </g>
</svg>
