<svg id="edit" xmlns="http://www.w3.org/2000/svg" width="37.383" height="37.383" viewBox="0 0 37.383 37.383">
  <path id="Path_2066" data-name="Path 2066" d="M26.271,1.424,7.28,20.414A7.735,7.735,0,0,0,5,25.92v2.092A1.558,1.558,0,0,0,6.558,29.57H8.65a7.735,7.735,0,0,0,5.506-2.28L33.146,8.3a4.868,4.868,0,0,0,0-6.875A4.975,4.975,0,0,0,26.271,1.424ZM30.944,6.1l-18.99,18.99a4.7,4.7,0,0,1-3.3,1.368H8.115V25.92a4.7,4.7,0,0,1,1.368-3.3l18.99-18.99a1.788,1.788,0,0,1,2.47,0,1.749,1.749,0,0,1,0,2.47Z" transform="translate(2.788 0.025)" fill="#fff"/>
  <path id="Path_2067" data-name="Path 2067" d="M35.825,13.986a1.558,1.558,0,0,0-1.558,1.558v7.821h-6.23a4.673,4.673,0,0,0-4.673,4.673v6.23H7.788a4.673,4.673,0,0,1-4.673-4.673V7.788A4.673,4.673,0,0,1,7.788,3.115H21.872a1.558,1.558,0,1,0,0-3.115H7.788A7.8,7.8,0,0,0,0,7.788V29.595a7.8,7.8,0,0,0,7.788,7.788H25.456a7.738,7.738,0,0,0,5.508-2.28l4.137-4.14a7.738,7.738,0,0,0,2.282-5.506V15.543A1.558,1.558,0,0,0,35.825,13.986ZM28.761,32.9a4.634,4.634,0,0,1-2.282,1.246V28.037a1.558,1.558,0,0,1,1.558-1.558h6.114A4.7,4.7,0,0,1,32.9,28.76Z" fill="#fff"/>
</svg>
