<svg xmlns="http://www.w3.org/2000/svg" width="36.278" height="43.319" viewBox="0 0 36.278 43.319">
  <g id="_01_align_center" transform="translate(-40.725 -0.198)">
    <path id="Path_2068" data-name="Path 2068" d="M58.864,43.517l-1.258-1.079c-1.735-1.452-16.881-14.533-16.881-24.1a18.139,18.139,0,0,1,36.278,0c0,9.568-15.146,22.649-16.874,24.109Zm0-39.4A14.233,14.233,0,0,0,44.647,18.337c0,6.011,9.318,15.613,14.217,20.008,4.9-4.4,14.217-14,14.217-20.008A14.233,14.233,0,0,0,58.864,4.12Z" fill="#fff"/>
    <path id="Path_2069" data-name="Path 2069" d="M177.316,143.979a7.19,7.19,0,1,1,7.19-7.19A7.19,7.19,0,0,1,177.316,143.979Zm0-10.785a3.6,3.6,0,1,0,3.6,3.6A3.6,3.6,0,0,0,177.316,133.194Z" transform="translate(-118.452 -118.452)" fill="#fff"/>
  </g>
</svg>
