<svg id="mode-portrait" xmlns="http://www.w3.org/2000/svg" width="36.556" height="36.556" viewBox="0 0 36.556 36.556">
  <path id="Path_2070" data-name="Path 2070" d="M26.662,16a1.523,1.523,0,0,0-1.523,1.523v3.046a4.569,4.569,0,0,1-4.569,4.569H17.523a1.523,1.523,0,0,0,0,3.046h3.046a7.625,7.625,0,0,0,7.616-7.616V17.523A1.523,1.523,0,0,0,26.662,16Z" transform="translate(8.37 8.37)" fill="#fff"/>
  <path id="Path_2071" data-name="Path 2071" d="M1.523,12.185a1.523,1.523,0,0,0,1.523-1.523V7.616A4.569,4.569,0,0,1,7.616,3.046h3.046a1.523,1.523,0,1,0,0-3.046H7.616A7.625,7.625,0,0,0,0,7.616v3.046A1.523,1.523,0,0,0,1.523,12.185Z" transform="translate(0 0)" fill="#fff"/>
  <path id="Path_2072" data-name="Path 2072" d="M10.662,25.139H7.616a4.569,4.569,0,0,1-4.569-4.569V17.523a1.523,1.523,0,0,0-3.046,0v3.046a7.625,7.625,0,0,0,7.616,7.616h3.046a1.523,1.523,0,1,0,0-3.046Z" transform="translate(0 8.37)" fill="#fff"/>
  <path id="Path_2073" data-name="Path 2073" d="M20.569,0H17.523a1.523,1.523,0,0,0,0,3.046h3.046a4.569,4.569,0,0,1,4.569,4.569v3.046a1.523,1.523,0,1,0,3.046,0V7.616A7.625,7.625,0,0,0,20.569,0Z" transform="translate(8.37 0)" fill="#fff"/>
</svg>
