<svg xmlns="http://www.w3.org/2000/svg" xmlns:xlink="http://www.w3.org/1999/xlink" width="52.498" height="53.723" viewBox="0 0 52.498 53.723">
  <defs>
    <clipPath id="clip-path">
      <rect id="Rectangle_726" data-name="Rectangle 726" width="52.498" height="53.723" transform="translate(0 0)" fill="#2e2b62"/>
    </clipPath>
  </defs>
  <g id="phone_private" transform="translate(0 0)">
    <g id="Group_1574" data-name="Group 1574" clip-path="url(#clip-path)">
      <path id="Path_2104" data-name="Path 2104" d="M19.286,20.89,32.834,34.444c.134-.125.3-.275.462-.433L38.418,28.9c1.065-1.062,1.99-1.075,3.039-.028Q46.6,34,51.736,39.148a1.845,1.845,0,0,1-.02,3q-3.758,3.764-7.522,7.519a13.429,13.429,0,0,1-18.99.244q-.129-.126-.255-.255Q14.5,39.237,4.08,28.784a13.412,13.412,0,0,1-.3-18.964c.106-.109.213-.216.323-.322q3.711-3.72,7.433-7.43a1.892,1.892,0,0,1,3.1-.019q5.118,5.115,10.232,10.235a1.846,1.846,0,0,1,0,3q-2.565,2.584-5.155,5.16c-.147.147-.287.3-.425.446M7.676,10.97c-.331.336-.652.664-.976.99a9.855,9.855,0,0,0-.458,13.931c.144.154.294.3.448.449q10.34,10.354,20.69,20.7A9.88,9.88,0,0,0,33.7,50.084a10.15,10.15,0,0,0,8.985-4.018l-8.152-8.159c-1.65,1.34-2.117,1.31-3.7-.273l-15-15c-.163-.163-.332-.323-.48-.5a1.763,1.763,0,0,1,.012-2.406c.172-.2.356-.4.512-.567l-8.2-8.2m2.757-2.653,8.075,8.074,2.624-2.657L13.078,5.684,10.434,8.315M48.034,40.7l-8.109-8.115-2.659,2.652,8.119,8.111,2.648-2.65" fill="#2e2b62"/>
      <path id="Path_2105" data-name="Path 2105" d="M35.767,7.158c.057-.99.037-1.878.173-2.741a5.347,5.347,0,0,1,10.6.569c.04.687.006,1.378.006,2.172h1.493c1.451.016,2.123.682,2.124,2.117q0,5.945,0,11.89a1.843,1.843,0,0,1-2.074,2.1q-6.89.012-13.777,0a1.807,1.807,0,0,1-2.047-2.054q-.009-6.007,0-12.016a1.813,1.813,0,0,1,2.058-2.041c.478-.008.956,0,1.447,0m.109,12.482h10.66V10.772H35.879ZM39.443,7.123h3.536c0-.679.046-1.326-.011-1.965a1.767,1.767,0,0,0-3.517.021c-.047.621-.009,1.248-.009,1.944" fill="#6e8fe7"/>
    </g>
  </g>
</svg>
