<svg xmlns="http://www.w3.org/2000/svg" xmlns:xlink="http://www.w3.org/1999/xlink" width="45.712" height="45.713" viewBox="0 0 45.712 45.713">
  <defs>
    <clipPath id="clip-path">
      <rect id="Rectangle_727" data-name="Rectangle 727" width="45.712" height="45.713" transform="translate(0 0)" fill="#2e2b62"/>
    </clipPath>
  </defs>
  <g id="phone_call" transform="translate(0 0)">
    <g id="Group_1576" data-name="Group 1576" clip-path="url(#clip-path)">
      <path id="Path_2106" data-name="Path 2106" d="M24.726,1.91A1.908,1.908,0,0,1,26.633,0h0a19.1,19.1,0,0,1,19.078,19.08,1.908,1.908,0,1,1-3.816,0A15.28,15.28,0,0,0,26.634,3.818,1.908,1.908,0,0,1,24.726,1.91Z" fill="#6e8fe7"/>
      <path id="Path_2107" data-name="Path 2107" d="M26.634,11.449a7.632,7.632,0,0,1,7.631,7.631,1.908,1.908,0,1,0,3.816,0A11.458,11.458,0,0,0,26.634,7.634a1.908,1.908,0,0,0,0,3.816h0Z" fill="#6e8fe7"/>
      <path id="Path_2108" data-name="Path 2108" d="M43.978,31.942c-.06-.06-4.65-3.6-4.65-3.6a5.93,5.93,0,0,0-8.17.01l-2.79,2.23a24.392,24.392,0,0,1-13.22-13.25l2.21-2.78a5.911,5.911,0,0,0,.01-8.17s-3.53-4.59-3.59-4.65a5.889,5.889,0,0,0-8.26-.08l-2.19,1.91c-14.73,15.68,23.29,53.69,38.92,38.73l1.73-2a5.9,5.9,0,0,0,0-8.35m-2.78,5.74-1.74,2c-11.34,10.72-44.3-20.4-33.53-33.34l2.2-1.91a2.1,2.1,0,0,1,2.88-.07s3.51,4.57,3.57,4.62a2.107,2.107,0,0,1,0,2.96c-.05.05-3.12,3.9-3.12,3.9a1.91,1.91,0,0,0-.27,1.91,28.617,28.617,0,0,0,16.82,16.8,1.913,1.913,0,0,0,1.87-.29s3.85-3.07,3.9-3.12a2.107,2.107,0,0,1,2.96,0c.06.06,4.62,3.57,4.62,3.57a2.131,2.131,0,0,1-.16,2.97" fill="#2e2b62"/>
    </g>
  </g>
</svg>
