<svg xmlns="http://www.w3.org/2000/svg" xmlns:xlink="http://www.w3.org/1999/xlink" width="47.518" height="47.537" viewBox="0 0 47.518 47.537">
  <defs>
    <clipPath id="clip-path">
      <rect id="Rectangle_728" data-name="Rectangle 728" width="47.518" height="47.537" transform="translate(0 0)" fill="#2e2b62"/>
    </clipPath>
  </defs>
  <g id="seminar" transform="translate(0 0)">
    <g id="Group_1578" data-name="Group 1578" clip-path="url(#clip-path)">
      <path id="Path_2109" data-name="Path 2109" d="M.007,46.324a11.328,11.328,0,0,0,.5-1.749,9.059,9.059,0,0,1,3.747-4.737c.341-.215.359-.363.166-.7a5.541,5.541,0,0,1,6.343-8.008,5.367,5.367,0,0,1,4.009,4.507,5.17,5.17,0,0,1-.726,3.687c-.167.274-.14.407.133.573a9.093,9.093,0,0,1,2.289,2.111A9.119,9.119,0,0,1,18.95,39.76c.3-.181.1-.323.01-.481a5.448,5.448,0,0,1,.1-5.763,5.55,5.55,0,0,1,10.187,2.1,5.4,5.4,0,0,1-.7,3.653c-.164.279-.141.4.133.564a8.792,8.792,0,0,1,2.367,2.174,9.865,9.865,0,0,1,2.6-2.325c.262-.158.024-.3-.041-.412a5.56,5.56,0,1,1,10.3-3.646,5.384,5.384,0,0,1-.725,3.69c-.156.259-.129.375.124.539a9.056,9.056,0,0,1,3.787,4.982,10.191,10.191,0,0,1,.417,2.692H43.8a5.521,5.521,0,0,0-.609-2.488,5.419,5.419,0,0,0-10.247,2.489H29.235c-.021-.168-.046-.335-.063-.5a5.435,5.435,0,0,0-9.813-2.69,5.971,5.971,0,0,0-1.074,3.193h-3.71a4.6,4.6,0,0,0-.442-2.195A5.437,5.437,0,0,0,3.719,47.531c-1.16,0-2.32-.006-3.479.006-.2,0-.251-.037-.238-.238.021-.323.006-.649.006-.974M11.14,36.5A1.854,1.854,0,1,0,9.275,38.34h0A1.867,1.867,0,0,0,11.14,36.5m14.475-.027a1.854,1.854,0,1,0-1.837,1.871,1.854,1.854,0,0,0,1.837-1.871m12.823-1.838A1.854,1.854,0,1,0,40.275,36.5a1.855,1.855,0,0,0-1.837-1.871" fill="#2e2b62"/>
      <path id="Path_2110" data-name="Path 2110" d="M.008,17.639c.168-.094.106-.277.141-.414A5.547,5.547,0,0,1,5.593,12.91c7.574-.013,15.149,0,22.723-.013.318,0,.375.1.37.388-.017.974-.026,1.949,0,2.922.011.364-.106.419-.436.418-4.313-.011-8.625,0-12.938-.018-.391,0-.473.1-.471.478.017,3.232,0,6.464.018,9.7,0,.346-.079.438-.427.428q-1.435-.04-2.875,0c-.347.01-.429-.079-.428-.427.015-3.232,0-6.464.019-9.7,0-.379-.077-.485-.47-.479-1.638.025-3.277.008-4.915.012a1.873,1.873,0,0,0-2.039,1.693,1.851,1.851,0,0,0,0,.357c0,2.706-.009,5.412.008,8.118,0,.349-.083.434-.428.426C2.2,27.188,1.11,27.2.013,27.2Z" fill="#6e8fe7"/>
      <path id="Path_2111" data-name="Path 2111" d="M33.034,27.2c-4.669,0-9.338-.006-14.008.01-.392,0-.483-.1-.471-.479q.045-1.414,0-2.83c-.011-.356.094-.423.432-.423,7.158.011,14.317,0,21.475.02.465,0,.57-.106.569-.57-.018-5.676-.012-11.352-.012-17.028a1.916,1.916,0,0,0-1.606-2.184,1.887,1.887,0,0,0-.581,0q-9.856,0-19.713.01c-.391,0-.483-.1-.471-.478.03-.973.02-1.949,0-2.923,0-.268.08-.327.336-.327C25.741.008,32.5-.014,39.253.017a5.525,5.525,0,0,1,5.473,5.578c0,.028,0,.055,0,.083q.014,8.653-.009,17.307c0,.436.124.535.53.513.632-.034,1.268.011,1.9-.017.32-.014.375.1.371.388-.017.974-.027,1.949,0,2.923.012.366-.108.419-.437.418C43.2,27.2,39.319,27.2,35.438,27.2Z" fill="#2e2b62"/>
      <path id="Path_2112" data-name="Path 2112" d="M9.391,11.145a5.568,5.568,0,1,1,5.555-5.591,5.568,5.568,0,0,1-5.555,5.591M9.363,7.431A1.854,1.854,0,1,0,7.527,5.559v0A1.867,1.867,0,0,0,9.364,7.432" fill="#6e8fe7"/>
    </g>
  </g>
</svg>
