<svg xmlns="http://www.w3.org/2000/svg" width="40.075" height="36.782" viewBox="0 0 40.075 36.782">
  <path id="tachometer" d="M39.928,18.448A20.039,20.039,0,1,0,6.256,35.623a8.1,8.1,0,0,0,5.616,2.153H28.195a8.337,8.337,0,0,0,5.863-2.389A19.961,19.961,0,0,0,39.928,18.448ZM31.722,33a5.022,5.022,0,0,1-3.527,1.434H11.872a4.785,4.785,0,0,1-3.313-1.239A16.79,16.79,0,0,1,8.9,8.6,16.714,16.714,0,0,1,31.722,33ZM29.577,11.522a1.671,1.671,0,0,1,0,2.363l-6.31,6.31A3.343,3.343,0,1,1,20.9,17.832l6.31-6.31a1.671,1.671,0,0,1,2.363,0Z" transform="translate(-0.027 -0.995)" fill="#fff"/>
</svg>
