<svg id="video_icon" xmlns="http://www.w3.org/2000/svg" xmlns:xlink="http://www.w3.org/1999/xlink" width="47.54" height="47.53" viewBox="0 0 47.54 47.53">
  <defs>
    <clipPath id="clip-path">
      <rect id="Rectangle_729" data-name="Rectangle 729" width="47.54" height="47.53" fill="#2e2b62"/>
    </clipPath>
  </defs>
  <g id="Group_1580" data-name="Group 1580" clip-path="url(#clip-path)">
    <path id="Path_2113" data-name="Path 2113" d="M31.24,19.7,20.78,14.48a4.632,4.632,0,0,0-6.93,4.02V29.04a4.581,4.581,0,0,0,2.3,4,4.663,4.663,0,0,0,2.35.64h.01a4.408,4.408,0,0,0,2.18-.57l10.65-5.32a4.634,4.634,0,0,0-.1-8.09m-1.79,4.59L18.8,29.62a.722.722,0,0,1-.32.08.662.662,0,0,1-.67-.66V18.49a.643.643,0,0,1,.33-.57.586.586,0,0,1,.31-.09h.01a.915.915,0,0,1,.45.14l10.44,5.22a.656.656,0,0,1,.34.58.617.617,0,0,1-.24.52" fill="#6e8fe7"/>
    <path id="Path_2114" data-name="Path 2114" d="M37.64,0H9.9A9.916,9.916,0,0,0,0,9.9V37.63a9.91,9.91,0,0,0,9.9,9.9H37.64a9.91,9.91,0,0,0,9.9-9.9V9.9A9.916,9.916,0,0,0,37.64,0m5.94,37.63a5.941,5.941,0,0,1-5.94,5.94H9.9a5.941,5.941,0,0,1-5.94-5.94V9.9A5.947,5.947,0,0,1,9.9,3.96H37.64A5.941,5.941,0,0,1,43.58,9.9Z" fill="#2e2b62"/>
  </g>
</svg>
