<svg xmlns="http://www.w3.org/2000/svg" width="35" height="35" viewBox="0 0 35 35">
  <g id="Group_10676" data-name="Group 10676" transform="translate(15704 23980)">
    <circle id="Ellipse_67" data-name="Ellipse 67" cx="17.5" cy="17.5" r="17.5" transform="translate(-15704 -23980)" fill="#2e2b62" opacity="0.2"/>
    <g id="interrogation" transform="translate(-15699 -23974.268)">
      <path id="Path_1761" data-name="Path 1761" d="M12,0A12,12,0,1,0,24,12,12,12,0,0,0,12,0Zm0,21a9,9,0,1,1,9-9A9,9,0,0,1,12,21Z" transform="translate(0 0)" fill="#2e2b62"/>
      <circle id="Ellipse_69" data-name="Ellipse 69" cx="1.5" cy="1.5" r="1.5" transform="translate(10.505 16)" fill="#2e2b62"/>
      <path id="Path_1762" data-name="Path 1762" d="M12.757,4.987a4.25,4.25,0,0,0-5,4.181,1.5,1.5,0,0,0,3,0,1.248,1.248,0,1,1,1.847,1.1,3.323,3.323,0,0,0-2.038,3.158,1.5,1.5,0,0,0,3,0,1.274,1.274,0,0,1,.016-.218,1.852,1.852,0,0,1,.471-.313,4.248,4.248,0,0,0-1.292-7.9Z" transform="translate(0 0)" fill="#2e2b62"/>
    </g>
  </g>
</svg>
