<svg xmlns="http://www.w3.org/2000/svg" width="20" height="20.001" viewBox="0 0 20 20.001">
  <path id="check_icon_2" d="M9.217,19.865A3.289,3.289,0,0,1,7.379,18.52a3.371,3.371,0,0,1-3.98-.986A3.144,3.144,0,0,1,2.726,15.4,3.243,3.243,0,0,1,.1,12.325a3.149,3.149,0,0,1,.749-2.113A3.148,3.148,0,0,1,.587,6.228,3.3,3.3,0,0,1,2.471,4.945a3.215,3.215,0,0,1,2.2-3.373,3.383,3.383,0,0,1,2.3.039A3.354,3.354,0,0,1,10.783.135,3.289,3.289,0,0,1,12.62,1.48a3.374,3.374,0,0,1,3.981.986A3.149,3.149,0,0,1,17.274,4.6,3.244,3.244,0,0,1,19.9,7.676a3.146,3.146,0,0,1-.749,2.113,3.148,3.148,0,0,1,.265,3.983,3.3,3.3,0,0,1-1.884,1.283,3.213,3.213,0,0,1-2.2,3.372,3.391,3.391,0,0,1-2.3-.038A3.336,3.336,0,0,1,10.165,20,3.393,3.393,0,0,1,9.217,19.865ZM2.654,10A7.245,7.245,0,0,0,10,17.139,7.245,7.245,0,0,0,17.346,10,7.244,7.244,0,0,0,10,2.862,7.244,7.244,0,0,0,2.654,10Zm2.536.446L6.328,9.34,8.756,11.7l5.162-5.333,1.173,1.072-6.3,6.507Z" fill="#fff"/>
</svg>
