<svg xmlns="http://www.w3.org/2000/svg" width="17.732" height="17.732" viewBox="0 0 17.732 17.732">
  <path id="check_icon_1" d="M1295.56,1018.708a2.91,2.91,0,0,1-1.628-1.193,2.991,2.991,0,0,1-3.53-.874,2.79,2.79,0,0,1-.6-1.9,2.876,2.876,0,0,1-2.326-2.723,6.846,6.846,0,0,0,.429-5.405,2.926,2.926,0,0,1,1.67-1.137,2.849,2.849,0,0,1,1.947-2.991,7.4,7.4,0,0,0,5.422-1.273,2.905,2.905,0,0,1,1.629,1.193,2.99,2.99,0,0,1,3.529.874,2.785,2.785,0,0,1,.6,1.9,2.873,2.873,0,0,1,2.326,2.722,6.862,6.862,0,0,0-.429,5.406,2.923,2.923,0,0,1-1.67,1.137,2.849,2.849,0,0,1-1.946,2.991,3,3,0,0,1-2.04-.034,2.955,2.955,0,0,1-2.541,1.428A3.015,3.015,0,0,1,1295.56,1018.708Zm-5.819-8.746a6.516,6.516,0,1,0,6.514-6.329A6.424,6.424,0,0,0,1289.74,1009.962Zm2.249.4,1.009-.981,2.153,2.09,4.576-4.728,1.04.951-5.585,5.769Z" transform="translate(-1287.389 -1001.096)" fill="#2e2b61"/>
</svg>
