<svg width="26" height="26" viewBox="0 0 26 26" fill="none" xmlns="http://www.w3.org/2000/svg">
<path d="M22.375 10.6562H15.3438V3.625C15.3438 2.76221 14.644 2.0625 13.7812 2.0625H12.2188C11.356 2.0625 10.6562 2.76221 10.6562 3.625V10.6562H3.625C2.76221 10.6562 2.0625 11.356 2.0625 12.2188V13.7812C2.0625 14.644 2.76221 15.3438 3.625 15.3438H10.6562V22.375C10.6562 23.2378 11.356 23.9375 12.2188 23.9375H13.7812C14.644 23.9375 15.3438 23.2378 15.3438 22.375V15.3438H22.375C23.2378 15.3438 23.9375 14.644 23.9375 13.7812V12.2188C23.9375 11.356 23.2378 10.6562 22.375 10.6562Z" fill="white"/>
</svg>
