<svg id="Group_1409" data-name="Group 1409" xmlns="http://www.w3.org/2000/svg" xmlns:xlink="http://www.w3.org/1999/xlink" width="66.938" height="95.979" viewBox="0 0 66.938 95.979">
  <defs>
    <clipPath id="clip-path">
      <rect id="Rectangle_21" data-name="Rectangle 21" width="66.938" height="95.979" fill="#2e2b62"/>
    </clipPath>
  </defs>
  <path id="Path_51" data-name="Path 51" d="M8.709,61.252,58.486,91.687l5.368-80.57Z" transform="translate(3.084 4.291)" fill="#6e8fe7"/>
  <g id="Group_34" data-name="Group 34">
    <g id="Group_33" data-name="Group 33" clip-path="url(#clip-path)">
      <path id="Path_52" data-name="Path 52" d="M48.75,82.7a1.332,1.332,0,0,1-.781-.252L.574,48.259a1.408,1.408,0,0,1-.039-2.237L59.213.284A1.326,1.326,0,0,1,60.719.192a1.4,1.4,0,0,1,.654,1.393L50.089,81.512a1.377,1.377,0,0,1-.8,1.074,1.316,1.316,0,0,1-.535.114M3.645,47.082l44.08,31.8L58.219,4.544Z" transform="translate(0 0)" fill="#2e2b62"/>
      <path id="Path_53" data-name="Path 53" d="M41.016,82.7a1.352,1.352,0,0,1-1.181-.708L22.005,49.422a1.417,1.417,0,0,1,.034-1.414c2.891-4.736,28.28-46.3,29.2-47.486a1.325,1.325,0,0,1,1.6-.4,1.389,1.389,0,0,1,.8,1.468L42.358,81.513a1.373,1.373,0,0,1-1.093,1.166,1.39,1.39,0,0,1-.249.024M24.761,48.782,40.248,77.075,50.07,7.5c-5.556,8.981-16.931,27.565-25.309,41.282" transform="translate(7.732 0)" fill="#2e2b62"/>
      <path id="Path_54" data-name="Path 54" d="M30.919,50.13h-.072L1.282,48.511A1.361,1.361,0,0,1,.06,47.533a1.406,1.406,0,0,1,.474-1.509L59.212.285a1.333,1.333,0,0,1,1.735.079,1.41,1.41,0,0,1,.232,1.762L32.065,49.481a1.347,1.347,0,0,1-1.146.649M5.106,45.943,30.2,47.315,54.9,7.128Z" transform="translate(0 0.001)" fill="#2e2b62"/>
    </g>
  </g>
</svg>
