<svg xmlns="http://www.w3.org/2000/svg" width="56" height="56" viewBox="0 0 56 56">
  <g id="_3" data-name="3" transform="translate(-173.36 -175.64)">
    <path id="Path_468" data-name="Path 468" d="M332.668,303.269l2.237,1.917,1.8,1.543a3.092,3.092,0,0,1-.34,4.948l-6.978,4.486a.621.621,0,0,0,.671,1.044l6.978-4.486a4.331,4.331,0,0,0,.477-6.935l-4.037-3.46a3.092,3.092,0,0,1,.045-4.733l4.572-3.822v3.939a.621.621,0,1,0,1.242,0c0-5.583.01-5.3-.021-5.419a.609.609,0,0,0-.107-.221c-.006-.008-.01-.017-.017-.024s-.013-.012-.019-.018a.616.616,0,0,0-.431-.2c-.1-.005-2.807,0-5.293,0a.621.621,0,1,0,0,1.242H337l-4.276,3.574a4.334,4.334,0,0,0-.06,6.63Z" transform="translate(-134.157 -99.597)" fill="#6e8fe7"/>
    <path id="Path_469" data-name="Path 469" d="M308.328,383.943l-2.683,4.647a.621.621,0,0,0,.538.931h5.368a.622.622,0,0,0,.51-.975l-2.658-4.6a.621.621,0,0,0-1.075,0Zm2.145,4.337h-3.216l1.608-2.785Z" transform="translate(-113.9 -178.84)" fill="#6e8fe7"/>
    <path id="Path_470" data-name="Path 470" d="M197.992,194.793a.931.931,0,1,1-.931-.931.931.931,0,0,1,.931.931" transform="translate(-19.666 -15.738)" fill="#6e8fe7"/>
    <path id="Path_471" data-name="Path 471" d="M471.219,181.123a.931.931,0,1,1-.931-.931.931.931,0,0,1,.931.931" transform="translate(-255.077 -3.931)" fill="#6e8fe7"/>
    <path id="Path_472" data-name="Path 472" d="M553.182,290.409a.931.931,0,1,1-.931-.931.931.931,0,0,1,.931.931" transform="translate(-325.684 -97.916)" fill="#6e8fe7"/>
    <path id="Path_473" data-name="Path 473" d="M184.332,304.079a.931.931,0,1,1-.931-.931.931.931,0,0,1,.931.931" transform="translate(-7.868 -109.674)" fill="#6e8fe7"/>
    <path id="Path_474" data-name="Path 474" d="M539.522,477.113a.931.931,0,1,1-.931-.931.931.931,0,0,1,.931.931" transform="translate(-313.886 -258.506)" fill="#6e8fe7"/>
    <path id="Path_475" data-name="Path 475" d="M197.992,536.309a.931.931,0,1,1-.931-.931.93.93,0,0,1,.931.931" transform="translate(-19.666 -309.326)" fill="#6e8fe7"/>
    <path id="Path_476" data-name="Path 476" d="M264.251,190.631h-5.33a3.771,3.771,0,0,0-2.707-1.146h-3.795a3.8,3.8,0,1,0-7.59,0h-3.795a3.773,3.773,0,0,0-2.707,1.146h-6.075a4.261,4.261,0,0,0-4.241,4.27v41.128a4.261,4.261,0,0,0,4.241,4.27h32a4.261,4.261,0,0,0,4.241-4.27V194.9a4.26,4.26,0,0,0-4.241-4.27Zm-23.217.127h4.428a.635.635,0,0,0,.633-.637v-.637a2.53,2.53,0,1,1,5.06,0v.637a.635.635,0,0,0,.633.637h4.428a2.547,2.547,0,0,1,0,5.094H241.034a2.547,2.547,0,0,1,0-5.094Zm26.194,45.27a2.99,2.99,0,0,1-2.976,3h-32a2.99,2.99,0,0,1-2.976-3V194.9a2.99,2.99,0,0,1,2.976-3H237.5a3.821,3.821,0,0,0,3.53,5.221h15.181a3.821,3.821,0,0,0,3.53-5.221h4.507a2.99,2.99,0,0,1,2.976,3Z" transform="translate(-47.201 -8.658)" fill="#6e8fe7"/>
    <path id="Path_477" data-name="Path 477" d="M294.35,303.14a.629.629,0,0,0-.637.621V334.8h-28V309.967a.637.637,0,0,0-1.273,0v25.449a.629.629,0,0,0,.637.621h29.278a.629.629,0,0,0,.637-.621V303.761a.629.629,0,0,0-.637-.621Z" transform="translate(-78.662 -108.743)" fill="#6e8fe7"/>
    <path id="Path_478" data-name="Path 478" d="M527.724,175.64a3.724,3.724,0,1,0,3.724,3.724A3.728,3.728,0,0,0,527.724,175.64Zm0,6.207a2.483,2.483,0,1,1,2.483-2.483A2.486,2.486,0,0,1,527.724,181.847Z" transform="translate(-302.088)" fill="#6e8fe7"/>
    <path id="Path_479" data-name="Path 479" d="M176.464,457.97a3.1,3.1,0,1,0,3.1,3.1A3.107,3.107,0,0,0,176.464,457.97Zm0,4.965a1.862,1.862,0,1,1,1.862-1.862A1.864,1.864,0,0,1,176.464,462.935Z" transform="translate(0 -242.751)" fill="#6e8fe7"/>
    <path id="Path_480" data-name="Path 480" d="M413.548,453.826a2.483,2.483,0,1,0-2.483-2.483A2.486,2.486,0,0,0,413.548,453.826Zm0-3.724a1.241,1.241,0,1,1-1.241,1.241A1.242,1.242,0,0,1,413.548,450.1Z" transform="translate(-204.816 -234.945)" fill="#6e8fe7"/>
    <path id="Path_481" data-name="Path 481" d="M295.148,308.106a2.483,2.483,0,1,0-2.483-2.483A2.486,2.486,0,0,0,295.148,308.106Zm0-3.724a1.241,1.241,0,1,1-1.241,1.241A1.242,1.242,0,0,1,295.148,304.382Z" transform="translate(-102.798 -109.639)" fill="#6e8fe7"/>
    <path id="Path_482" data-name="Path 482" d="M361.205,485.469a.621.621,0,0,0-.878,0l-1.423,1.423-1.423-1.423a.621.621,0,0,0-.878.878l1.423,1.423-1.423,1.423a.62.62,0,1,0,.878.878l1.423-1.423,1.423,1.423a.621.621,0,0,0,.877-.878l-1.423-1.423,1.423-1.423A.62.62,0,0,0,361.205,485.469Z" transform="translate(-157.733 -266.062)" fill="#6e8fe7"/>
    <path id="Path_483" data-name="Path 483" d="M415.326,395.462h4.966a.621.621,0,1,0,0-1.242h-4.966a.621.621,0,0,0,0,1.242Z" transform="translate(-207.94 -188.018)" fill="#6e8fe7"/>
    <path id="Path_484" data-name="Path 484" d="M415.326,381.8h4.966a.621.621,0,0,0,0-1.242h-4.966a.621.621,0,0,0,0,1.242Z" transform="translate(-207.94 -176.268)" fill="#6e8fe7"/>
    <path id="Path_485" data-name="Path 485" d="M415.326,368.132h4.966a.621.621,0,1,0,0-1.242h-4.966a.621.621,0,1,0,0,1.242Z" transform="translate(-207.94 -164.509)" fill="#6e8fe7"/>
    <path id="Path_486" data-name="Path 486" d="M415.326,354.472h4.966a.621.621,0,0,0,0-1.242h-4.966a.621.621,0,0,0,0,1.242Z" transform="translate(-207.94 -152.759)" fill="#6e8fe7"/>
    <path id="Path_487" data-name="Path 487" d="M415.326,340.812h4.966a.621.621,0,0,0,0-1.242h-4.966a.621.621,0,0,0,0,1.242Z" transform="translate(-207.94 -141.009)" fill="#6e8fe7"/>
  </g>
</svg>
