<svg xmlns="http://www.w3.org/2000/svg" width="56" height="56" viewBox="0 0 56 56">
  <g id="_4" data-name="4" transform="translate(-154.012 -154.014)">
    <path id="Path_488" data-name="Path 488" d="M368.6,553.59h1.867v1.867H368.6Z" transform="translate(-187.522 -349.177)" fill="#6e8fe7"/>
    <path id="Path_489" data-name="Path 489" d="M157.747,176.413h8.12l5.365,3.576h0a.933.933,0,0,0,1.449-.777v-2.8h3.733a3.734,3.734,0,0,0,3.734-3.733V157.747a3.734,3.734,0,0,0-3.734-3.733H157.748a3.733,3.733,0,0,0-3.733,3.733V172.68a3.733,3.733,0,0,0,3.733,3.733Zm-1.867-18.666a1.867,1.867,0,0,1,1.867-1.867h18.666a1.867,1.867,0,0,1,1.867,1.867V172.68a1.867,1.867,0,0,1-1.867,1.867h-4.666a.934.934,0,0,0-.934.933v1.99l-4.149-2.767a.935.935,0,0,0-.518-.157h-8.4a1.867,1.867,0,0,1-1.867-1.867Z" transform="translate(-0.002)" fill="#6e8fe7"/>
    <path id="Path_490" data-name="Path 490" d="M199.344,198.538H211.1a2.24,2.24,0,0,0,2.24-2.24v-4.854a2.24,2.24,0,0,0-2.24-2.24H209.61v-1.867a3.733,3.733,0,0,0-3.733-3.733,1.866,1.866,0,0,0-1.866,1.867v2.414l-1.32,1.319h-3.347a.933.933,0,0,0-.933.933V197.6a.933.933,0,0,0,.933.933Zm6.26-9.607a.934.934,0,0,0,.273-.66v-2.8a1.866,1.866,0,0,1,1.867,1.866V189.2h-.933v1.867H211.1a.373.373,0,0,1,.373.373V196.3a.373.373,0,0,1-.373.373h-7.093v-6.147Zm-5.327,2.14h1.867v5.6h-1.867Z" transform="translate(-38.799 -25.858)" fill="#6e8fe7"/>
    <path id="Path_491" data-name="Path 491" d="M206.278,187.346h-9.427a4.675,4.675,0,0,0-4.573-3.733H182.011v1.867h10.267a2.8,2.8,0,0,1,2.628,1.866h-5.428a3.722,3.722,0,0,0-3.214,1.867h-4.253v1.867h3.733v13.066a3.733,3.733,0,0,0,3.733,3.733v2.8a.933.933,0,0,0,1.452.776l4.149-2.766v7.2l-1.674-1.674h0a4.233,4.233,0,0,0-5.986,5.986l4.59,4.59a9.1,9.1,0,0,0-.9,1.75h-8.166v1.867h7.665a9.113,9.113,0,0,0,.9,5.6H171.746a2.8,2.8,0,0,1-2.8-2.8h7.466a3.734,3.734,0,0,0,3.734-3.733v-7.466a3.735,3.735,0,0,0-3.734-3.734h-3.733v-2.8a.934.934,0,0,0-1.452-.776l-2.282,1.523v-8.213h-1.867v9.457l-1.213.81h-8.12a3.734,3.734,0,0,0-3.733,3.734v7.467h0a3.733,3.733,0,0,0,3.733,3.733h9.333a4.672,4.672,0,0,0,4.667,4.667h20.533a4.555,4.555,0,0,0,.685-.058.919.919,0,0,0,.248.058h11.2a.933.933,0,0,0,.933-.933v-17.7a10.216,10.216,0,0,0-2.5-6.711l-2.051-2.66h5.484a3.733,3.733,0,0,0,3.733-3.733V191.079a3.734,3.734,0,0,0-3.733-3.734Zm-48.534,42a1.867,1.867,0,0,1-1.867-1.867v-7.466a1.867,1.867,0,0,1,1.867-1.867h8.4a.939.939,0,0,0,.518-.157l4.149-2.767v1.99a.934.934,0,0,0,.934.933h4.666a1.867,1.867,0,0,1,1.867,1.867v7.467h0a1.867,1.867,0,0,1-1.867,1.867ZM201.4,211.723a8.4,8.4,0,0,1,2.075,5.527v16.763h-9.794a7.25,7.25,0,0,1-.118-8.187l.42-.625h0a.934.934,0,0,0-.115-1.181l-5.133-5.133a2.367,2.367,0,0,1,3.347-3.347l7,7,1.32-1.32-3.46-3.459V207.88h1.493Zm6.741-7.577a1.866,1.866,0,0,1-1.866,1.867H196.011a.935.935,0,0,0-.518.157l-4.149,2.767v-1.99a.934.934,0,0,0-.934-.933h-.933a1.867,1.867,0,0,1-1.867-1.867V191.08a1.867,1.867,0,0,1,1.867-1.867h16.8a1.866,1.866,0,0,1,1.866,1.867Z" transform="translate(0 -25.865)" fill="#6e8fe7"/>
    <path id="Path_492" data-name="Path 492" d="M454.151,250.286a3.826,3.826,0,0,0-3.167.824l-.979.8-.978-.8a3.827,3.827,0,0,0-3.168-.824,4.034,4.034,0,0,0-2.761,2.068,4.526,4.526,0,0,0,1.1,5.7l5.235,4.1a.934.934,0,0,0,1.15,0l5.235-4.1a4.529,4.529,0,0,0,1.1-5.7,4.037,4.037,0,0,0-2.761-2.067Zm.513,6.3-4.659,3.648-4.659-3.648a2.677,2.677,0,0,1-.613-3.332,2.183,2.183,0,0,1,1.48-1.132,1.946,1.946,0,0,1,1.629.432l1.571,1.293h0a.933.933,0,0,0,1.185,0l1.572-1.292a1.949,1.949,0,0,1,1.628-.434,2.184,2.184,0,0,1,1.48,1.131,2.678,2.678,0,0,1-.613,3.335Z" transform="translate(-252.127 -84.071)" fill="#6e8fe7"/>
    <path id="Path_493" data-name="Path 493" d="M183.61,479.6h13.067v1.867H183.61Z" transform="translate(-25.865 -284.519)" fill="#6e8fe7"/>
    <path id="Path_494" data-name="Path 494" d="M302,479.6h3.733v1.867H302Z" transform="translate(-129.322 -284.519)" fill="#6e8fe7"/>
    <path id="Path_495" data-name="Path 495" d="M183.61,509.2h5.6v1.867h-5.6Z" transform="translate(-25.865 -310.386)" fill="#6e8fe7"/>
    <path id="Path_496" data-name="Path 496" d="M242.81,509.2h11.2v1.867h-11.2Z" transform="translate(-77.598 -310.386)" fill="#6e8fe7"/>
  </g>
</svg>
