<svg xmlns="http://www.w3.org/2000/svg" width="48" height="56" viewBox="0 0 48 56">
  <path id="_5" data-name="5" d="M248.416,178.622a1.473,1.473,0,0,0-.506-1.085,1.526,1.526,0,0,0-1.184-.332c-.121,0-12.358,1.688-20.971-6.9a1.556,1.556,0,0,0-2.146,0c-8.613,8.592-20.849,6.924-20.971,6.9a1.566,1.566,0,0,0-1.184.321,1.517,1.517,0,0,0-.557,1.1c-.547,10.863-.658,26.127,4.717,33.473,5.536,7.536,16.508,13.064,18.318,13.667a2.592,2.592,0,0,0,1.5,0c1.812-.563,12.783-6.13,18.318-13.667,5.324-7.326,5.172-22.61,4.666-33.473Zm-7.176,31.7c-4.635,6.321-14.341,11.667-16.609,12.511-2.267-.8-11.973-6.18-16.609-12.511s-4.645-19.727-4.22-29.976c3.775.2,13.157-.081,20.83-6.894,7.641,6.814,17.053,7.095,20.83,6.894.425,10.25.355,23.747-4.22,29.976Zm-7.783-19.174a1.49,1.49,0,0,1,.1,2.12l-10.3,11.235a1.564,1.564,0,0,1-1.1.492,1.524,1.524,0,0,1-1.083-.462l-5.313-5.386a1.5,1.5,0,0,1,.026-2.135,1.528,1.528,0,0,1,2.151.025l4.18,4.251,9.22-10.049a1.526,1.526,0,0,1,2.125-.091Z" transform="translate(-200.648 -169.872)" fill="#6e8fe7"/>
</svg>
