<svg xmlns="http://www.w3.org/2000/svg" width="56" height="56" viewBox="0 0 56 56">
  <g id="_6" data-name="6" transform="translate(-146.385 -153.565)">
    <path id="Path_497" data-name="Path 497" d="M243.822,222.979c-.992,7.036,4.24,8.029,4.871,11.186a.9.9,0,0,0,0,1.8H257.8a.9.9,0,0,0,0-1.8c.632-3.067,4.961-3.7,4.961-9.832a9.519,9.519,0,0,0-18.943-1.353Zm8.569-6.315a7.762,7.762,0,0,1,8.66,7.668c0,5.773-4.33,5.322-5.052,9.832h-5.413c-.632-4.511-5.864-4.6-4.961-10.915a7.577,7.577,0,0,1,6.766-6.585Z" transform="translate(-85.627 -53.538)" fill="#6e8fe7"/>
    <path id="Path_498" data-name="Path 498" d="M286.274,397.53h-9.111a.9.9,0,0,0,0,1.8h9.111a.852.852,0,0,0,.9-.9A.9.9,0,0,0,286.274,397.53Z" transform="translate(-114.153 -213.253)" fill="#6e8fe7"/>
    <path id="Path_499" data-name="Path 499" d="M198.973,404.694h-4.55a.789.789,0,0,0-.7.361l-3.15,3.969-3.15-3.969a1.069,1.069,0,0,0-.7-.361h-4.55a3.471,3.471,0,0,0-3.412,3.518v1.624l-2.187-.992a.966.966,0,0,0-1.225.541l-3.587,13.442-.525-7.938,1.05-2.616a.792.792,0,0,0,0-.632l-1.138-3.428a.845.845,0,0,0-.787-.632h-5.6a.845.845,0,0,0-.787.632l-1.138,3.428a.791.791,0,0,0,0,.632l1.05,2.616-.525,7.938-3.587-13.351a.842.842,0,0,0-1.225-.541l-7.963,3.608a7.121,7.121,0,0,0-4.2,6.585v9.021a.84.84,0,0,0,.875.9h40.512a.84.84,0,0,0,.875-.9v-6.314H201.51a.84.84,0,0,0,.875-.9v-12.72a3.47,3.47,0,0,0-3.412-3.518Zm-33.6,4.6h4.288l.787,2.526-.787,1.984h-4.375l-.787-1.984Zm-17.238,17.951v-8.118a5.433,5.433,0,0,1,3.15-4.961l7.087-3.247,4.375,16.237H148.134Zm16.625,0,.787-11.637h3.937l.788,11.637Zm22.138,0H172.372l4.375-16.238,7.088,3.247a5.433,5.433,0,0,1,3.15,4.961v8.029Zm13.738-7.216H198.01v-7.577a.875.875,0,1,0-1.75,0v7.577h-7.612c-.088-.18.613-5.322-4.113-7.487l-4.025-1.895v-2.436a1.687,1.687,0,0,1,1.662-1.714h4.2l3.587,4.511a.894.894,0,0,0,1.4,0l3.587-4.511h4.2a1.688,1.688,0,0,1,1.662,1.714v11.817Z" transform="translate(0 -219.484)" fill="#6e8fe7"/>
    <path id="Path_500" data-name="Path 500" d="M471.091,319.375a5.413,5.413,0,1,0-5.413-5.413A5.316,5.316,0,0,0,471.091,319.375Zm0-9.111a3.608,3.608,0,1,1-3.608,3.608A3.508,3.508,0,0,1,471.091,310.264Z" transform="translate(-280.883 -135.469)" fill="#6e8fe7"/>
    <path id="Path_501" data-name="Path 501" d="M301.676,254.414l1.984.632-1.353,3.247a.888.888,0,1,0,1.624.722l1.714-4.059a.841.841,0,0,0-.541-1.173l-1.8-.722.9-1.534a.929.929,0,0,0-1.624-.9l-1.353,2.526a.843.843,0,0,0,.451,1.264Z" transform="translate(-135.899 -84.412)" fill="#6e8fe7"/>
    <path id="Path_502" data-name="Path 502" d="M313.046,158.075a.852.852,0,0,0,.9-.9v-2.706a.9.9,0,0,0-1.8,0v2.706a.9.9,0,0,0,.9.9Z" transform="translate(-145.566)" fill="#6e8fe7"/>
    <path id="Path_503" data-name="Path 503" d="M352.742,167.275a.9.9,0,0,0,1.173-.451l.992-2.526a.888.888,0,1,0-1.624-.722l-.992,2.526C352.02,166.553,352.291,167,352.742,167.275Z" transform="translate(-180.742 -8.298)" fill="#6e8fe7"/>
    <path id="Path_504" data-name="Path 504" d="M387.583,192.868l1.895-1.895a.893.893,0,1,0-1.263-1.263L386.32,191.6a.893.893,0,0,0,1.263,1.263Z" transform="translate(-210.501 -31.364)" fill="#6e8fe7"/>
    <path id="Path_505" data-name="Path 505" d="M227.482,195.018a.893.893,0,0,0,1.263-1.263l-1.895-1.895a.893.893,0,0,0-1.263,1.263Z" transform="translate(-69.327 -33.244)" fill="#6e8fe7"/>
    <path id="Path_506" data-name="Path 506" d="M266.456,167.278a.888.888,0,0,0,1.623-.722l-.992-2.526a.888.888,0,1,0-1.623.722Z" transform="translate(-104.486 -8.661)" fill="#6e8fe7"/>
  </g>
</svg>
