<svg id="bag" xmlns="http://www.w3.org/2000/svg" xmlns:xlink="http://www.w3.org/1999/xlink" width="61.039" height="61.039" viewBox="0 0 61.039 61.039">
  <defs>
    <clipPath id="clip-path">
      <rect id="Rectangle_86" data-name="Rectangle 86" width="61.039" height="61.039" transform="translate(0 0)" fill="#2e2b62"/>
    </clipPath>
  </defs>
  <g id="Group_229" data-name="Group 229" clip-path="url(#clip-path)">
    <path id="Path_1217" data-name="Path 1217" d="M48.342,10.174H12.694A12.731,12.731,0,0,0,0,22.889V48.322A12.732,12.732,0,0,0,12.716,61.039H48.322A12.732,12.732,0,0,0,61.039,48.322V22.889a12.731,12.731,0,0,0-12.7-12.715m7.61,38.148a7.63,7.63,0,0,1-7.63,7.63H12.716a7.63,7.63,0,0,1-7.63-7.63V35.606h22.89v2.543a2.543,2.543,0,0,0,5.087,0V35.606H55.952Zm0-17.8H5.087V22.89a7.63,7.63,0,0,1,7.63-7.63h35.6a7.63,7.63,0,0,1,7.63,7.63Z" fill="#2e2b62"/>
    <path id="Path_1218" data-name="Path 1218" d="M27.976,5.087h5.087a7.629,7.629,0,0,1,7.162,5.087h5.3A12.739,12.739,0,0,0,33.063,0H27.976A12.739,12.739,0,0,0,15.514,10.173h5.3a7.629,7.629,0,0,1,7.162-5.087" fill="#6e8fe7"/>
  </g>
</svg>
