<svg xmlns="http://www.w3.org/2000/svg" width="68" height="52" viewBox="0 0 68 52">
  <g id="book" transform="translate(-171.366 -244.563)">
    <path id="Path_459" data-name="Path 459" d="M241.275,292.906l.143.128.1.163.051.185,0,.192-.057.183-.108.159-.146.123-.177.076-.19.024-.189-.031-.174-.082L239.4,293.3l-1.155-.674L237.06,292l-1.207-.577-1.23-.529-1.25-.477-1.269-.426-1.285-.374-1.3-.321-1.311-.267-1.322-.212-1.329-.159-1.335-.1-1.337-.05-.19-.031-.172-.083-.143-.128-.1-.163-.05-.184,0-.192.058-.183.107-.159.145-.123.177-.077.19-.025,1.393.052,1.388.109,1.384.166,1.377.222,1.365.277,1.353.334,1.339.389,1.321.443,1.3.5,1.281.55,1.257.6,1.231.652,1.2.7,1.174.751" transform="translate(-42.219 -35.357)" fill="#6e8fe7" fill-rule="evenodd"/>
    <path id="Path_460" data-name="Path 460" d="M241.275,327.64l.143.128.1.163.051.185,0,.191-.057.183-.108.159-.146.123-.177.076-.19.025-.189-.032-.174-.082-1.127-.722-1.155-.675-1.183-.628-1.207-.577-1.23-.529-1.25-.477-1.269-.426-1.285-.373-1.3-.321-1.311-.267-1.322-.213-1.329-.159-1.335-.1-1.337-.049-.19-.031-.172-.083-.143-.127-.1-.163-.05-.185,0-.192.058-.183.107-.159.145-.124.177-.077.19-.024,1.393.052,1.388.109,1.384.166,1.377.222,1.365.279,1.353.333,1.339.39,1.321.443,1.3.5,1.281.55,1.257.6,1.231.653,1.2.7,1.174.751" transform="translate(-42.219 -64.368)" fill="#6e8fe7" fill-rule="evenodd"/>
    <path id="Path_461" data-name="Path 461" d="M241.275,362.37l.143.127.1.163.051.185,0,.192-.057.183-.108.159-.146.123-.177.076-.19.024-.189-.031-.174-.084-1.127-.722-1.155-.674-1.183-.627-1.207-.578-1.23-.529-1.25-.477-1.269-.427-1.285-.373-1.3-.321-1.311-.267-1.322-.214-1.329-.159-1.335-.1-1.337-.049-.19-.031-.172-.083-.143-.128-.1-.162-.05-.185,0-.192.058-.183.107-.159.145-.123.177-.076.19-.025,1.393.052,1.388.109,1.384.165,1.377.223,1.365.277,1.353.334,1.339.389,1.321.443,1.3.5,1.281.55,1.257.6,1.231.654,1.2.7,1.174.751" transform="translate(-42.219 -93.277)" fill="#6e8fe7" fill-rule="evenodd"/>
    <path id="Path_462" data-name="Path 462" d="M241.275,397.1l.143.128.1.163.051.185,0,.192-.057.182-.108.16-.146.123-.177.076-.19.024-.189-.031-.174-.082-1.127-.722-1.155-.675-1.183-.627-1.207-.577-1.23-.529-1.25-.477-1.269-.426-1.285-.374-1.3-.321-1.311-.267-1.322-.213-1.329-.159-1.335-.1-1.337-.05-.19-.03-.172-.083-.143-.128-.1-.163-.05-.184,0-.192.058-.183.107-.161.145-.122.177-.077.19-.025,1.393.052,1.388.109,1.384.166,1.377.221,1.365.279,1.353.334,1.339.389,1.321.443,1.3.5,1.281.55,1.257.6,1.231.652,1.2.7,1.174.753" transform="translate(-42.219 -122.183)" fill="#6e8fe7" fill-rule="evenodd"/>
    <path id="Path_463" data-name="Path 463" d="M416.514,292.906l1.173-.751,1.2-.7,1.231-.652,1.258-.6,1.281-.55,1.3-.5,1.321-.443,1.339-.389,1.353-.335,1.367-.277,1.376-.222,1.384-.166,1.389-.109,1.393-.052.19.025.176.077.147.123.107.159.057.183,0,.192-.05.184-.1.163-.143.128-.172.083-.19.03-1.339.05-1.334.1-1.329.159-1.321.212-1.311.267-1.3.321-1.285.374-1.269.426-1.251.477-1.229.529-1.207.577-1.183.628-1.155.674-1.128.722-.173.082-.189.031-.192-.024-.175-.076-.147-.123-.106-.159-.057-.182,0-.192.05-.184.1-.163.143-.128" transform="translate(-204.839 -35.357)" fill="#6e8fe7" fill-rule="evenodd"/>
    <path id="Path_464" data-name="Path 464" d="M416.514,327.64l1.173-.751,1.2-.7,1.231-.653,1.258-.6,1.281-.55,1.3-.5,1.321-.443,1.339-.39,1.353-.333,1.367-.279,1.376-.222,1.384-.166,1.389-.109,1.393-.052.19.024.176.077.147.124.107.159.057.182,0,.192-.05.185-.1.163-.143.127-.172.083-.19.031-1.339.049-1.334.1-1.329.159-1.321.213-1.311.267-1.3.321-1.285.373-1.269.426-1.251.477-1.229.529-1.207.577-1.183.628-1.155.675-1.128.722-.173.082-.189.032-.192-.025-.175-.076-.147-.123-.106-.159-.057-.183,0-.191.05-.185.1-.163.143-.128" transform="translate(-204.839 -64.368)" fill="#6e8fe7" fill-rule="evenodd"/>
    <path id="Path_465" data-name="Path 465" d="M416.514,362.369l1.173-.751,1.2-.7,1.231-.654,1.258-.6,1.281-.55,1.3-.5,1.321-.443,1.339-.389,1.353-.334,1.367-.277,1.376-.223,1.384-.165,1.389-.11,1.393-.052.19.025.176.076.147.123.107.159.057.183,0,.192-.05.185-.1.162-.143.128-.172.083-.19.031-1.339.049-1.334.1-1.329.159-1.321.214-1.311.267-1.3.321-1.285.373-1.269.427-1.251.477-1.229.529-1.207.578-1.183.627-1.155.674-1.128.722-.173.084-.189.031-.192-.024-.175-.076-.147-.123-.106-.159-.057-.183,0-.192.05-.185.1-.163.143-.127" transform="translate(-204.839 -93.277)" fill="#6e8fe7" fill-rule="evenodd"/>
    <path id="Path_466" data-name="Path 466" d="M416.514,397.1l1.173-.753,1.2-.7,1.231-.652,1.258-.6,1.281-.549,1.3-.5,1.321-.443,1.339-.389,1.353-.334,1.367-.279,1.376-.221,1.384-.166,1.389-.109,1.393-.052.19.025.176.077.147.122.107.161.057.183,0,.192-.05.184-.1.163-.143.128-.172.083-.19.03-1.339.05-1.334.1-1.329.159-1.321.213-1.311.267-1.3.321-1.285.374-1.269.426-1.251.477-1.229.529-1.207.577-1.183.627-1.155.675-1.128.722-.173.082-.189.031-.192-.024-.175-.076-.147-.123-.106-.16-.057-.182,0-.192.05-.185.1-.163.143-.128" transform="translate(-204.839 -122.183)" fill="#6e8fe7" fill-rule="evenodd"/>
    <path id="Path_467" data-name="Path 467" d="M202.22,254.556l-1.4-.907-1.433-.857-1.462-.8-1.49-.75-1.515-.7-1.539-.64-1.561-.585-1.581-.527-1.6-.47-1.614-.411-1.628-.353-1.639-.294-1.648-.234-1.655-.174-1.661-.115-1.663-.054v32.049l1.663.053,1.661.115,1.655.174,1.648.235,1.639.293,1.628.353,1.614.412,1.6.47,1.581.527,1.561.584,1.539.64,1.515.7,1.49.75,1.462.8,1.433.856,1.4.908V254.556m35.05-2.475-1.573-.076v27.521l-.025.258-.075.25-.122.229-.163.2-.2.165-.226.123-.247.075-.256.025-1.625.026-1.623.085-1.618.146-1.612.205-1.6.266-1.592.323-1.581.383-1.565.441-1.548.5-1.529.556-1.508.613-1.484.667-1.459.723-1.433.775-1.4.828-1.372.88-1.34.929-.226.131-.248.083-.259.032-.259-.02-.251-.071-.232-.121-.2-.165-.167-.2-.125-.232-.077-.251-.026-.262V261.357l-.256.195-.206.13-.226.089-.239.045h-.243l-.239-.045-.226-.089-.207-.13-.256-.195v26.762l-.026.262-.077.251-.124.232-.167.2-.2.165-.232.121-.251.071-.259.02-.259-.032-.248-.083-.226-.131-1.34-.929-1.372-.88-1.4-.828-1.433-.775-1.459-.723-1.485-.667-1.507-.613-1.529-.556-1.547-.5-1.566-.441-1.581-.383-1.592-.323-1.6-.266-1.612-.205-1.618-.146-1.623-.085-1.625-.026-.256-.025-.247-.075-.227-.123-.2-.165-.163-.2-.122-.229-.075-.25-.026-.258V252.005l-1.573.076v32.049l1.627-.078,1.628-.02,1.629.037,1.625.1,1.621.153,1.615.21,1.607.267,1.6.323,1.584.38,1.57.436,1.554.491,1.536.546,1.516.6,1.495.654,1.47.706,1.445.759L200,290.5l1.389.858,1.359.908,1.326.954,1.293,1,1.293-1,1.326-.954,1.359-.908,1.389-.858,1.418-.809,1.445-.759,1.471-.706,1.494-.654,1.516-.6,1.536-.546,1.554-.491,1.57-.436,1.584-.38,1.6-.323,1.607-.267,1.615-.21,1.622-.153,1.625-.1,1.628-.037,1.628.02,1.626.078,0-32.049m-3.67-5.4-1.664.054-1.661.115-1.655.174-1.648.233-1.639.295-1.628.353-1.614.411-1.6.47-1.581.527-1.561.584-1.539.64-1.515.7-1.49.75-1.462.8-1.433.857-1.4.907v32.049l1.4-.908,1.433-.856,1.462-.8,1.49-.75,1.515-.7,1.539-.64,1.561-.584,1.581-.527,1.6-.47,1.614-.412,1.628-.353,1.639-.293,1.648-.235,1.655-.174,1.661-.115,1.664-.053V246.686m2.1-.8v4l1.233.052,1.232.085.273.052.256.109.228.162.189.207.141.243.088.267.03.28v33.645l-.029.272-.082.26-.134.237-.179.205-.216.163-.245.116-.263.061-.27,0-1.619-.106-1.622-.047-1.623.014-1.621.074-1.617.134-1.611.193-1.6.252-1.593.312-1.581.37-1.567.428-1.55.487-1.531.543-1.51.6-1.488.655-1.463.71-1.437.763-1.407.815-1.378.868-1.345.918-1.311.966-1.275,1.015-.213.143-.237.1-.252.051h-.256l-.251-.051-.237-.1-.213-.143-1.275-1.015-1.311-.966-1.345-.918-1.377-.868-1.407-.815-1.437-.763-1.463-.71-1.488-.655-1.51-.6-1.531-.543-1.55-.487-1.566-.428-1.581-.37-1.592-.312-1.6-.252-1.612-.193-1.617-.134-1.621-.074-1.623-.014-1.622.047-1.619.106-.273,0-.263-.062-.246-.116-.217-.163-.179-.205-.134-.237-.082-.26-.027-.272V251.343l.029-.28.088-.267.141-.243.189-.207.228-.162.256-.109.274-.052,1.23-.085,1.233-.052v-4l.025-.258.075-.248.121-.229.162-.2.2-.165.226-.123.246-.075.256-.026,1.71.026,1.708.087,1.7.147,1.7.209,1.691.268,1.68.329,1.667.388,1.652.448,1.636.506,1.617.564,1.6.622,1.575.677,1.55.734,1.522.788,1.495.842,1.465.895,1.433.946.2.165.162.2.119.228.074.247.025.257v4.606l1.049.763,1.049-.763v-4.606l.025-.257.074-.247.119-.228.161-.2.2-.165,1.433-.946,1.465-.895,1.495-.842,1.523-.788,1.549-.734,1.575-.677,1.6-.622,1.617-.564,1.636-.506,1.652-.448,1.667-.388,1.68-.329,1.691-.268,1.7-.209,1.7-.147,1.708-.087,1.711-.026.256.026.245.075.226.123.2.165.162.2.121.229.075.248.021.258" fill="#6e8fe7" fill-rule="evenodd"/>
  </g>
</svg>
