<svg xmlns="http://www.w3.org/2000/svg" xmlns:xlink="http://www.w3.org/1999/xlink" width="74.378" height="74.42" viewBox="0 0 74.378 74.42">
  <defs>
    <clipPath id="clip-path">
      <rect id="Rectangle_16" data-name="Rectangle 16" width="74.378" height="74.42" transform="translate(0 0)" fill="#2e2b62"/>
    </clipPath>
  </defs>
  <g id="Development" transform="translate(0 0)">
    <g id="Group_24" data-name="Group 24" clip-path="url(#clip-path)">
      <path id="Path_43" data-name="Path 43" d="M.921,74.068A2.138,2.138,0,0,1,.17,71.5a2.289,2.289,0,0,1,2.48-1.328l.928-.007c.115,0,.232,0,.347.007-.018-1.411-.014-2.822-.009-4.232l0-.95c0-1.647.482-2.271,2.063-2.669l.88-.223C8.43,61.7,10,61.3,11.574,60.924a.382.382,0,0,0,.323-.257c.693-1.762,1.412-3.447,1.962-4.723a.265.265,0,0,0,0-.286c-.935-1.512-1.815-2.99-2.7-4.467l-.35-.589a2.245,2.245,0,0,1,.2-3.119,1.957,1.957,0,0,1,.2-.164q2.445-2.457,4.9-4.9a2.26,2.26,0,0,1,3.095-.55,2.358,2.358,0,0,1,.19.143c1.672,1,3.346,2,5.007,3.016a.316.316,0,0,0,.185.075.231.231,0,0,0,.106-.026c1.609-.694,3.193-1.339,4.779-1.977.138-.046.2-.118.215-.207.333-1.443.685-2.834,1.038-4.225l.375-1.488a2.31,2.31,0,0,1,2.614-2.068h6.912a2.326,2.326,0,0,1,2.653,2.111l.444,1.765c.321,1.275.643,2.55.944,3.829.024.156.085.231.171.26,1.638.658,3.243,1.317,4.836,2l.1.032a.172.172,0,0,0,.106-.035c1.72-1.048,3.388-2.052,5.063-3.047a2.28,2.28,0,0,1,3.161.193,2.307,2.307,0,0,1,.182.226q2.426,2.421,4.846,4.847a2.282,2.282,0,0,1,.575,3.116,2.243,2.243,0,0,1-.172.229l-.475.793c-.842,1.407-1.684,2.815-2.546,4.209a.208.208,0,0,0-.037.226c.668,1.566,1.352,3.182,1.986,4.785a.324.324,0,0,0,.252.251c1.7.407,3.351.821,5,1.236l.777.2a2.209,2.209,0,0,1,1.948,2.475c.011,1.785.021,3.571-.007,5.357.082,0,.149,0,.216,0l.62.011c.091,0,.181,0,.27-.01a2.172,2.172,0,0,1,.422-.036A2.625,2.625,0,0,1,74.3,71.534l.08.153v1.445l-.185.2a4.575,4.575,0,0,1-1.345,1.008l-.147.073-71.653,0ZM8.144,66.14c.038,1.477.039,2.777.011,4.047q4.061-.015,8.1-.012H21.24c-.047-.433-.093-.879-.1-1.333a15.852,15.852,0,0,1,5.7-12.717,14.176,14.176,0,0,1,4.741-2.753,2.092,2.092,0,0,1,1.736,3.784,10.638,10.638,0,0,1-1.182.559A11.925,11.925,0,0,0,25.53,70.172c3.922,0,7.781-.007,11.637-.007q5.826,0,11.65.01A11.653,11.653,0,0,0,44.305,59a15.071,15.071,0,0,0-3.052-1.733,2.1,2.1,0,0,1-.1-3.748,2.4,2.4,0,0,1,1.044-.242,2.37,2.37,0,0,1,1.19.32A15.987,15.987,0,0,1,53.1,70.176q3.258-.012,6.508-.013,3.292,0,6.583.013c-.025-1.461-.024-2.759.008-4.038l-.043-.009c-.822-.194-1.636-.4-2.452-.6-.931-.232-1.861-.464-2.8-.68a2.74,2.74,0,0,1-2.078-1.828c-.742-1.869-1.554-3.794-2.34-5.656l-.276-.657a2.553,2.553,0,0,1,.191-2.481c.428-.695.861-1.416,1.292-2.136.527-.878,1.053-1.755,1.594-2.623-1.253-1.208-2.262-2.217-3.172-3.176l-.015-.015c-.016.009-.038.022-.061.037-.85.526-1.707,1.041-2.565,1.556-.728.436-1.456.873-2.179,1.317a2.47,2.47,0,0,1-2.413.179c-2.155-.91-4.338-1.815-6.528-2.7a2.529,2.529,0,0,1-1.6-1.9c-.206-.866-.431-1.761-.655-2.656-.229-.911-.457-1.822-.674-2.736-.825.011-1.569.022-2.312.022-.682,0-1.365-.009-2.047-.034l-.065,0-.064-.014,0,.064-.06.1c-.2.845-.408,1.688-.619,2.53-.227.9-.453,1.807-.661,2.715a2.565,2.565,0,0,1-1.665,1.943c-2.027.818-4.225,1.713-6.388,2.643a2.615,2.615,0,0,1-2.617-.214c-.749-.466-1.535-.937-2.321-1.408s-1.559-.932-2.33-1.412l-.032-.02-.041.04c-1.024,1.072-2.083,2.131-3.145,3.147l0,.006c.483.773.951,1.556,1.419,2.339s.936,1.567,1.421,2.341a2.69,2.69,0,0,1,.182,2.691c-.768,1.8-1.686,3.974-2.555,6.182A2.818,2.818,0,0,1,13.3,64.881c-.911.205-1.858.444-2.806.683-.773.195-1.547.39-2.323.571Zm-.1.012v.008l.008-.008Z" fill="#2e2b62"/>
      <path id="Path_44" data-name="Path 44" d="M50.432,36.053a2.089,2.089,0,0,1-1.8-3.146,5.07,5.07,0,0,1,.767-.913q6.74-6.755,13.532-13.517c-2.33-2.294-4.679-4.644-6.985-6.984Q47.475,20,38.966,28.463c.505.457.978.948,1.436,1.423l.123.128a2.148,2.148,0,1,1-3.016,3q-5.055-5.038-10.093-10.091l-2.365-2.363c-2.221-2.217-4.441-4.433-6.646-6.671l-.024-.025-.016.015Q11.237,21.063,4.064,28.2a5.3,5.3,0,0,1-.85.727A2.115,2.115,0,0,1,2.1,29.25,2.072,2.072,0,0,1,.62,28.632a2.064,2.064,0,0,1-.3-2.566,4.546,4.546,0,0,1,.659-.785Q8.739,17.517,16.532,9.724a2.733,2.733,0,0,1,1.851-.968,2.738,2.738,0,0,1,1.853.968Q28.1,17.589,35.946,25.46l.023.023.011-.012C41.564,19.852,47.273,14.143,52.946,8.5c-.9-.873-1.782-1.762-2.666-2.65-.606-.608-1.213-1.217-1.822-1.82a2.332,2.332,0,0,1-.8-2.711,2.339,2.339,0,0,1,2.412-1.3q4.435.006,8.848.007,6.34,0,12.682-.014A1.522,1.522,0,0,1,71.89,0a2.755,2.755,0,0,1,2.387,1.383l.093.162V25.476l-.13.182a2.474,2.474,0,0,1-1.966,1.274,2.71,2.71,0,0,1-1.867-.959l-.918-.912c-1.2-1.189-2.4-2.379-3.572-3.592Q59.177,28.254,52.4,35a5.386,5.386,0,0,1-.848.726,2.121,2.121,0,0,1-1.12.327m19.686-16.59V17.057q0-6.394.014-12.789-4.5.02-9.006.016l-6.189,0Z" fill="#6e8fe7"/>
      <path id="Path_45" data-name="Path 45" d="M2.032,49.2a2.016,2.016,0,0,1-1.371-.577A1.952,1.952,0,0,1,0,47.217a2.913,2.913,0,0,1,1.041-2.048L19.832,26.375a2.713,2.713,0,0,1,1.613-.95A2.139,2.139,0,0,1,23.787,27.4a2.1,2.1,0,0,1,0,.251v.006a2.241,2.241,0,0,1-.835,1.612l-.381.4c-.379.39-.77.793-1.188,1.17q2.529,2.5,5.039,5.021L28.165,37.6c1.745,1.744.908,2.987.467,3.441a1.944,1.944,0,0,1-1.4.629h-.014a2.971,2.971,0,0,1-2.041-1.032L23.5,38.957q-2.567-2.561-5.116-5.136-7.152,7.2-14.341,14.359A2.905,2.905,0,0,1,2.032,49.2" fill="#2e2b62"/>
      <path id="Path_46" data-name="Path 46" d="M46.882,39.6h-.058a2.173,2.173,0,0,1-2.033-2.165,2.137,2.137,0,0,1,2.265-2.052,2.1,2.1,0,0,1,1.953,2.23v.008a2.132,2.132,0,0,1-2.127,1.98" fill="#2e2b62"/>
      <path id="Path_47" data-name="Path 47" d="M37.235,56.589a2.123,2.123,0,1,1-.057-4.246h.049A2.114,2.114,0,0,1,39.333,54.4V54.5a2.131,2.131,0,0,1-2.1,2.093" fill="#2e2b62"/>
    </g>
  </g>
</svg>
