<svg id="growth_icon" xmlns="http://www.w3.org/2000/svg" xmlns:xlink="http://www.w3.org/1999/xlink" width="67.239" height="67.247" viewBox="0 0 67.239 67.247">
  <defs>
    <clipPath id="clip-path">
      <rect id="Rectangle_13" data-name="Rectangle 13" width="67.239" height="67.247" fill="#2e2b62"/>
    </clipPath>
  </defs>
  <g id="Group_18" data-name="Group 18" clip-path="url(#clip-path)">
    <path id="Path_22" data-name="Path 22" d="M0,170.194c.562-1.287,1.615-1.534,2.893-1.459,1.174.069,1.177.015,1.177-1.172q0-5.449,0-10.9c0-2.368,1.317-3.672,3.7-3.673,1.576,0,3.151-.007,4.727,0a3.269,3.269,0,0,1,3.384,3.4c.009,3.917.016,7.834-.012,11.751,0,.551.182.636.658.617.852-.034,1.708-.044,2.559,0,.568.031.758-.1.754-.722-.029-5.361-.017-10.722-.017-16.083a3.326,3.326,0,0,1,3.686-3.692q2.3,0,4.6,0a3.293,3.293,0,0,1,3.535,3.512q.006,8.173-.011,16.346c0,.509.118.665.636.639a26.476,26.476,0,0,1,2.69,0c.515.026.639-.125.638-.637q-.027-11.62-.011-23.239a6.9,6.9,0,0,1,.034-1.048,3.273,3.273,0,0,1,3.236-2.791c1.707-.017,3.414-.01,5.12,0A3.273,3.273,0,0,1,47.4,144.47q.009,11.784-.014,23.567c0,.617.175.756.75.725.895-.048,1.8-.041,2.69,0,.454.02.577-.143.517-.55a2.293,2.293,0,0,1,0-.328q0-18.151,0-36.3a3.32,3.32,0,0,1,3.643-3.668q2.33,0,4.661,0a3.292,3.292,0,0,1,3.512,3.535q0,18.283-.011,36.566c0,.566.1.833.724.747a8.569,8.569,0,0,1,1.246-.01,2.008,2.008,0,0,1,2.1,1.687,1.959,1.959,0,0,1-1.482,2.159c-.033.011-.052.06-.078.092H1.576A2.378,2.378,0,0,1,0,171.113Zm59.221-19.828v-3.414c0-4.836-.008-9.672.012-14.509,0-.488-.108-.632-.6-.606a22.748,22.748,0,0,1-2.624,0c-.6-.038-.739.144-.738.738q.029,17.725.014,35.451a2.374,2.374,0,0,1,0,.328c-.044.314.078.41.4.4.962-.02,1.927-.044,2.888.007.55.029.674-.127.672-.672-.022-5.908-.014-11.817-.014-17.725m-19.7,6.5c0,3.786.007,7.571-.01,11.357,0,.427.106.553.536.537.94-.034,1.883-.042,2.822,0,.5.024.606-.117.6-.606-.021-4.42-.012-8.84-.012-13.26,0-3.129-.009-6.258.01-9.387,0-.428-.106-.553-.536-.537-.94.034-1.883.042-2.822,0-.5-.024-.607.117-.6.606.023,3.764.013,7.527.013,11.291m-11.818,3.677c0-2.6-.01-5.208.01-7.811,0-.425-.1-.553-.535-.538-1.005.034-2.013.023-3.019,0-.315-.006-.4.086-.4.4q.014,7.877,0,15.754c0,.313.082.41.4.4,1.006-.02,2.014-.03,3.019,0,.429.014.541-.107.537-.536-.021-2.56-.01-5.12-.01-7.68m-19.7,2.231c0,1.838.01,3.676-.009,5.514,0,.37.1.479.468.47,1.028-.025,2.057-.021,3.085,0,.316.006.4-.087.4-.4q-.016-5.514,0-11.027c0-.314-.084-.409-.4-.4-1.006.02-2.014.03-3.019,0-.43-.014-.543.108-.537.537.025,1.772.011,3.544.011,5.317" transform="translate(0 -105.442)" fill="#2e2b62"/>
    <path id="Path_23" data-name="Path 23" d="M0,39.8a2.673,2.673,0,0,1,2.716-1.442,57.559,57.559,0,0,0,22.342-5.035,75.486,75.486,0,0,0,26.1-18.634,55.948,55.948,0,0,0,6.7-8.967c.108-.18.2-.368.371-.669-1.565.415-3.015.8-4.463,1.183-1.012.27-2.02.552-3.032.819a2.021,2.021,0,0,1-2.63-1.3,2,2,0,0,1,1.605-2.5Q55.579,1.667,61.453.081a1.963,1.963,0,0,1,2.494,1.407Q65.554,7.46,67.132,13.44a1.967,1.967,0,1,1-3.8.993c-.6-2.166-1.164-4.341-1.744-6.512-.033-.124-.079-.245-.132-.406-.069.058-.12.083-.145.125A69.337,69.337,0,0,1,44.93,25.91,77.053,77.053,0,0,1,20.342,39.3a60.772,60.772,0,0,1-17.5,3.037A2.716,2.716,0,0,1,0,40.985Z" transform="translate(0 0)" fill="#6e8fe7"/>
  </g>
</svg>
