<svg id="icon_codeGear" xmlns="http://www.w3.org/2000/svg" xmlns:xlink="http://www.w3.org/1999/xlink" width="50.419" height="52.57" viewBox="0 0 50.419 52.57">
  <defs>
    <clipPath id="clip-path">
      <rect id="Rectangle_613" data-name="Rectangle 613" width="50.419" height="52.57" fill="#fff"/>
    </clipPath>
  </defs>
  <g id="Group_1364" data-name="Group 1364" clip-path="url(#clip-path)">
    <path id="Path_1753" data-name="Path 1753" d="M20.98,52.571a11.455,11.455,0,0,1-1.631-.722A3.651,3.651,0,0,1,17.794,49.4c-.255-1.169-.508-2.338-.8-3.5a1,1,0,0,0-.44-.538c-1.19-.712-2.4-1.383-3.591-2.1a.809.809,0,0,0-.752-.116c-1.124.37-2.254.724-3.384,1.076a3.828,3.828,0,0,1-4.784-1.858q-1.72-2.949-3.431-5.9a3.8,3.8,0,0,1,.74-4.978c.88-.817,1.781-1.612,2.647-2.443a1.006,1.006,0,0,0,.266-.649q.035-2.1,0-4.2A1.009,1.009,0,0,0,4,23.539C3.126,22.7,2.21,21.891,1.32,21.061a3.781,3.781,0,0,1-.736-4.9q1.756-3.047,3.535-6.08A3.772,3.772,0,0,1,8.668,8.313q1.75.524,3.487,1.092A.893.893,0,0,0,13,9.288c1.168-.715,2.372-1.371,3.548-2.073a1.006,1.006,0,0,0,.446-.533c.314-1.242.567-2.5.874-3.743A3.722,3.722,0,0,1,21.6.008q3.61-.014,7.221,0a3.72,3.72,0,0,1,3.733,2.933c.3,1.211.563,2.43.827,3.649a.912.912,0,0,0,.532.667q1.783.967,3.513,2.032a.9.9,0,0,0,.844.121c1.158-.378,2.319-.747,3.485-1.1A3.776,3.776,0,0,1,46.3,10.086q1.783,3.031,3.535,6.08a3.791,3.791,0,0,1-.742,4.9c-.89.831-1.806,1.635-2.684,2.478a1.007,1.007,0,0,0-.258.652c-.022,1.383.007,2.767-.022,4.15a.864.864,0,0,0,.318.746q1.323,1.184,2.621,2.395a3.8,3.8,0,0,1,.734,4.98q-1.711,2.954-3.432,5.9a3.818,3.818,0,0,1-4.783,1.854c-1.146-.358-2.286-.737-3.439-1.073a.932.932,0,0,0-.643.1c-1.194.671-2.36,1.393-3.565,2.043a1,1,0,0,0-.577.751q-.374,1.754-.788,3.5a3.691,3.691,0,0,1-2.951,2.942,1.077,1.077,0,0,0-.187.082ZM47.161,34.338a3.839,3.839,0,0,0-.389-.5c-1.12-1.037-2.24-2.074-3.379-3.091a1.785,1.785,0,0,1-.65-1.688,18.757,18.757,0,0,0,0-5.521,1.854,1.854,0,0,1,.7-1.769c1.117-.989,2.2-2.019,3.313-3.012a.738.738,0,0,0,.167-1.073q-1.708-2.9-3.375-5.817a.731.731,0,0,0-1.016-.375c-1.45.476-2.916.906-4.366,1.384a1.839,1.839,0,0,1-1.873-.338,16.564,16.564,0,0,0-4.661-2.687,1.759,1.759,0,0,1-1.186-1.364c-.325-1.5-.687-3-1.01-4.5a.763.763,0,0,0-.876-.71q-3.352.035-6.705,0a.76.76,0,0,0-.87.714c-.318,1.487-.676,2.965-.993,4.452a1.837,1.837,0,0,1-1.248,1.434,16.248,16.248,0,0,0-4.571,2.638,1.878,1.878,0,0,1-1.917.365c-1.449-.48-2.915-.909-4.366-1.385a.728.728,0,0,0-1.014.374q-1.648,2.9-3.352,5.771A.784.784,0,0,0,3.7,18.8c1.13,1,2.229,2.036,3.353,3.044a1.747,1.747,0,0,1,.63,1.645,19.176,19.176,0,0,0,0,5.573,1.786,1.786,0,0,1-.645,1.69c-1.137,1.019-2.25,2.065-3.387,3.082a.711.711,0,0,0-.161,1.03q1.719,2.92,3.4,5.86a.7.7,0,0,0,.974.362c1.384-.457,2.79-.852,4.166-1.331a2.168,2.168,0,0,1,2.291.407,14.6,14.6,0,0,0,4.308,2.477A2.056,2.056,0,0,1,20.047,44.3c.288,1.423.641,2.833.938,4.255a.781.781,0,0,0,.9.741q3.327-.041,6.654,0a.782.782,0,0,0,.9-.739c.318-1.5.68-3,1.01-4.5a1.722,1.722,0,0,1,1.157-1.328,16.521,16.521,0,0,0,4.664-2.682,1.873,1.873,0,0,1,1.919-.344c1.465.486,2.948.919,4.417,1.394a.651.651,0,0,0,.9-.327c1.142-1.988,2.3-3.966,3.453-5.95a4.562,4.562,0,0,0,.2-.482" transform="translate(0 -0.001)" fill="#fff"/>
    <path id="Path_1754" data-name="Path 1754" d="M160.695,145.309a1.625,1.625,0,0,1-1.6-2.061q.967-4.221,1.952-8.438.642-2.771,1.286-5.541a1.688,1.688,0,0,1,2.023-1.425A1.667,1.667,0,0,1,165.541,130q-1.605,6.966-3.223,13.929a1.639,1.639,0,0,1-1.623,1.379" transform="translate(-137.123 -110.274)" fill="#fff"/>
    <path id="Path_1755" data-name="Path 1755" d="M83.2,150.319c1.363,1.219,2.672,2.4,3.993,3.568a1.723,1.723,0,0,1,.675,1.529,1.56,1.56,0,0,1-.99,1.336,1.539,1.539,0,0,1-1.69-.251c-.809-.69-1.595-1.407-2.388-2.115q-1.516-1.354-3.028-2.713a1.659,1.659,0,0,1-.014-2.7c1.736-1.559,3.478-3.11,5.21-4.672a1.727,1.727,0,0,1,1.594-.518,1.64,1.64,0,0,1,.755,2.839c-1.143,1.038-2.3,2.061-3.449,3.091-.2.182-.406.366-.669.6" transform="translate(-68.17 -124.03)" fill="#fff"/>
    <path id="Path_1756" data-name="Path 1756" d="M227.5,150.284c-1.37-1.226-2.682-2.408-4-3.578a1.7,1.7,0,0,1-.656-1.486,1.549,1.549,0,0,1,1.018-1.368,1.61,1.61,0,0,1,1.77.337q2.322,2.074,4.64,4.152c.268.24.545.472.8.723a1.607,1.607,0,0,1,.007,2.452q-2.718,2.479-5.482,4.908a1.626,1.626,0,0,1-2.355-.112,1.647,1.647,0,0,1,.212-2.379c1.2-1.081,2.4-2.151,3.6-3.226.138-.124.269-.255.445-.422" transform="translate(-192.118 -124.008)" fill="#fff"/>
  </g>
</svg>
