<svg id="sign-in" xmlns="http://www.w3.org/2000/svg" width="57.362" height="57.362" viewBox="0 0 57.362 57.362">
  <path id="Path_1746" data-name="Path 1746" d="M2.39,52.582H7.17a7.17,7.17,0,0,0,7.17-7.17V11.95A7.17,7.17,0,0,0,7.17,4.78H2.39A2.39,2.39,0,1,1,2.39,0H7.17a11.965,11.965,0,0,1,11.95,11.95V45.412A11.965,11.965,0,0,1,7.17,57.362H2.39a2.39,2.39,0,1,1,0-4.78Z" transform="translate(38.241)" fill="#fff"/>
  <path id="Path_1747" data-name="Path 1747" d="M7.352,19.341h0l37.708.076a4.823,4.823,0,0,0-.779-1.066L35.01,9.08A2.39,2.39,0,1,1,38.39,5.7l9.276,9.271a9.56,9.56,0,0,1,0,13.518l-9.271,9.271a2.39,2.39,0,1,1-3.38-3.38l9.271-9.271a4.8,4.8,0,0,0,.7-.913l-37.63-.076a2.39,2.39,0,0,1,0-4.78Z" transform="translate(-4.962 6.95)" fill="#fff"/>
</svg>
