<svg xmlns="http://www.w3.org/2000/svg" xmlns:xlink="http://www.w3.org/1999/xlink" width="49.419" height="51.536" viewBox="0 0 49.419 51.536">
  <defs>
    <clipPath id="clip-path">
      <rect id="Rectangle_614" data-name="Rectangle 614" width="49.419" height="51.536" fill="#fff"/>
    </clipPath>
  </defs>
  <g id="icon_search" transform="translate(0 0)">
    <g id="Group_1366" data-name="Group 1366" transform="translate(0 0)" clip-path="url(#clip-path)">
      <path id="Path_1757" data-name="Path 1757" d="M47.075,51.536a2.283,2.283,0,0,1-1.656-.715L35.527,40.5a.816.816,0,0,0-1.1-.082,20.819,20.819,0,0,1-25.8,0A22.485,22.485,0,0,1,.225,25.647,23.016,23.016,0,0,1,4.3,9,21.082,21.082,0,0,1,21.547,0a20.773,20.773,0,0,1,12.88,4.476A23.114,23.114,0,0,1,38.765,35.9a.906.906,0,0,0,.078,1.146l9.889,10.319a2.52,2.52,0,0,1,0,3.457,2.282,2.282,0,0,1-1.658.716M21.614,5.066c-9.239,0-16.753,7.837-16.753,17.471S12.376,40.01,21.614,40.01s16.752-7.835,16.754-17.467S30.853,5.066,21.614,5.066" transform="translate(0 0)" fill="#fff"/>
    </g>
  </g>
</svg>
