<svg id="sign-in" xmlns="http://www.w3.org/2000/svg" width="57.362" height="57.362" viewBox="0 0 57.362 57.362">
  <path id="Path_1746" data-name="Path 1746" d="M16.731,52.582H11.95a7.17,7.17,0,0,1-7.17-7.17V11.95a7.17,7.17,0,0,1,7.17-7.17h4.78a2.39,2.39,0,0,0,0-4.78H11.95A11.965,11.965,0,0,0,0,11.95V45.412a11.965,11.965,0,0,0,11.95,11.95h4.78a2.39,2.39,0,1,0,0-4.78Z" fill="#fff"/>
  <path id="Path_1747" data-name="Path 1747" d="M48.075,19.341h0l-37.708.076a4.823,4.823,0,0,1,.779-1.066L20.416,9.08a2.39,2.39,0,1,0-3.38-3.38L7.761,14.971a9.56,9.56,0,0,0,0,13.518l9.271,9.271a2.39,2.39,0,1,0,3.38-3.38L11.141,25.11a4.8,4.8,0,0,1-.7-.913l37.63-.076a2.39,2.39,0,0,0,0-4.78Z" transform="translate(6.897 6.95)" fill="#fff"/>
</svg>
