<svg xmlns="http://www.w3.org/2000/svg" width="44.179" height="58.905" viewBox="0 0 44.179 58.905">
  <g id="ticket" transform="translate(-3)">
    <path id="Path_1748" data-name="Path 1748" d="M34.907,0h-.319a4.958,4.958,0,0,0-4.764,3.76,4.909,4.909,0,0,1-9.469,0A4.958,4.958,0,0,0,15.591,0h-.319A12.287,12.287,0,0,0,3,12.272v39.27a7.363,7.363,0,0,0,7.363,7.363h5.228a4.958,4.958,0,0,0,4.764-3.76,4.909,4.909,0,0,1,9.469,0,4.958,4.958,0,0,0,4.764,3.76h5.228a7.363,7.363,0,0,0,7.363-7.363V12.272A12.287,12.287,0,0,0,34.907,0Zm4.909,54-5.26-.155A9.818,9.818,0,0,0,15.591,54H10.363a2.454,2.454,0,0,1-2.454-2.454V41.725h4.909a2.454,2.454,0,1,0,0-4.909H7.909V12.272a7.363,7.363,0,0,1,7.363-7.363l.351.155a9.842,9.842,0,0,0,9.467,7.209,9.992,9.992,0,0,0,9.555-7.363h.263a7.363,7.363,0,0,1,7.363,7.363V36.816H37.361a2.454,2.454,0,0,0,0,4.909H42.27v9.818A2.454,2.454,0,0,1,39.816,54Z" transform="translate(0)" fill="#fff"/>
    <path id="Path_1749" data-name="Path 1749" d="M17.363,15H12.454a2.454,2.454,0,0,0,0,4.909h4.909a2.454,2.454,0,0,0,0-4.909Z" transform="translate(10.181 21.816)" fill="#fff"/>
  </g>
</svg>
