<svg xmlns="http://www.w3.org/2000/svg" xmlns:xlink="http://www.w3.org/1999/xlink" width="44.465" height="62.969" viewBox="0 0 44.465 62.969">
  <defs>
    <clipPath id="clip-path">
      <rect id="Rectangle_615" data-name="Rectangle 615" width="44.465" height="62.969" transform="translate(0 0)" fill="#fff"/>
    </clipPath>
  </defs>
  <g id="Group_1485" data-name="Group 1485" transform="translate(0 0)">
    <g id="Group_1369" data-name="Group 1369" clip-path="url(#clip-path)">
      <path id="Path_1758" data-name="Path 1758" d="M5.2,62.96a1.7,1.7,0,0,1-.231-.032A2.083,2.083,0,0,1,3.321,60.5c0-.012.008-.038.014-.065.139-.926.288-1.851.436-2.775.306-1.913.622-3.892.854-5.836.132-1.111.194-2.265.255-3.381.067-1.226.135-2.493.3-3.747a6.151,6.151,0,0,0-.983-4.175A25.98,25.98,0,0,1,.926,29.052a47.046,47.046,0,0,1,.213-10.575,1.157,1.157,0,0,0-.08-.416c-.127-.429-.238-.768-.35-1.107a16.442,16.442,0,0,1-.593-2.133A5.807,5.807,0,0,1,5.458,7.893c.167-.017.371-.023.579-.023h.006A5.417,5.417,0,0,1,9.684,2.852a9,9,0,0,1,2.9-.543,5.7,5.7,0,0,1,2.948.8C16.693,1.043,18.7,0,21.516,0q.441,0,.9.03a5.574,5.574,0,0,1,4.458,2.351A5.277,5.277,0,0,1,31.344.163a9.061,9.061,0,0,1,1.683.168c3.25.6,4.885,2.5,5,5.805.025.717-.014,1.424-.053,2.108-.026.467-.053.934-.057,1.4a.766.766,0,0,0,.129.287,5.135,5.135,0,0,0,.394.5,5.423,5.423,0,0,1,.658.89,52.384,52.384,0,0,1,4.936,11.861,9.23,9.23,0,0,1-2.994,9.96c-2.254,2.022-4.519,4.107-6.783,6.191q-2.062,1.9-4.13,3.79a1.928,1.928,0,0,0-.645,1.2,50.791,50.791,0,0,0,.043,15.722,2.153,2.153,0,0,1-1.48,2.594l-.174.042a2.162,2.162,0,0,1-.365.033,2.111,2.111,0,0,1-2.077-1.795c-.007-.05-.013-.1-.017-.147a51.592,51.592,0,0,1-.174-15.98,3.789,3.789,0,0,0,.054-.406,6.5,6.5,0,0,1,2.46-4.8c2.2-1.947,4.448-4.012,6.617-6.011q1.946-1.792,3.9-3.576a5.376,5.376,0,0,0,1.659-6.1,58.191,58.191,0,0,0-4.258-10.146c-.776-1.425-1.369-1.546-1.863-1.546a3.854,3.854,0,0,0-1.142.216,34.17,34.17,0,0,0-5.4,2.143,17.163,17.163,0,0,1-5.855,1.841,4.942,4.942,0,0,0-.589.129l-.325.08a4.649,4.649,0,0,0,1.962,2.447,8.577,8.577,0,0,0,10.29-1.707,2.663,2.663,0,0,1,1.522-.952.962.962,0,0,1,.214-.024H34.5a2.232,2.232,0,0,1,1.779.958,1.042,1.042,0,0,1,.1.183,2.309,2.309,0,0,1-.148,2.07,1.019,1.019,0,0,1-.1.14c-.612.708-1.258,1.341-1.942,2.009a3.866,3.866,0,0,0,2.163.665q.127,0,.255-.009a1.236,1.236,0,0,0,.181-.018c.077-.012.154-.023.23-.031a2.128,2.128,0,0,1,.335-.026,2.092,2.092,0,0,1,2.05,1.692c0,.022.017.1.02.125a2.037,2.037,0,0,1-.371,1.508,2.062,2.062,0,0,1-1.35.831,1.982,1.982,0,0,1-.232.024,7.994,7.994,0,0,1-7.272-2.79.416.416,0,0,1-.079.019c-.884.139-1.777.231-2.641.32-.5.052-1,.1-1.494.163a2.41,2.41,0,0,0-.871.194A16.857,16.857,0,0,0,17.4,33.271l-.077.205c-.06.163-.121.326-.193.484a2.052,2.052,0,0,1-1.934,1.314,2.112,2.112,0,0,1-.677-.112l-.017-.006a2.071,2.071,0,0,1-1.269-2.634,15.674,15.674,0,0,1,.647-1.693,21,21,0,0,1,6.436-8.244l-.946-.669a5.406,5.406,0,0,1-4.886,3.077,5.477,5.477,0,0,1-.92-.079,5.42,5.42,0,0,1-1.522-.5A3.906,3.906,0,0,1,7.355,26.38a3.921,3.921,0,0,1-1.03-.507A17.045,17.045,0,0,1,4.9,24.679c0,.191,0,.382,0,.572a37.917,37.917,0,0,0,1.012,8.612,21.89,21.89,0,0,0,2.774,6.172,4.957,4.957,0,0,1,.76,3.011c-.064.931-.114,1.87-.163,2.808-.1,1.828-.2,3.72-.411,5.581-.284,2.481-.691,4.975-1.084,7.387q-.19,1.169-.378,2.338a2.045,2.045,0,0,1-2.035,1.808c-.029,0-.146,0-.174-.008m.811-51a2.1,2.1,0,0,0-1.512.805,1.311,1.311,0,0,0-.336,1.063,20.133,20.133,0,0,0,3.32,7.674,3.35,3.35,0,0,0,.895.813c.093-.5.169-.963.221-1.424A12.87,12.87,0,0,0,8.4,19.37c-.294-1.108-.613-2.274-.933-3.44-.344-1.254-.688-2.507-1.017-3.764-.024-.116-.058-.15-.1-.158a1.372,1.372,0,0,0-.33-.044m6.194-5.531a1.958,1.958,0,0,0-1.5.605A2.361,2.361,0,0,0,10.2,8.9,38.964,38.964,0,0,0,12.772,19.07a4.692,4.692,0,0,0,.865,1.354,1.2,1.2,0,0,0,1.3.306.906.906,0,0,0,.695-.784c.083-.484.118-.875.154-1.267l.027-.285a.945.945,0,0,1-.02-.151c-.006-.145-.008-.29-.011-.436a5.667,5.667,0,0,0-.042-.75l-.113-.773c-.23-1.594-.468-3.242-.753-4.846-.224-1.256-.518-2.564-.874-3.887a1.253,1.253,0,0,0-.826-.966,3.3,3.3,0,0,0-.96-.152m9.319-2.254c-1.863,0-2.58.67-2.742,2.56a24.977,24.977,0,0,0,.5,5.847c.639-.105,1.242-.205,1.815-.346.833-.208,1.686-.471,2.511-.724l.86-.262c-.055-.562-.094-1.126-.133-1.689-.047-.689-.095-1.377-.173-2.062a13.67,13.67,0,0,0-.452-2.151,1.421,1.421,0,0,0-1.295-1.125c-.344-.033-.628-.048-.894-.048m9.738.175a1.453,1.453,0,0,0-1.394,1.028,14.373,14.373,0,0,0-.693,3.775c.636-.229,1.29-.454,1.954-.627.793-.2,1.584-.328,2.42-.461l.321-.051c.006-.593.012-1.221-.011-1.847a.988.988,0,0,1,0-.122,1.468,1.468,0,0,0-1.334-1.586l-.1,0a.777.777,0,0,1-.127-.01c-.242-.035-.486-.054-.73-.069a2.533,2.533,0,0,0-.3-.025" fill="#fff"/>
    </g>
  </g>
</svg>
