<svg id="interactive" xmlns="http://www.w3.org/2000/svg" width="60.965" height="60.957" viewBox="0 0 60.965 60.957">
  <path id="Path_24" data-name="Path 24" d="M42.238,38.638,39.5,35.9l-4.395-4.387,7.085-7.085a2.54,2.54,0,0,0-.927-4.181L18.483,11.983a5.08,5.08,0,0,0-6.505,6.5l8.289,22.783a2.538,2.538,0,0,0,4.181.928l7.077-7.1,4.387,4.387,2.736,2.736a2.54,2.54,0,1,0,3.592-3.592ZM23.677,35.772,16.758,16.746l19.026,6.919Z" transform="translate(17.982 17.991)" fill="#6e8fe7"/>
  <path id="Path_25" data-name="Path 25" d="M25.4,50.8A25.4,25.4,0,1,1,50.8,25.4a2.54,2.54,0,1,1-5.08,0A20.322,20.322,0,1,0,25.4,45.723a2.54,2.54,0,1,1,0,5.08Z" fill="#2e2b62"/>
  <path id="Path_26" data-name="Path 26" d="M14.371,33.513a2.54,2.54,0,0,1-.973-.193,15.241,15.241,0,1,1,19.93-19.9,2.54,2.54,0,1,1-4.695,1.941A10.161,10.161,0,1,0,15.346,28.636a2.54,2.54,0,0,1-.975,4.887Z" transform="translate(6.164 6.165)" fill="#2e2b62"/>
</svg>
