<svg id="Group_1373" data-name="Group 1373" xmlns="http://www.w3.org/2000/svg" xmlns:xlink="http://www.w3.org/1999/xlink" width="49.432" height="69.248" viewBox="0 0 49.432 69.248">
  <defs>
    <clipPath id="clip-path">
      <rect id="Rectangle_21" data-name="Rectangle 21" width="49.432" height="69.248" transform="translate(0 0)" fill="#2e2b62"/>
    </clipPath>
  </defs>
  <path id="Path_51" data-name="Path 51" d="M8.709,47.289,45.468,69.248l3.964-58.131Z" fill="#6e8fe7"/>
  <g id="Group_34" data-name="Group 34">
    <g id="Group_33" data-name="Group 33" clip-path="url(#clip-path)">
      <path id="Path_52" data-name="Path 52" d="M36,59.668a1,1,0,0,1-.577-.182l-35-24.667A1,1,0,0,1,.4,33.205L43.728.2a1,1,0,0,1,1.6.939L36.99,58.811a1,1,0,0,1-.989.857M2.692,33.97,35.244,56.911l7.75-53.632Z" fill="#2e2b62"/>
      <path id="Path_53" data-name="Path 53" d="M36,59.669a1,1,0,0,1-.872-.511L21.96,35.658a1,1,0,0,1,.025-1.02C24.12,31.221,42.869,1.231,43.552.377a1,1,0,0,1,1.771.767L36.99,58.811a1,1,0,0,1-.807.841,1.05,1.05,0,0,1-.184.017M24,35.2,35.432,55.609l7.253-50.2C38.582,11.891,30.182,25.3,24,35.2" fill="#2e2b62"/>
      <path id="Path_54" data-name="Path 54" d="M22.833,36.169H22.78L.947,35a1,1,0,0,1-.553-1.795l43.333-33a1,1,0,0,1,1.452,1.328L23.679,35.7a1,1,0,0,1-.846.468M3.771,33.148l18.529.99,18.245-29Z" fill="#2e2b62"/>
    </g>
  </g>
</svg>
