<svg xmlns="http://www.w3.org/2000/svg" width="104.834" height="104.834" viewBox="0 0 104.834 104.834">
  <g id="play_icon" transform="translate(-18.564 -18.564)">
    <circle id="Ellipse_28" data-name="Ellipse 28" cx="52.417" cy="52.417" r="52.417" transform="translate(18.564 18.564)" fill="#fff"/>
    <path id="play_4_" data-name="play (4)" d="M29.159,11.529,15.553,1.546A7.95,7.95,0,0,0,2.9,7.956V27.922a7.941,7.941,0,0,0,12.649,6.41l13.613-9.983a7.947,7.947,0,0,0,0-12.819Zm-2.652,9.2L12.9,30.714a3.464,3.464,0,0,1-5.515-2.793V7.956a3.4,3.4,0,0,1,1.9-3.089,3.481,3.481,0,0,1,1.574-.384,3.439,3.439,0,0,1,2.036.68L26.5,15.146a3.463,3.463,0,0,1,0,5.586Z" transform="translate(54.964 52.494)" fill="#2e2b62"/>
  </g>
</svg>
