<svg id="private_life" xmlns="http://www.w3.org/2000/svg" xmlns:xlink="http://www.w3.org/1999/xlink" width="70.046" height="60.391" viewBox="0 0 70.046 60.391">
  <defs>
    <clipPath id="clip-path">
      <rect id="Rectangle_91" data-name="Rectangle 91" width="70.046" height="60.391" fill="#2e2b62"/>
    </clipPath>
  </defs>
  <g id="Group_243" data-name="Group 243" clip-path="url(#clip-path)">
    <path id="Path_1233" data-name="Path 1233" d="M0,15.922A4.972,4.972,0,0,0,.378,14.31C1.975,7.553,6.025,2.931,12.645.886c6.539-2.02,12.463-.553,17.543,4.059,1.534,1.393,2.96,2.9,4.412,4.386.334.34.509.33.849,0a71.018,71.018,0,0,1,5.7-5.5A17.89,17.89,0,0,1,69.627,14.268a17.288,17.288,0,0,1-4.9,16.418C54.953,40.543,45.108,50.328,35.3,60.148c-.262.262-.4.366-.729.037Q19.726,45.2,4.87,30.226a17.228,17.228,0,0,1-4.715-9.8c-.021-.14.063-.333-.155-.4ZM41.74,47.806a2.109,2.109,0,0,0,.219-.146c6.768-6.772,13.615-13.468,20.269-20.349a12.905,12.905,0,0,0,3.046-13.5A13.764,13.764,0,0,0,42.56,8.028c-2.379,2.294-4.693,4.656-7.012,7.011-.394.4-.592.483-1.039.026-2.326-2.38-4.668-4.746-7.058-7.061A13.8,13.8,0,0,0,8.241,27.815c6.51,6.611,13.068,13.173,19.609,19.754.116.116.2.3.451.3,0-2.345.008-4.665,0-6.985,0-.633.262-1.427-.111-1.856s-1.144-.471-1.744-.677a13.051,13.051,0,0,1-8.583-8.506c-.7-2.06-.635-4.22-.845-6.345-.031-.314.157-.316.376-.331,1.091-.074,2.183-.142,3.272-.24.326-.029.443.054.462.385.056,1,.135,2,.214,3a8.9,8.9,0,0,0,4.442,7.268,19.148,19.148,0,0,0,3.865,1.5,4.472,4.472,0,0,0,1.513.366c2.553-.018,5.106-.009,7.659-.007a2.09,2.09,0,0,0,.738-.1c1.131-.413,2.284-.771,3.392-1.237a9.032,9.032,0,0,0,5.359-6.523c.28-1.376.382-2.79.558-4.187.05-.395.111-.646.7-.515a15.531,15.531,0,0,0,2.89.364c.511.015.562.151.511.523-.164,1.2-.276,2.4-.442,3.594A12.971,12.971,0,0,1,46.2,37.088a20.846,20.846,0,0,1-3.947,1.671c-.239.086-.52.092-.518.494.015,2.819.008,5.638.008,8.553M32.407,45.92h0c0,1.913,0,3.826,0,5.739a.96.96,0,0,0,.275.795c.661.626,1.3,1.276,1.926,1.938.242.256.388.273.641.005.688-.727,1.4-1.429,2.121-2.129a.837.837,0,0,0,.278-.655q-.012-5.807,0-11.614c0-.362-.1-.459-.459-.454-1.412.02-2.824.029-4.235,0-.465-.011-.556.143-.551.572.022,1.935.01,3.871.01,5.807" transform="translate(0 0)" fill="#2e2b62"/>
    <path id="Path_1234" data-name="Path 1234" d="M168.29,109.545a6.7,6.7,0,1,1-6.63-6.742,6.7,6.7,0,0,1,6.63,6.742m-4.09-.044a2.614,2.614,0,1,0-2.644,2.619A2.587,2.587,0,0,0,164.2,109.5" transform="translate(-126.568 -84.01)" fill="#6e8fe7"/>
  </g>
</svg>
