<svg id="private" xmlns="http://www.w3.org/2000/svg" xmlns:xlink="http://www.w3.org/1999/xlink" width="53.654" height="61.039" viewBox="0 0 53.654 61.039">
  <defs>
    <clipPath id="clip-path">
      <rect id="Rectangle_87" data-name="Rectangle 87" width="53.654" height="61.039" fill="#2e2b62"/>
    </clipPath>
  </defs>
  <g id="Group_231" data-name="Group 231" clip-path="url(#clip-path)">
    <path id="Path_1219" data-name="Path 1219" d="M26.58,61.036c-1.3-.469-2.612-.891-3.885-1.416A35.8,35.8,0,0,1,3.489,41.446,35.839,35.839,0,0,1,0,25.877Q.013,15.084,0,4.29V4.222a.647.647,0,0,1,.647-.647H.74c2.317,0,4.634.011,6.951-.015a1.433,1.433,0,0,0,.839-.338c.993-.944,1.938-1.939,2.929-2.886a1.225,1.225,0,0,1,.764-.324q14.6-.024,29.207,0a1.223,1.223,0,0,1,.765.32c.975.931,1.926,1.888,2.864,2.857A1.294,1.294,0,0,0,46,3.584c2.313-.015,4.625-.009,7.006-.008a.648.648,0,0,1,.648.647v.006q0,10.759,0,21.518a36.357,36.357,0,0,1-23.459,34.2c-1.029.4-2.083.732-3.126,1.095l-.485,0m-23-53.884v.584c0,6.079-.027,12.157.018,18.236a28.018,28.018,0,0,0,.392,4.98C6.443,43.926,13.855,52.71,26.341,57.134a1.625,1.625,0,0,0,.961.014A32.872,32.872,0,0,0,50.07,25.924c.023-6.059,0-12.117,0-18.176v-.6c-1.933,0-3.779.014-5.624-.015a1.325,1.325,0,0,1-.816-.338c-.993-.944-1.939-1.938-2.929-2.885a1.223,1.223,0,0,0-.762-.324q-13.111-.025-26.221,0a1.224,1.224,0,0,0-.765.319c-.977.932-1.93,1.89-2.871,2.86a1.167,1.167,0,0,1-.931.393c-1.827-.02-3.654-.009-5.576-.009" transform="translate(0 0)" fill="#2e2b62"/>
    <path id="Path_1220" data-name="Path 1220" d="M111.286,59.326h3.163a.414.414,0,0,1,.414.414V60q0,5.81,0,11.62a12.515,12.515,0,0,1-24.786,2.67,13.361,13.361,0,0,1-.237-2.305c-.024-4.072-.012-8.144-.012-12.215v0a.414.414,0,0,1,.414-.414H93.4c0-.3,0-.526,0-.757.034-2.024-.085-4.065.137-6.068a8.834,8.834,0,0,1,8.829-7.622,8.924,8.924,0,0,1,8.8,7.611,19.976,19.976,0,0,1,.112,2.316c.017,1.468,0,2.937,0,4.492M93.424,62.936c-.008.14-.019.254-.019.368,0,2.94-.006,5.88.01,8.821a7.422,7.422,0,0,0,.168,1.476,8.937,8.937,0,0,0,17.7-1.813c.01-2.781,0-5.562,0-8.344,0-.17-.022-.341-.033-.508Zm14.283-3.627c0-1.887.021-3.711,0-5.534a5.369,5.369,0,0,0-4.917-5.278,5.216,5.216,0,0,0-5.678,4.468,55.939,55.939,0,0,0-.124,5.941,3.337,3.337,0,0,0,.043.4Z" transform="translate(-75.518 -37.754)" fill="#6e8fe7"/>
    <path id="Path_1221" data-name="Path 1221" d="M159.221,180.558h0a1.752,1.752,0,0,1,1.752,1.752v7.151a1.752,1.752,0,0,1-3.5,0V182.31a1.752,1.752,0,0,1,1.752-1.752" transform="translate(-132.389 -151.801)" fill="#6e8fe7"/>
  </g>
</svg>
