<svg xmlns="http://www.w3.org/2000/svg" width="70" height="72.247" viewBox="0 0 70 72.247">
  <g id="profile_icon" transform="translate(-235 -1608)">
    <g id="user_1_" data-name="user (1)" transform="translate(232 1613)">
      <path id="Path_27" data-name="Path 27" d="M22.812,33.623A16.812,16.812,0,1,0,6,16.812,16.812,16.812,0,0,0,22.812,33.623Zm0-28.019A11.208,11.208,0,1,1,11.6,16.812,11.208,11.208,0,0,1,22.812,5.6Z" transform="translate(5.406)" fill="#2e2b62"/>
      <path id="Path_28" data-name="Path 28" d="M28.217,14A25.245,25.245,0,0,0,3,39.217a2.8,2.8,0,1,0,5.6,0,19.614,19.614,0,0,1,39.227,0,2.8,2.8,0,1,0,5.6,0A25.245,25.245,0,0,0,28.217,14Z" transform="translate(0 25.227)" fill="#2e2b62"/>
    </g>
    <g id="comment-alt_3_" data-name="comment-alt (3)" transform="translate(281 1608)">
      <path id="Path_29" data-name="Path 29" d="M20,0H4A4,4,0,0,0,0,4V16a4,4,0,0,0,4,4H6.9l4.451,3.763a1,1,0,0,0,1.292,0L17.1,20H20a4,4,0,0,0,4-4V4A4,4,0,0,0,20,0Zm2,16a2,2,0,0,1-2,2H17.1a2,2,0,0,0-1.291.473L12,21.69,8.193,18.473h0A2,2,0,0,0,6.9,18H4a2,2,0,0,1-2-2V4A2,2,0,0,1,4,2H20a2,2,0,0,1,2,2Z" fill="#6e8fe7"/>
      <path id="Path_30" data-name="Path 30" d="M7,7h5a1,1,0,0,0,0-2H7A1,1,0,0,0,7,7Z" fill="#6e8fe7"/>
      <path id="Path_31" data-name="Path 31" d="M17,9H7a1,1,0,0,0,0,2H17a1,1,0,0,0,0-2Z" fill="#6e8fe7"/>
      <path id="Path_32" data-name="Path 32" d="M17,13H7a1,1,0,0,0,0,2H17a1,1,0,0,0,0-2Z" fill="#6e8fe7"/>
    </g>
  </g>
</svg>
