<svg id="professional_life" xmlns="http://www.w3.org/2000/svg" xmlns:xlink="http://www.w3.org/1999/xlink" width="76.019" height="76.219" viewBox="0 0 76.019 76.219">
  <defs>
    <clipPath id="clip-path">
      <rect id="Rectangle_92" data-name="Rectangle 92" width="76.019" height="76.219" fill="#2e2b62"/>
    </clipPath>
  </defs>
  <g id="Group_245" data-name="Group 245" clip-path="url(#clip-path)">
    <path id="Path_1235" data-name="Path 1235" d="M206.473,364.083c-4.265,0-8.53-.009-12.795.012-.511,0-.708-.083-.681-.648a57.23,57.23,0,0,1,.15-6.346,7.331,7.331,0,0,1,6.281-6.037,9.607,9.607,0,0,1,1.517-.181c.949.03,1.138-.611,1.341-1.315.082-.285-.08-.364-.235-.485a7.267,7.267,0,0,1-2.838-4.9,1.5,1.5,0,0,0-.4-.8,8.162,8.162,0,0,1,6.17-13.62,19.33,19.33,0,0,1,5.182.255,8.138,8.138,0,0,1,4.134,13.227,2.127,2.127,0,0,0-.565,1.126,7.184,7.184,0,0,1-2.7,4.643c-.217.179-.5.308-.268.659s.008,1.008.728,1.091c.911.1,1.822.242,2.719.431a7.331,7.331,0,0,1,5.762,6.932c.039,1.787-.015,3.576.028,5.362.013.552-.2.6-.655.6-4.29-.014-8.581-.008-12.871-.008m4.928-21.45v-.383c0-1.491-.156-1.7-1.6-2a5.865,5.865,0,0,1-3.084-1.2c-.126-.119-.256-.168-.4-.033-1.009.958-2.329,1.068-3.6,1.325a1.246,1.246,0,0,0-1.125,1.322c0,.612-.018,1.225.009,1.836a4.895,4.895,0,0,0,5.852,4.535c2.523-.533,3.945-2.479,3.945-5.4m2.049-2.681a5.648,5.648,0,0,0-4.209-7.606,20.782,20.782,0,0,0-5.266-.052,4.513,4.513,0,0,0-1.391.393c-2.789,1.188-4.248,4.634-3.006,7.148a4.009,4.009,0,0,1,3.188-1.995,7.979,7.979,0,0,0,1.193-.265,1.75,1.75,0,0,0,1.3-1.456c.1-.48-.245-1.165.191-1.4.413-.227,1.046-.053,1.582-.055a.464.464,0,0,0,.077,0c.492-.086.635.1.631.611-.014,1.748.35,2.16,2.111,2.469,1.445.253,2.8.652,3.6,2.214m-10.894,19.94c-1.141-1.9-2.285-3.761-3.382-5.652-.269-.464-.5-.523-.953-.282a4.858,4.858,0,0,0-2.614,3.3,23.332,23.332,0,0,0-.148,4.039c-.02.364.2.335.438.335q4.475,0,8.95,0c.187,0,.428.079.427-.264-.006-1.33,0-2.661,0-3.991l-.217-.1-2.5,2.614m5.167-2.672c0,1.457.014,2.705-.009,3.953-.007.372.108.467.471.465,2.957-.014,5.915-.019,8.873,0,.451,0,.484-.183.478-.536-.017-.943.024-1.888-.014-2.829a4.88,4.88,0,0,0-2.515-4.191c-.586-.356-.918-.36-1.3.31-1.045,1.852-2.171,3.659-3.317,5.569l-2.672-2.745m-2.717-6.789c-.638-.17-.685.478-.623.677.254.813,1.179.917,1.736,1.435a.46.46,0,0,0,.669.073,16.951,16.951,0,0,1,1.58-1.054c.425-.247.228-.52.154-.84-.087-.372-.307-.336-.57-.28a6.7,6.7,0,0,1-2.945-.011m6.527,2.865c-1.352-.493-2.023.576-2.92,1.049-.211.111-.062.24.042.353.4.436.8.875,1.236,1.357l1.643-2.758m-7.041,1.107c-.943-.413-1.593-1.633-3.029-1.1l1.586,2.658,1.443-1.556" transform="translate(-168.488 -287.876)" fill="#6e8fe7"/>
    <path id="Path_1236" data-name="Path 1236" d="M175.425,12.457c1.522-1.22,2.88-2.33,4.265-3.4a1.06,1.06,0,0,0,.455-.956c-.018-2.425,0-4.851-.02-7.276,0-.481.095-.646.615-.638,2.068.033,4.136.024,6.2,0,.416,0,.587.083.559.536-.04.629-.01,1.264-.01,2.064,1.132-.9,2.171-1.693,3.167-2.538a.652.652,0,0,1,1.013-.017q7.393,5.953,14.814,11.871c.094.075.184.156.415.353-1.466,0-2.777.026-4.087-.013-.51-.015-.623.14-.621.631.019,4.468,0,8.936.026,13.4,0,.574-.136.706-.706.7q-10.341-.033-20.681,0c-.559,0-.716-.113-.712-.7.029-4.442.005-8.885.029-13.327,0-.552-.1-.742-.694-.717-1.271.054-2.547.016-4.03.016m15.745,0c-2.656,0-5.312.006-7.967-.007-.4,0-.632.006-.628.544.028,3.728.022,7.456,0,11.184,0,.433.114.558.547.548,1.251-.029,2.5-.036,3.753,0,.5.015.632-.13.625-.628-.029-2.068,0-4.137-.022-6.2,0-.435.119-.55.549-.546,2.068.022,4.137.027,6.205,0,.5-.007.632.13.625.628-.029,2.068,0,4.137-.022,6.2,0,.435.118.555.549.546,1.251-.028,2.5-.036,3.753,0,.507.016.626-.136.623-.63q-.032-5.515,0-11.031c0-.5-.133-.628-.629-.624-2.656.025-5.312.012-7.967.012m8.746-2.47c-2.877-2.3-5.626-4.492-8.354-6.7-.359-.291-.563-.162-.844.064q-3.9,3.137-7.812,6.266c-.115.092-.341.135-.293.374Zm-9.97,12.206v.689c0,1.885,0,1.869,1.92,1.847.439-.005.551-.128.542-.554-.028-1.25-.036-2.5,0-3.751.016-.509-.139-.625-.631-.622-1.834.011-1.834-.008-1.834,1.856ZM182.588,6.721c.8-.641,1.469-1.189,2.153-1.714a.749.749,0,0,0,.307-.643c.064-1.717.071-1.716-1.658-1.715a2.817,2.817,0,0,1-.382,0c-.339-.047-.433.093-.427.426.019,1.165.007,2.33.007,3.649" transform="translate(-153.161 0)" fill="#2e2b62"/>
    <path id="Path_1237" data-name="Path 1237" d="M13.489,219.206q-5.362,0-10.725,0A2.478,2.478,0,0,1,0,216.473q0-7.085,0-14.17a2.48,2.48,0,0,1,2.7-2.711c1.328,0,2.656-.026,3.983.011.513.014.732-.083.681-.649a15.481,15.481,0,0,1-.009-1.837,2.426,2.426,0,0,1,2.447-2.424q3.677-.031,7.354,0a2.43,2.43,0,0,1,2.451,2.421,17.565,17.565,0,0,1-.007,1.914c-.039.5.152.583.6.574,1.378-.029,2.757-.016,4.136-.009a2.45,2.45,0,0,1,2.629,2.633q.01,7.162,0,14.323A2.461,2.461,0,0,1,24.29,219.2q-5.4.008-10.8,0M2.454,204.87c0,3.948.014,7.649-.015,11.35,0,.544.233.54.632.54q10.416-.012,20.831.01c.59,0,.634-.215.631-.7-.019-3.471-.009-6.943-.014-10.415,0-.188.076-.4-.1-.625-.7,1.055-1.4,2.08-2.075,3.115a2.618,2.618,0,0,1-2.379,1.258c-1.583-.02-3.166.008-4.748-.014-.4-.006-.534.106-.507.509.034.508-.012,1.022.015,1.531.018.338-.1.414-.429.432-2,.106-2,.116-2.03-1.888a.416.416,0,0,1,0-.077c.069-.4-.1-.512-.5-.506-1.557.022-3.115-.013-4.672.016a2.694,2.694,0,0,1-2.5-1.324c-.653-1.02-1.341-2.019-2.137-3.212m1.1-2.791c1.053,1.586,2.068,3.1,3.066,4.63.178.272.417.238.667.238,1,0,1.991,0,2.986,0,.635,0,1.454.216,1.854-.1.426-.332.084-1.19.138-1.816a1.309,1.309,0,0,0,0-.23c-.02-.227.077-.317.307-.311.686.018,1.484-.184,2.019.1.386.208.08,1.083.126,1.658a1,1,0,0,1,0,.229c-.056.365.089.476.46.471,1.531-.02,3.062-.01,4.593-.006a.589.589,0,0,0,.59-.237c1-1.526,2.015-3.044,3.07-4.632Zm10-4.939H11.713c-1.957,0-1.94,0-1.915,1.929.006.454.153.537.565.531,1.634-.022,3.268-.009,4.9-.009,1.957,0,1.94,0,1.915-1.929-.006-.454-.153-.542-.565-.531-1.02.027-2.042.009-3.063.009" transform="translate(0 -169.97)" fill="#2e2b62"/>
    <path id="Path_1238" data-name="Path 1238" d="M399.956,221.718a13.486,13.486,0,1,1,13.455-13.52,13.511,13.511,0,0,1-13.455,13.52m.026-24.519a11.033,11.033,0,1,0,10.975,11.11,11.051,11.051,0,0,0-10.975-11.11" transform="translate(-337.392 -170.03)" fill="#2e2b62"/>
    <path id="Path_1239" data-name="Path 1239" d="M81.756,48.443c0,.326-.326.33-.525.428a30.485,30.485,0,0,0-9.859,7.715,29.114,29.114,0,0,0-4.082,6.249c-.2.416-.355.548-.834.318-1.726-.83-1.736-.807-.817-2.491a33.227,33.227,0,0,1,14.5-14.007c.57-.289.78-.144.978.371.182.474.418.926.643,1.417" transform="translate(-56.778 -40.606)" fill="#2e2b62"/>
    <path id="Path_1240" data-name="Path 1240" d="M419.645,62.834c-.038.051-.065.127-.118.153-.616.3-1.223.628-1.861.876-.36.14-.365-.28-.461-.472a30.837,30.837,0,0,0-5.485-7.77,29.718,29.718,0,0,0-8.412-6.138c-.515-.25-.63-.449-.354-1,.8-1.6.774-1.615,2.349-.758a33.122,33.122,0,0,1,14.073,14.529c.091.181.171.368.269.58" transform="translate(-351.688 -41.175)" fill="#2e2b62"/>
    <path id="Path_1241" data-name="Path 1241" d="M87.679,414.7c-.372.624-.716,1.281-1.145,1.878-.159.221-.4-.086-.572-.19a32.9,32.9,0,0,1-9.19-8.211c-.762-.991-1.454-2.029-2.114-3.091-.214-.345-.269-.543.155-.751.548-.268,1.087-.865,1.591-.826.534.041.7.892,1.034,1.386a31.01,31.01,0,0,0,9.734,9.37c.18.11.436.153.506.436" transform="translate(-65.041 -352.296)" fill="#2e2b62"/>
    <path id="Path_1242" data-name="Path 1242" d="M430.972,421.448a13.127,13.127,0,0,0,1.247.858c.62.335.621.634.2,1.189a34.356,34.356,0,0,1-9.466,8.574c-.393.24-.628.307-.852-.193-.246-.55-.852-1.108-.776-1.579.062-.391.886-.66,1.372-.983A31.087,31.087,0,0,0,430.441,422c.146-.2.242-.451.531-.553" transform="translate(-367.845 -367.961)" fill="#2e2b62"/>
    <path id="Path_1243" data-name="Path 1243" d="M470.924,245.791c0,.026,0,.051,0,.077-.015.684.217,1.554-.117,2-.316.421-1.238.118-1.892.117-.395,0-.492.149-.444.491a1.049,1.049,0,0,1,0,.153c-.019,2.037-.018,2.026-2.09,1.831-.319-.03-.39-.142-.364-.416.012-.127-.008-.256,0-.383a2.32,2.32,0,0,0-1.132-2.629c-1.281-.752-1.4-2.213-1.329-3.619.015-.291.142-.335.378-.323.2.011.409,0,.613,0,.457.007,1.012-.138,1.345.07s.078.8.127,1.22c.107.925,1.663,1.72,2.327,1.116.346-.315.145-.926.088-1.389a1.141,1.141,0,0,0-1.016-1c-.2-.037-.409-.014-.611-.04a3.692,3.692,0,0,1-3.237-3.6c-.022-1.072.019-2.145-.017-3.217-.016-.461.157-.544.566-.53.606.021,1.4.2,1.772-.1.393-.322.119-1.147.113-1.749,0-.438.063-.61.57-.61,1.894,0,1.914-.023,1.883,1.876a1.1,1.1,0,0,0,.668,1.169,3.93,3.93,0,0,1,1.8,4.084c-.047.2-.128.246-.3.243-.23,0-.46,0-.689,0-.457-.007-1.011.138-1.345-.069s-.078-.8-.128-1.22c-.109-.926-1.661-1.72-2.326-1.117-.347.314-.145.926-.089,1.389a1.138,1.138,0,0,0,1.017,1c.275.05.563.026.836.081a3.683,3.683,0,0,1,3.015,3.632c.009.485,0,.97,0,1.455" transform="translate(-404.715 -203.665)" fill="#2e2b62"/>
  </g>
</svg>
