<svg id="retirement" xmlns="http://www.w3.org/2000/svg" xmlns:xlink="http://www.w3.org/1999/xlink" width="57.92" height="65.597" viewBox="0 0 57.92 65.597">
  <defs>
    <clipPath id="clip-path">
      <rect id="Rectangle_88" data-name="Rectangle 88" width="57.92" height="65.597" fill="#2e2b62"/>
    </clipPath>
  </defs>
  <g id="Group_233" data-name="Group 233" clip-path="url(#clip-path)">
    <path id="Path_1222" data-name="Path 1222" d="M72.577,0a8.132,8.132,0,0,1,1.552.151c.751.146,1.5.284,2.236.5A15.432,15.432,0,1,1,70.138.116h0A11.189,11.189,0,0,1,71.494,0Zm-12.2,15.422A11.588,11.588,0,1,0,72.015,3.845,11.608,11.608,0,0,0,60.379,15.423" transform="translate(-46.846 -0.001)" fill="#6e8fe7"/>
    <path id="Path_1223" data-name="Path 1223" d="M9.15,107.868,15.758,87.5c-.567-.067-1.1-.1-1.61-.2a1.886,1.886,0,0,1-1.581-1.764,1.865,1.865,0,0,1,1.3-1.916,2.726,2.726,0,0,1,1.008-.079c2.487.218,4.972.453,7.458.688q5.767.546,11.534,1.1,3.823.364,7.647.725c.272.026.545.037.875.058.183-1.712.364-3.382.541-5.052q.686-6.492,1.367-12.985c.194-1.846.387-3.692.568-5.54.121-1.237.757-1.993,1.778-2.078A1.858,1.858,0,0,1,48.714,62.5c-.112,1.553-.3,3.1-.461,4.649q-.607,5.793-1.22,11.585-.677,6.429-1.353,12.858c-.224,2.122-.454,4.243-.67,6.365a1.493,1.493,0,0,0,.075.561q1.7,5.666,3.4,11.328c.036.119.092.231.156.388a30.7,30.7,0,0,0,6.067-2.015,5.754,5.754,0,0,1,.7-.309,1.935,1.935,0,0,1,2.37,1.121,1.86,1.86,0,0,1-.969,2.424,44.635,44.635,0,0,1-4.519,1.767,59.174,59.174,0,0,1-14.422,2.354,84.083,84.083,0,0,1-16.226-.664c-5.767-.8-11.426-2.044-16.65-4.732a31.689,31.689,0,0,1-4.113-2.687,1.877,1.877,0,0,1-.433-2.808,1.954,1.954,0,0,1,2.9-.112,21.544,21.544,0,0,0,5.8,3.295m35.64,3.168c-.04-.224-.047-.309-.071-.39-1.009-3.344-2.013-6.69-3.046-10.026a.787.787,0,0,0-.549-.441c-2.566-.269-5.135-.5-7.7-.747q-5.86-.552-11.72-1.1c-1.738-.162-3.477-.316-5.258-.478l-3.669,11.3a79.289,79.289,0,0,0,32.017,1.878M41.982,89.985c-.18-.026-.3-.048-.425-.06Q30.982,88.917,20.407,87.9c-.568-.055-.8.1-.969.668-.541,1.831-1.164,3.638-1.78,5.531l23.664,2.21.66-6.324" transform="translate(0 -50.11)" fill="#2e2b62"/>
    <path id="Path_1224" data-name="Path 1224" d="M121.989,36.446c0-.169-.007-.36,0-.55a1.7,1.7,0,0,1,1.682-1.735,1.644,1.644,0,0,1,1.745,1.654,1.013,1.013,0,0,0,.717,1.083,2.811,2.811,0,0,1,.9.693A1.617,1.617,0,0,1,127.1,39.8a1.741,1.741,0,0,1-2.2.385,4.469,4.469,0,0,0-1.165-.471.868.868,0,0,0-1.129.58c-.172.6.253.865.7,1.053a15.338,15.338,0,0,0,1.51.52,4.351,4.351,0,0,1,3.447,3.694,4.72,4.72,0,0,1-2.476,4.944.946.946,0,0,0-.324.592c-.069.351-.01.73-.092,1.076a1.649,1.649,0,0,1-1.81,1.285A1.688,1.688,0,0,1,122,51.876c-.02-.273,0-.548,0-.7-.845-.392-1.619-.692-2.332-1.1a1.7,1.7,0,0,1-.709-2.364,1.719,1.719,0,0,1,2.44-.6,3.328,3.328,0,0,0,2.121.56,1.469,1.469,0,0,0,1.23-.9.977.977,0,0,0-.576-1.45c-.67-.272-1.378-.457-2.035-.757-1.536-.7-2.77-1.679-3-3.518-.253-1.983.711-3.575,2.859-4.608" transform="translate(-98.406 -28.314)" fill="#6e8fe7"/>
  </g>
</svg>
