<svg xmlns="http://www.w3.org/2000/svg" xmlns:xlink="http://www.w3.org/1999/xlink" width="61.77" height="61.789" viewBox="0 0 61.77 61.789">
  <defs>
    <clipPath id="clip-path">
      <rect id="Rectangle_85" data-name="Rectangle 85" width="61.77" height="61.789" transform="translate(0 0)" fill="none"/>
    </clipPath>
  </defs>
  <g id="school" clip-path="url(#clip-path)">
    <path id="Path_1209" data-name="Path 1209" d="M15.443,46.351H12.869a2.574,2.574,0,0,0,0,5.148h2.573a2.574,2.574,0,0,0,2.574-2.574V48.92a2.575,2.575,0,0,0-2.573-2.569" fill="#2e2b62"/>
    <path id="Path_1210" data-name="Path 1210" d="M15.443,36.051H12.866a2.574,2.574,0,0,0,0,5.148h2.573a2.574,2.574,0,0,0,0-5.148" fill="#2e2b62"/>
    <path id="Path_1211" data-name="Path 1211" d="M30.885,25.756A5.148,5.148,0,1,0,36.033,30.9a5.148,5.148,0,0,0-5.148-5.148" fill="#2e2b62"/>
    <path id="Path_1212" data-name="Path 1212" d="M48.9,15.461H36.859a10.159,10.159,0,0,0-2.368-1.248c-.153-.056-.3-.1-.454-.151-.117-.038-.234-.075-.353-.108a10.626,10.626,0,0,0-5.484-.035,10.13,10.13,0,0,0-3.292,1.542H12.869A12.884,12.884,0,0,0,0,28.33V54.068a7.721,7.721,0,0,0,7.721,7.721H54.049a7.721,7.721,0,0,0,7.721-7.721V28.33A12.884,12.884,0,0,0,48.9,15.461m0,5.148a7.721,7.721,0,0,1,7.249,5.147v0H50.593A7.763,7.763,0,0,1,45.134,23.5l-2.888-2.89Zm-36.031,0h6.656l-2.888,2.885a7.763,7.763,0,0,1-5.459,2.262H5.621a7.721,7.721,0,0,1,7.248-5.147M33.459,48.92v7.722H28.311V48.92a2.574,2.574,0,1,1,5.148,0Zm23.167,5.148a2.573,2.573,0,0,1-2.575,2.573H38.607V48.92a7.721,7.721,0,0,0-15.443,0v7.721H7.721a2.573,2.573,0,0,1-2.574-2.574V30.9h6.03a12.785,12.785,0,0,0,9.1-3.771l6.97-6.967a5.149,5.149,0,0,1,7.279,0l6.97,6.967A12.785,12.785,0,0,0,50.6,30.9h6.03Z" fill="#2e2b62"/>
    <path id="Path_1213" data-name="Path 1213" d="M46.328,36.051a2.574,2.574,0,0,0,0,5.148H48.9a2.573,2.573,0,0,0,2.574-2.574h0A2.573,2.573,0,0,0,48.9,36.051Z" fill="#2e2b62"/>
    <path id="Path_1214" data-name="Path 1214" d="M48.9,46.346H46.328a2.574,2.574,0,0,0,0,5.148H48.9a2.574,2.574,0,0,0,2.575-2.569V48.92h0A2.574,2.574,0,0,0,48.9,46.346" fill="#2e2b62"/>
    <path id="Path_1215" data-name="Path 1215" d="M34.491,14.213c-.15-.055-.3-.1-.454-.151.151.047.3.095.454.151" fill="#2e2b62"/>
    <path id="Path_1216" data-name="Path 1216" d="M33.684,13.954c-.076-.021-.149-.049-.225-.068v-1l9.085-4.252a2.573,2.573,0,0,0,0-4.375L34.308.4a4.213,4.213,0,0,0-6,3.83v9.657c-.037.009-.072.023-.108.032a10.617,10.617,0,0,1,5.484.036" fill="#6e8fe7"/>
  </g>
</svg>
