<svg xmlns="http://www.w3.org/2000/svg" width="20.589" height="15.442" viewBox="0 0 20.589 15.442">
  <g id="credit-card" transform="translate(0 -3)">
    <circle id="Ellipse_76" data-name="Ellipse 76" cx="1.061" cy="1.061" r="1.061" transform="translate(3.618 12.546)" fill="#2e2b62"/>
    <path id="Path_1766" data-name="Path 1766" d="M16.3,3H4.289A4.3,4.3,0,0,0,0,7.289v6.863a4.3,4.3,0,0,0,4.289,4.289H16.3a4.3,4.3,0,0,0,4.289-4.289V7.289A4.3,4.3,0,0,0,16.3,3ZM4.289,4.716H16.3a2.574,2.574,0,0,1,2.574,2.574H1.716A2.574,2.574,0,0,1,4.289,4.716ZM16.3,16.726H4.289a2.574,2.574,0,0,1-2.574-2.574V9.005H18.873v5.147A2.574,2.574,0,0,1,16.3,16.726Z" transform="translate(0 0)" fill="#2e2b62"/>
  </g>
</svg>
