<svg xmlns="http://www.w3.org/2000/svg" width="35" height="21" viewBox="0 0 35 21">
  <g id="Group_10746" data-name="Group 10746" transform="translate(19475 4783)">
    <path id="Subtraction_11" data-name="Subtraction 11" d="M6.285,21a.525.525,0,0,1-.326-.131A17.621,17.621,0,0,1,1.6,15.052,17.335,17.335,0,0,1,.03,8.455C0,8.156,0,7.853,0,7.585A7.575,7.575,0,0,1,2.2,2.224,7.407,7.407,0,0,1,7.5,0,7.552,7.552,0,0,1,15,7.586,7.567,7.567,0,0,1,7.5,15.2a7.67,7.67,0,0,1-2.609-.48,15.6,15.6,0,0,0,1.661,5.667.428.428,0,0,1,.029.42.252.252,0,0,1-.207.179A.358.358,0,0,1,6.285,21ZM7.5,4.5A3.5,3.5,0,1,0,11,8,3.5,3.5,0,0,0,7.5,4.5Z" transform="translate(-19475 -4783)" fill="#fff"/>
    <path id="Subtraction_10" data-name="Subtraction 10" d="M6.285,21a.525.525,0,0,1-.326-.131A17.621,17.621,0,0,1,1.6,15.052,17.335,17.335,0,0,1,.03,8.455C0,8.156,0,7.853,0,7.585A7.575,7.575,0,0,1,2.2,2.224,7.407,7.407,0,0,1,7.5,0,7.552,7.552,0,0,1,15,7.586,7.567,7.567,0,0,1,7.5,15.2a7.67,7.67,0,0,1-2.609-.48,15.6,15.6,0,0,0,1.661,5.667.428.428,0,0,1,.029.42.252.252,0,0,1-.207.179A.358.358,0,0,1,6.285,21ZM7.5,4.5a3.494,3.494,0,1,0,3.425,2.8A3.511,3.511,0,0,0,7.5,4.5Z" transform="translate(-19455 -4783)" fill="#fff"/>
  </g>
</svg>
