<svg xmlns="http://www.w3.org/2000/svg" width="41.903" height="39.137" viewBox="0 0 41.903 39.137">
  <path id="Path_14" data-name="Path 14" d="M1.844,39.137V37.964A20.261,20.261,0,0,0,9.512,29.29a23.8,23.8,0,0,0,2.3-9.68,7.154,7.154,0,0,0-1.676-4.945H5.866a6.733,6.733,0,0,1-4.274-2.6A8.069,8.069,0,0,1,0,7.04,6.275,6.275,0,0,1,2.263,1.76,8.353,8.353,0,0,1,7.543,0a9.012,9.012,0,0,1,5.531,1.886,12.726,12.726,0,0,1,3.981,5.28,19.153,19.153,0,0,1,1.467,7.668A25.869,25.869,0,0,1,14,29.374,25.019,25.019,0,0,1,1.844,39.137Zm23.382,0V37.964a20.409,20.409,0,0,0,7.5-8.8,24.2,24.2,0,0,0,2.3-9.554q0-4.945-1.76-4.945-1.257,0-2.6.042A8.51,8.51,0,0,1,29,14.666a6.858,6.858,0,0,1-4.232-2.6A7.93,7.93,0,0,1,23.13,7.04,6.2,6.2,0,0,1,25.477,1.8,8.45,8.45,0,0,1,30.757,0a9.645,9.645,0,0,1,7.962,4.19A17.093,17.093,0,0,1,41.9,14.834a25.869,25.869,0,0,1-4.526,14.54A25.019,25.019,0,0,1,25.226,39.137Z" transform="translate(41.903 39.137) rotate(180)" fill="#2e2b62"/>
</svg>
