<svg xmlns="http://www.w3.org/2000/svg" width="20.159" height="18.502" viewBox="0 0 20.159 18.502">
  <path id="tachometer" d="M20.1,9.774A10.08,10.08,0,1,0,3.161,18.413,4.075,4.075,0,0,0,5.986,19.5H14.2a4.194,4.194,0,0,0,2.949-1.2A10.041,10.041,0,0,0,20.1,9.774Zm-4.128,7.319a2.527,2.527,0,0,1-1.774.721H5.986a2.407,2.407,0,0,1-1.666-.623A8.446,8.446,0,0,1,4.492,4.819,8.408,8.408,0,0,1,15.971,17.094ZM14.892,6.29a.841.841,0,0,1,0,1.189l-3.174,3.174a1.682,1.682,0,1,1-1.189-1.189L13.7,6.29a.841.841,0,0,1,1.189,0Z" transform="translate(-0.027 -0.995)" fill="#2e2b62"/>
</svg>
