<svg xmlns="http://www.w3.org/2000/svg" xmlns:xlink="http://www.w3.org/1999/xlink" width="169.323" height="123.104" viewBox="0 0 169.323 123.104">
  <defs>
    <linearGradient id="linear-gradient" x1="0.925" y1="-0.132" x2="0.185" y2="0.968" gradientUnits="objectBoundingBox">
      <stop offset="0" stop-color="#2e2b62"/>
      <stop offset="1" stop-color="#7980db"/>
    </linearGradient>
  </defs>
  <g id="chat_icon_2" transform="translate(-15249.839 -8170.042)">
    <g id="Group_11159" data-name="Group 11159" transform="translate(15101.904 8124.807)">
      <path id="Path_13339" data-name="Path 13339" d="M225.972,138.928H155.153a7.184,7.184,0,0,1-7.218-7.14V52.383a7.189,7.189,0,0,1,7.218-7.148h142.52a7.192,7.192,0,0,1,7.218,7.148v79.405a7.187,7.187,0,0,1-7.218,7.14H259.751l-.112,18.367Z" fill="url(#linear-gradient)"/>
      <path id="Path_13340" data-name="Path 13340" d="M301.7,46.485H159.179a9.323,9.323,0,0,0-9.369,9.273v79.405a9.32,9.32,0,0,0,9.369,9.273h70.264L265.8,164.267l.116-19.831H301.7a9.32,9.32,0,0,0,9.368-9.273V55.758A9.323,9.323,0,0,0,301.7,46.485Zm5.067,88.678a5.045,5.045,0,0,1-5.067,5.015h-40.06l-.026,4.232-.073,12.67-30.024-16.374-.968-.528h-71.37a5.045,5.045,0,0,1-5.067-5.015V55.758a5.047,5.047,0,0,1,5.067-5.015H301.7a5.047,5.047,0,0,1,5.067,5.015Z" transform="translate(6.19 4.072)" fill="#fff"/>
    </g>
    <g id="Group_11160" data-name="Group 11160" transform="translate(15276.17 8201.91)">
      <path id="Path_13378" data-name="Path 13378" d="M301.35,76.746H191.133c-2.178,0-3.946-1.308-3.946-2.919h0c0-1.611,1.768-2.915,3.946-2.915H301.35c2.178,0,3.946,1.3,3.946,2.915h0C305.3,75.438,303.528,76.746,301.35,76.746Z" transform="translate(-187.187 -70.912)" fill="#fff"/>
      <path id="Path_13379" data-name="Path 13379" d="M208.274,79.607H190.8c-1.993,0-3.61-1.308-3.61-2.919h0c0-1.611,1.617-2.915,3.61-2.915h17.477c1.993,0,3.6,1.3,3.6,2.915h0C211.878,78.3,210.266,79.607,208.274,79.607Z" transform="translate(-187.187 -62.044)" fill="#fff"/>
      <path id="Path_13556" data-name="Path 13556" d="M207.342,79.607h-16.7a3.22,3.22,0,0,1-3.45-2.919h0a3.217,3.217,0,0,1,3.45-2.915h16.7a3.212,3.212,0,0,1,3.446,2.915h0A3.215,3.215,0,0,1,207.342,79.607Z" transform="translate(-100.126 -62.044)" fill="#fff"/>
      <path id="Path_13380" data-name="Path 13380" d="M236.8,79.607H196.385a2.73,2.73,0,0,1-2.489-2.919h0a2.726,2.726,0,0,1,2.489-2.915H236.8a2.726,2.726,0,0,1,2.489,2.915h0A2.73,2.73,0,0,1,236.8,79.607Z" transform="translate(-160.963 -62.044)" fill="#fff"/>
      <rect id="Rectangle_2739" data-name="Rectangle 2739" width="34.447" height="5.836" rx="0.712" transform="translate(0.002 23.847)" fill="#fff"/>
      <path id="Path_13557" data-name="Path 13557" d="M207.342,79.607h-16.7a3.22,3.22,0,0,1-3.45-2.919h0a3.217,3.217,0,0,1,3.45-2.915h16.7a3.212,3.212,0,0,1,3.446,2.915h0A3.215,3.215,0,0,1,207.342,79.607Z" transform="translate(-187.187 -37.807)" fill="#fff"/>
    </g>
  </g>
</svg>
