<svg xmlns="http://www.w3.org/2000/svg" width="35" height="21" viewBox="0 0 35 21">
  <g id="comment_icon" transform="translate(-13865.996 -6754)">
    <g id="Group_11156" data-name="Group 11156">
      <path id="_1" data-name="1" d="M256.18,217.836a7.5,7.5,0,1,1,7.5,7.616,7.727,7.727,0,0,1-2.609-.48,15.5,15.5,0,0,0,1.66,5.667.426.426,0,0,1,.03.42.255.255,0,0,1-.208.18.477.477,0,0,1-.415-.12,17.677,17.677,0,0,1-4.358-5.817,17.221,17.221,0,0,1-1.571-6.6c-.029-.3-.029-.6-.029-.87Z" transform="translate(13609.816 6543.75)" fill="#fff"/>
      <circle id="Ellipse_6" data-name="Ellipse 6" cx="3.5" cy="3.5" r="3.5" transform="translate(13869.996 6758)" fill="#302e65"/>
    </g>
    <g id="Group_11155" data-name="Group 11155">
      <path id="_1-2" data-name="1" d="M256.18,217.836a7.5,7.5,0,1,1,7.5,7.616,7.727,7.727,0,0,1-2.609-.48,15.5,15.5,0,0,0,1.66,5.667.426.426,0,0,1,.03.42.255.255,0,0,1-.208.18.477.477,0,0,1-.415-.12,17.677,17.677,0,0,1-4.358-5.817,17.221,17.221,0,0,1-1.571-6.6c-.029-.3-.029-.6-.029-.87Z" transform="translate(13629.816 6543.75)" fill="#fff"/>
      <circle id="Ellipse_7" data-name="Ellipse 7" cx="3.5" cy="3.5" r="3.5" transform="translate(13889.996 6758)" fill="#302e65"/>
    </g>
  </g>
</svg>
