<svg xmlns="http://www.w3.org/2000/svg" xmlns:xlink="http://www.w3.org/1999/xlink" width="73.053" height="90.507" viewBox="0 0 73.053 90.507">
  <defs>
    <radialGradient id="radial-gradient" cx="0.708" cy="-0.249" r="0.96" gradientTransform="translate(-0.172) scale(1.343 1)" gradientUnits="objectBoundingBox">
      <stop offset="0" stop-color="#eaffff"/>
      <stop offset="1" stop-color="#e30613"/>
    </radialGradient>
    <radialGradient id="radial-gradient-2" cx="0.708" cy="-0.249" r="0.96" gradientTransform="translate(-0.172) scale(1.343 1)" gradientUnits="objectBoundingBox">
      <stop offset="0" stop-color="#eaffff"/>
      <stop offset="1" stop-color="#b2b2b2"/>
    </radialGradient>
  </defs>
  <g id="heart_icon" transform="translate(-280.121 -470.297)">
    <g id="Group_10654" data-name="Group 10654">
      <path id="Path_13116" data-name="Path 13116" d="M345.761,492.042l-28.283-19.779a10.34,10.34,0,0,0-6.689-1.941l-7.921.993c-3.951,1-7.514,4.445-9.436,9.774l-.762,2.113-.008-.005-8.387,23.256c.027.019.054.037.081.057l-2.851,7.906c-3.261,9.044-.562,20.075,6.03,24.638l28.282,19.78a10.5,10.5,0,0,0,5.869,1.966l9.634-1.289c3.59-1.264,6.768-4.579,8.544-9.5l11.58-32.112-.075-.047.421-1.168C355.052,507.636,352.352,496.605,345.761,492.042Z" fill="#be1622"/>
      <path id="Path_13117" data-name="Path 13117" d="M339.554,492.757l-28.283-19.78c-6.591-4.563-14.578-.932-17.839,8.112l-.762,2.113-.008-.005-8.387,23.256c.027.019.054.037.081.057l-2.851,7.906c-3.261,9.044-.562,20.075,6.03,24.638,0,0,4.708,3.429,4.674,3.5l23.608,16.283c6.591,4.563,14.578.931,17.84-8.112l11.579-32.113-.074-.046.421-1.168C348.844,508.351,346.145,497.32,339.554,492.757Z" fill="url(#radial-gradient)"/>
      <path id="Path_13118" data-name="Path 13118" d="M338.416,493.77,311.37,474.856c-6.3-4.364-13.94-.891-17.058,7.757l-.729,2.02-.008-.005-8.019,22.239c.026.018.052.035.077.054l-2.726,7.56c-3.118,8.648-.537,19.2,5.766,23.56l4.566,3.149-.1.2,22.575,15.57c6.3,4.364,13.94.891,17.059-7.757l11.072-30.707-.071-.045.4-1.116C347.3,508.682,344.718,498.133,338.416,493.77Z" fill="url(#radial-gradient-2)" style="mix-blend-mode: color-burn;isolation: isolate"/>
    </g>
    <g id="Group_10655" data-name="Group 10655">
      <path id="Path_13119" data-name="Path 13119" d="M331.94,518.036q.1-.637.147-1.28c.016-.213.027-.427.035-.641a15.847,15.847,0,0,0-1.729-7.859q-.141-.267-.292-.526a11.468,11.468,0,0,0-3.532-3.824,9.551,9.551,0,0,0-1.118-.639,8.571,8.571,0,0,0-9.859,1.761q-.3.291-.593.611c.029-.323.049-.647.059-.97.138-4.369-1.45-8.65-4.357-11.177a9.565,9.565,0,0,0-1.013-.772,8.085,8.085,0,0,0-4.287-1.4c-.16,0-.321,0-.48,0a8.635,8.635,0,0,0-5.73,2.643q-.191.188-.373.389-.366.4-.7.851a13.352,13.352,0,0,0-1.718,3.113c-6.7,16.981,5.573,38.9,5.573,38.9s21.415,1.883,28.9-15.45A15.368,15.368,0,0,0,331.94,518.036Z" fill="#fff"/>
    </g>
  </g>
</svg>
