<svg xmlns="http://www.w3.org/2000/svg" xmlns:xlink="http://www.w3.org/1999/xlink" width="104.861" height="96.672" viewBox="0 0 104.861 96.672">
  <defs>
    <radialGradient id="radial-gradient" cx="0.112" cy="0.798" r="1.027" gradientTransform="translate(-0.172) scale(1.343 1)" gradientUnits="objectBoundingBox">
      <stop offset="0.116" stop-color="#ffc658"/>
      <stop offset="0.433" stop-color="#f62b37"/>
      <stop offset="0.693" stop-color="#c82091"/>
    </radialGradient>
    <radialGradient id="radial-gradient-2" cx="0.377" cy="-0.234" r="0.689" gradientTransform="translate(-0.172) scale(1.343 1)" gradientUnits="objectBoundingBox">
      <stop offset="0.085" stop-color="#39ffff"/>
      <stop offset="0.276" stop-color="#39ffff"/>
      <stop offset="1" stop-color="#fff"/>
    </radialGradient>
    <radialGradient id="radial-gradient-3" cx="0.5" cy="0.5" r="0.441" gradientTransform="matrix(1.066, -0.609, -0.818, -0.793, -1.1, -6.105)" gradientUnits="objectBoundingBox">
      <stop offset="0" stop-color="#39ffff"/>
      <stop offset="0.085" stop-color="#39ffff"/>
      <stop offset="0.276" stop-color="#39ffff"/>
      <stop offset="1" stop-color="#fff"/>
    </radialGradient>
  </defs>
  <g id="instagram_icon" transform="translate(-551.475 -213.076)">
    <g id="Group_10643" data-name="Group 10643" transform="translate(551.475 213.076)">
      <g id="Group_10642" data-name="Group 10642">
        <path id="Path_13101" data-name="Path 13101" d="M645.694,236.669,605.1,215.6a18.76,18.76,0,0,0-9.6-2.067l-11.37,1.059A18.92,18.92,0,0,0,570.581,225l-1.094,2.251-.012-.006-12.038,24.772.117.06-4.093,8.421a19.854,19.854,0,0,0,8.655,26.244l40.6,21.068a18.791,18.791,0,0,0,8.424,2.095l13.828-1.373A18.939,18.939,0,0,0,637.23,298.41l16.621-34.2-.106-.05.6-1.244A19.853,19.853,0,0,0,645.694,236.669Z" transform="translate(-551.475 -213.235)" fill="#951b81"/>
        <path id="Path_13102" data-name="Path 13102" d="M637.327,236.243l-40.6-21.068a18.814,18.814,0,0,0-25.606,8.641l-1.094,2.251-.012-.006L557.98,250.832l.116.06L554,259.313a19.853,19.853,0,0,0,8.655,26.244l40.6,21.068a18.814,18.814,0,0,0,25.607-8.641l16.621-34.2-.106-.051.6-1.244A19.853,19.853,0,0,0,637.327,236.243Z" transform="translate(-551.555 -213.076)" fill="url(#radial-gradient)"/>
        <path id="Path_13103" data-name="Path 13103" d="M637.327,236.243l-40.6-21.068a18.814,18.814,0,0,0-25.606,8.641l-1.094,2.251-.012-.006L557.98,250.832l.116.06L554,259.313a19.853,19.853,0,0,0,8.655,26.244l40.6,21.068a18.814,18.814,0,0,0,25.607-8.641l16.621-34.2-.106-.051.6-1.244A19.853,19.853,0,0,0,637.327,236.243Z" transform="translate(-551.555 -213.076)" fill="url(#radial-gradient-2)" style="mix-blend-mode: multiply;isolation: isolate"/>
        <g id="Group_10641" data-name="Group 10641" transform="translate(0.462 0)" style="mix-blend-mode: overlay;isolation: isolate">
          <path id="Path_13104" data-name="Path 13104" d="M571.515,229.517l1.313-2.7,1.094-2.251a15.885,15.885,0,0,1,14.2-9.281,15,15,0,0,1,6.907,1.7l40.608,21.074a17.2,17.2,0,0,1,8.434,10.042,18.078,18.078,0,0,1-.884,13.637l-.6,1.244-.807,1.66.106.051-15.814,32.544a15.888,15.888,0,0,1-14.2,9.28,15.026,15.026,0,0,1-6.922-1.708l-40.593-21.066a17.2,17.2,0,0,1-8.435-10.042,18.083,18.083,0,0,1,.884-13.638l4.092-8.421.76-1.564-.115-.062,9.964-20.5.012.006m16.6-16.441a18.888,18.888,0,0,0-16.995,10.739l-1.094,2.251-.012-.006L557.98,250.832l.117.06L554,259.313a19.853,19.853,0,0,0,8.655,26.244l40.6,21.068a18.787,18.787,0,0,0,25.606-8.641l16.621-34.2-.106-.05.6-1.244a19.854,19.854,0,0,0-8.655-26.244l-40.6-21.068a18.8,18.8,0,0,0-8.612-2.1" transform="translate(-552.017 -213.076)" fill="url(#radial-gradient-3)"/>
        </g>
      </g>
    </g>
    <g id="Group_10645" data-name="Group 10645" transform="translate(569.809 229.108)">
      <g id="Group_10644" data-name="Group 10644" transform="translate(0)">
        <path id="Path_13105" data-name="Path 13105" d="M630.157,272.447a3.022,3.022,0,0,0-4.092,1.476,3.224,3.224,0,0,0,1.253,4.29,3.023,3.023,0,0,0,4.093-1.476A3.225,3.225,0,0,0,630.157,272.447Z" transform="translate(-580.862 -250.862)" fill="#fff"/>
        <path id="Path_13106" data-name="Path 13106" d="M611.566,267.792c-6.191-3.258-13.9-.477-17.192,6.2s-.926,14.76,5.266,18.018,13.9.477,17.192-6.2S617.758,271.051,611.566,267.792Zm-9.783,19.865a8.685,8.685,0,0,1-3.373-11.542,8.14,8.14,0,0,1,11.013-3.971,8.684,8.684,0,0,1,3.373,11.541A8.14,8.14,0,0,1,601.783,287.658Z" transform="translate(-575.975 -248.765)" fill="#fff"/>
        <path id="Path_13107" data-name="Path 13107" d="M599.451,298.873l-18.2-9.58c-7.552-3.974-10.433-13.833-6.422-21.976l9.668-19.631c4.01-8.144,13.417-11.536,20.968-7.562l18.2,9.58c7.551,3.974,10.434,13.833,6.422,21.976l-9.667,19.632C616.41,299.455,607,302.847,599.451,298.873Zm3.732-54.123c-5.187-2.73-11.647-.4-14.4,5.193l-9.668,19.631c-2.754,5.594-.776,12.364,4.411,15.093l18.2,9.58c5.187,2.729,11.647.4,14.4-5.193l9.667-19.631c2.755-5.593.775-12.364-4.411-15.093Z" transform="translate(-573.016 -238.46)" fill="#fff"/>
      </g>
    </g>
  </g>
</svg>
