<svg xmlns="http://www.w3.org/2000/svg" xmlns:xlink="http://www.w3.org/1999/xlink" width="130.196" height="129.665" viewBox="0 0 130.196 129.665">
  <defs>
    <linearGradient id="linear-gradient" x1="5.563" y1="-0.332" x2="7.133" y2="-0.332" gradientUnits="objectBoundingBox">
      <stop offset="0" stop-color="#e80000"/>
      <stop offset="0.21" stop-color="#d60000"/>
      <stop offset="0.46" stop-color="#b50000"/>
      <stop offset="0.526" stop-color="#a00"/>
      <stop offset="0.642" stop-color="#8d0000"/>
      <stop offset="0.754" stop-color="#6b0000"/>
      <stop offset="1" stop-color="#870000"/>
    </linearGradient>
    <linearGradient id="linear-gradient-2" x1="3.655" y1="-3.948" x2="4.655" y2="-3.948" xlink:href="#linear-gradient"/>
    <linearGradient id="linear-gradient-3" x1="5.842" y1="-0.71" x2="6.427" y2="-0.065" gradientUnits="objectBoundingBox">
      <stop offset="0.001" stop-color="#ffb0b0"/>
      <stop offset="0.249" stop-color="#ff4f4f"/>
      <stop offset="0.802" stop-color="#ff4f4f"/>
      <stop offset="1" stop-color="#ff4f4f"/>
    </linearGradient>
    <linearGradient id="linear-gradient-4" x1="4.713" y1="-0.988" x2="5.155" y2="-0.22" gradientUnits="objectBoundingBox">
      <stop offset="0" stop-color="#ff5959"/>
      <stop offset="0.68" stop-color="#bd0000"/>
      <stop offset="1" stop-color="#ff3b3b"/>
    </linearGradient>
    <linearGradient id="linear-gradient-5" x1="8.989" y1="-1.29" x2="10.327" y2="-1.29" gradientUnits="objectBoundingBox">
      <stop offset="0" stop-color="#ba0000"/>
      <stop offset="1" stop-color="#c90000"/>
    </linearGradient>
    <linearGradient id="linear-gradient-6" x1="14.832" y1="-1.365" x2="16.23" y2="-1.365" xlink:href="#linear-gradient-5"/>
    <linearGradient id="linear-gradient-7" x1="9.016" y1="-1.239" x2="10.299" y2="-1.239" gradientUnits="objectBoundingBox">
      <stop offset="0" stop-color="#fff"/>
      <stop offset="0.025" stop-color="#f3f3f3"/>
      <stop offset="0.07" stop-color="#d3d3d3"/>
      <stop offset="0.11" stop-color="#b3b3b3"/>
      <stop offset="0.351" stop-color="#969696"/>
      <stop offset="0.433" stop-color="#ababab"/>
      <stop offset="0.905" stop-color="#a5a5a5"/>
      <stop offset="1" stop-color="#dcdcdc"/>
    </linearGradient>
    <linearGradient id="linear-gradient-8" x1="13.62" y1="-1.191" x2="14.772" y2="-1.191" gradientUnits="objectBoundingBox">
      <stop offset="0" stop-color="#fff"/>
      <stop offset="0.033" stop-color="#f3f3f3"/>
      <stop offset="0.074" stop-color="#dedede"/>
      <stop offset="0.349" stop-color="#ededed"/>
      <stop offset="0.423" stop-color="#ccc"/>
      <stop offset="0.507" stop-color="#acacac"/>
      <stop offset="0.554" stop-color="#a1a1a1"/>
      <stop offset="0.88" stop-color="#a1a1a1"/>
      <stop offset="0.906" stop-color="#a6a6a6"/>
      <stop offset="0.94" stop-color="#b7b7b7"/>
      <stop offset="0.979" stop-color="#d3d3d3"/>
      <stop offset="1" stop-color="#e6e6e6"/>
    </linearGradient>
    <linearGradient id="linear-gradient-9" x1="10.081" y1="-1.577" x2="11.451" y2="-1.577" gradientUnits="objectBoundingBox">
      <stop offset="0" stop-color="#fff"/>
      <stop offset="1" stop-color="#f7faff"/>
    </linearGradient>
    <linearGradient id="linear-gradient-10" x1="16.425" y1="-1.727" x2="17.776" y2="-1.727" xlink:href="#linear-gradient-9"/>
  </defs>
  <g id="like_icon" transform="translate(0.224 -0.409)">
    <path id="Path_13548" data-name="Path 13548" d="M34.114,1.89C51.763,2.149,66.4,24.839,66.808,52.568s-13.569,50-31.218,49.739S3.3,79.358,2.9,51.629,16.465,1.63,34.114,1.89Z" transform="matrix(0.703, -0.711, 0.711, 0.703, -3.597, 60.165)" fill="url(#linear-gradient)"/>
    <path id="Path_13549" data-name="Path 13549" d="M0,0,100.418-1.476l-.285,19.4L-.285,19.4Z" transform="matrix(0.711, 0.703, -0.703, 0.711, 35.588, 23.656)" fill="url(#linear-gradient-2)"/>
    <path id="Path_13550" data-name="Path 13550" d="M34.114,1.89C51.763,2.149,66.4,24.839,66.808,52.569s-13.569,50-31.218,49.739S3.3,79.359,2.9,51.629,16.465,1.63,34.114,1.89Z" transform="translate(10.25 46.576) rotate(-45.302)" fill="url(#linear-gradient-3)"/>
    <path id="Path_13318" data-name="Path 13318" d="M58.7,114.326c-12.013,11.79-37.406,6.308-56.713-12.245S-23.235,58.934-11.222,47.144s37.406-6.305,56.713,12.245S70.714,102.537,58.7,114.326Z" transform="translate(48.329 -22.555)" fill="url(#linear-gradient-4)"/>
    <g id="Group_10730" data-name="Group 10730" transform="translate(43.397 33.688)" style="mix-blend-mode: multiply;isolation: isolate">
      <path id="Path_13319" data-name="Path 13319" d="M35.275,74.689a9.5,9.5,0,0,0-4.892-5.02l-11.3-5.708a23,23,0,0,0-1.677-11.107,12.4,12.4,0,0,0-4.126-5.21,2.758,2.758,0,0,0-2.755-.485c-.719.417-.683,1.522-.638,2.83a9.079,9.079,0,0,1-.277,3.221,6.571,6.571,0,0,1-4.141,3.864l-1.75-.884c-1.415-.719-2.658-.3-2.763.958L-4.258,79.107s3.207,7.723,3.817,8.7a5.114,5.114,0,0,0,2.5,2.136l27.8,10.085c1.711.622,2.844-.107,3.461-2.152a9.8,9.8,0,0,0-.186-4.85c.589-.137,1.515-.694,1.737-2.792a10.378,10.378,0,0,0-.782-4.72c.589-.124,1.5-.6,1.638-2.37a8.489,8.489,0,0,0-.973-4.314C35.552,78.433,36.345,77.239,35.275,74.689Z" transform="translate(26.239 -46.958)" fill="url(#linear-gradient-5)"/>
      <g id="Group_10729" data-name="Group 10729" transform="translate(0 0.616)">
        <path id="Path_13320" data-name="Path 13320" d="M8.484,50s-3.33-1.59-5.133-2.439a3.368,3.368,0,0,0-4.769,1.933L-12.66,74.234s2.075,6.374,2.742,7.573A5.958,5.958,0,0,0-6.7,84.5L3.874,88.239a3.523,3.523,0,0,0,4.887-3.064l3.194-29.758C12.141,52.966,11.145,51.325,8.484,50Z" transform="translate(12.66 -47.2)" fill="url(#linear-gradient-6)"/>
      </g>
    </g>
    <g id="Group_10731" data-name="Group 10731" transform="translate(43.254 24.497)">
      <path id="Path_13321" data-name="Path 13321" d="M32.608,73.638a7.824,7.824,0,0,0-4.369-4.512l-10.6-5.111c.3-1.537-1.6-20.422-1.6-20.422s-5.627,5.49-5.732,5.627a4.325,4.325,0,0,0-.479,2.22c-.055.925-2.111-1.049-2.111-1.049s-6.567,6.531-6.676,6.6a1.363,1.363,0,0,0-.628.948L-4.233,82.689a4.438,4.438,0,0,0,2.825,4.832l26.452,9a2.438,2.438,0,0,0,2.438-.292c.453-.358,7.631-7.481,7.631-7.481s-4.322-4.443-4.623-5.34a2.332,2.332,0,0,0,1.818-2.144,6.7,6.7,0,0,0-.576-3.887C32.548,77.017,33.434,75.937,32.608,73.638Z" transform="translate(26.318 -42.95)" fill="url(#linear-gradient-7)"/>
      <path id="Path_13322" data-name="Path 13322" d="M7.334,43.34S.205,50.3-.148,50.593a3.163,3.163,0,0,0-.889,1.217L-12.363,77.5c-1.046,2.327.322,5.03,3.037,5.924L.739,86.755a3.921,3.921,0,0,0,4.037-.861c.508-.5,9.146-8.983,9.146-8.983Z" transform="translate(12.714 -43.34)" fill="url(#linear-gradient-8)"/>
    </g>
    <g id="Group_10733" data-name="Group 10733" transform="translate(52.941 24.041)">
      <path id="Path_13323" data-name="Path 13323" d="M33.114,68.108a8.8,8.8,0,0,0-4.39-4.494L18.437,58.193a18.022,18.022,0,0,0-1.253-9.443,11.1,11.1,0,0,0-3.673-4.611,2.794,2.794,0,0,0-2.535-.559c-.675.312-.672,1.245-.665,2.347a6.934,6.934,0,0,1-.343,2.7,5.723,5.723,0,0,1-3.935,3.026l-1.593-.838c-1.29-.681-2.451-.4-2.58.658L-.962,74.444a4.817,4.817,0,0,0,2.956,4.7l25.432,10c1.567.615,2.632.063,3.26-1.626a7.583,7.583,0,0,0-.042-4.093c.547-.084,1.421-.5,1.682-2.256a8.2,8.2,0,0,0-.6-4.019c.547-.071,1.4-.427,1.578-1.905a6.774,6.774,0,0,0-.782-3.686C33.266,71.276,34.032,70.313,33.114,68.108Z" transform="translate(21.982 -42.71)" fill="url(#linear-gradient-9)"/>
      <g id="Group_10732" data-name="Group 10732">
        <path id="Path_13324" data-name="Path 13324" d="M9.419,45.885s-3.037-1.517-4.683-2.332S.9,43.185.278,44.923l-9.052,23.46c-.84,2.121.617,4.74,3.226,5.739l9.672,3.719c2.232.854,4.285-.224,4.6-2.314L12.48,50.641C12.718,48.586,11.841,47.148,9.419,45.885ZM.2,73.2a3.95,3.95,0,0,1-2.582-4.3c.4-1.557,2.132-2.177,3.846-1.443a4.015,4.015,0,0,1,2.522,4.08C3.695,73.151,2.01,73.923.2,73.2Z" transform="translate(9.012 -43.16)" fill="url(#linear-gradient-10)"/>
      </g>
    </g>
  </g>
</svg>
