<svg xmlns="http://www.w3.org/2000/svg" width="140.995" height="269.521" viewBox="0 0 140.995 269.521">
  <g id="Group_11184" data-name="Group 11184" opacity="0.1">
    <path id="Path_13703" data-name="Path 13703" d="M172.851,352.764c-7.192-24.053-31.1-39.962-55.352-41.923-27.747-2.243-55.567,13.545-70.419,36.511a61.559,61.559,0,0,0-6.4,52.174c2.566,7.6,7.509,13.427,13.674,18.378,6.325,5.076,13.58,9.138,18.552,15.7,10.88,14.37-4.148,33.32,5.339,48.415,6.424,10.219,21.751,13.924,31.762,7.158a.812.812,0,0,0,.325-.431c10.43-3.591,18.6-8.488,20.942-20.531,1.307-6.734.973-13.571,3.1-20.173,2.538-7.875,8.381-14.458,13.726-20.557C166.162,406.872,181.316,381.071,172.851,352.764Zm-13.2,56.973c-6.026,9.308-14.2,16.916-20.755,25.818-6.193,8.406-8.041,17.175-8.869,27.364-.534,6.564-1.815,12.527-6.57,17.381-3.511,3.586-8.587,5.782-13.4,7.545a.74.74,0,0,0-.844-.056c-12.942,6.807-29.9-.964-31.749-15.78-1.679-13.476,6.488-25.917-1.091-38.775-6.01-10.2-18.361-15.078-26.184-23.637-11.666-12.761-10.945-33.917-5.774-49.19,10.3-30.429,45.6-49.451,76.55-46.469,30.821,2.971,54.6,30.485,51.843,61.332C171.7,387.65,166.332,399.423,159.655,409.737Z" transform="translate(-34.267 -278.885)" fill="#3d4f9d"/>
    <path id="Path_13704" data-name="Path 13704" d="M100.382,412.505a41.332,41.332,0,0,0,5.416-20.331.886.886,0,0,0-1.772,0,46.092,46.092,0,0,1-6.062,20.367,1.054,1.054,0,0,0,.646,1.528c7.229,1.638-1.283,7.642-2.123,8.23a1.085,1.085,0,0,0,.532,2.013c2.762-.021-1.137,7.935-1.384,9.265a3.451,3.451,0,0,0,.715,2.607c5.472,6.628-7.907,11.024-11.67,14.094-2.878,2.349-5.283,8.419-10.424,4.359-3.16-2.5-6.161-5.223-9.248-7.808l-7.737-6.478c-1.079-.9,2.6-3.819,3.184-4.719a1.351,1.351,0,0,0-.217-1.61,5.48,5.48,0,0,1,1.214-8.645,1.342,1.342,0,0,0-.319-2.443q-.933-5.021,2.846-6.288a1.33,1.33,0,0,0-.316-2.426c-5.84-1.046-4.508-8.8-4.385-13.084.114-3.972.039-7.924.034-11.9a.981.981,0,0,0-1.961,0c-.415,6.824-1.447,13.974-.59,20.789a7.768,7.768,0,0,0,3.52,5.679c-1.854,1.188-3.647,2.827-3.442,4.956a5.487,5.487,0,0,0,1.561,3.791,8.474,8.474,0,0,0-2.291,7.3c.159,1.33,1.864,2.945.868,3.95-1.221,1.231-2.329,1.922-2.906,3.584-1.107,3.186,7.257,7.855,9.1,9.382q4.663,3.868,9.362,7.694c1.2.982,3.02,2.562,4.691,2.517,4.981-.136,7.69-5.974,11.442-8.719,3.4-2.491,10.391-3.864,11.369-8.788a6.631,6.631,0,0,0-.618-5.046c-1.927-3.806.226-4.934,1.147-8.239.588-2.1.3-4.222-1.171-5.261,1.877-1.46,3.791-3.382,3.6-5.688C102.8,414.994,102.1,413.367,100.382,412.505Z" transform="translate(-15.365 -189.36)" fill="#3d4f9d"/>
    <path id="Path_13705" data-name="Path 13705" d="M64.062,339.691c-.2-.986-1.6-.7-1.66.215-.282,4.381-.607,8.286-3.711,11.7s-7.423,2.777-11.313,1.61c-.381-.116-.8.366-.549.715,2.768,3.838,8.417,2.691,11.872.467C63.268,351.454,65.074,344.772,64.062,339.691Z" transform="translate(-23.685 -246.095)" fill="#3d4f9d"/>
    <path id="Path_13706" data-name="Path 13706" d="M75.849,385.105c-9.941-.863-12.35,12.053-9.976,19.306A.83.83,0,0,0,67.5,404.2c.237-3.453-.413-6.736.276-10.193.788-3.942,3.965-7.21,8.075-7.3A.8.8,0,0,0,75.849,385.105Z" transform="translate(-2.618 -193.08)" fill="#3d4f9d"/>
    <path id="Path_13707" data-name="Path 13707" d="M90.1,321.823c-.325-.338-.82.166-.512.51,9.259,10.348,11.976,21.682,13.595,35.045.052.42.747.609.812.1C105.684,344.55,98.825,330.905,90.1,321.823Z" transform="translate(25.585 -266.111)" fill="#3d4f9d"/>
    <path id="Path_13708" data-name="Path 13708" d="M96.257,346.3A64.281,64.281,0,0,1,91.8,357.874a.585.585,0,0,0,1.016.579,36.28,36.28,0,0,0,4.641-11.836A.62.62,0,0,0,96.257,346.3Z" transform="translate(28.168 -238.28)" fill="#3d4f9d"/>
    <path id="Path_13709" data-name="Path 13709" d="M56.91,324.517c-3.328,2.755-7.274,6.488-8.7,10.684a.5.5,0,0,0,.835.48c1.5-1.673,2.624-3.651,4.062-5.38a37.1,37.1,0,0,1,4.839-4.751C58.668,324.947,57.629,323.923,56.91,324.517Z" transform="translate(-22.037 -263.082)" fill="#3d4f9d"/>
    <path id="Path_13710" data-name="Path 13710" d="M44.6,336.869l.133.7a.7.7,0,0,0,1.348,0l.133-.7A.826.826,0,1,0,44.6,336.869Z" transform="translate(-26.194 -249.791)" fill="#3d4f9d"/>
    <path id="Path_13711" data-name="Path 13711" d="M71.249,303.787a53.95,53.95,0,0,0-1.576-7.16,1.045,1.045,0,0,0-2.047.265,48.947,48.947,0,0,0,.8,6.686c.314,1.955.207,4.241,1.63,5.718a.9.9,0,0,0,1.41-.19C72.265,307.342,71.589,305.645,71.249,303.787Z" transform="translate(0.377 -295.883)" fill="#3d4f9d"/>
    <path id="Path_13712" data-name="Path 13712" d="M89.541,299.554a14.615,14.615,0,0,0-3.729,5.44c-.721,1.791-1.983,4.5-.54,6.165a.9.9,0,0,0,1.253,0c1.307-1.01,1.221-3.339,1.671-4.852a27.671,27.671,0,0,1,2.7-5.72A.864.864,0,0,0,89.541,299.554Z" transform="translate(19.957 -291.919)" fill="#3d4f9d"/>
    <path id="Path_13713" data-name="Path 13713" d="M103.187,311.294a14.7,14.7,0,0,0-4.138,2.461c-.988.831-2.837,2.5-2.176,3.9a.706.706,0,0,0,.629.366c1.246-.065,1.933-1.742,2.712-2.588a11.86,11.86,0,0,1,3.591-2.622C104.638,312.4,104.059,310.951,103.187,311.294Z" transform="translate(33.931 -278.179)" fill="#3d4f9d"/>
    <path id="Path_13714" data-name="Path 13714" d="M52.624,306.615a69.942,69.942,0,0,0-4.609-5.416.985.985,0,0,0-1.546,1.178,65.181,65.181,0,0,0,3.55,5.718c1.158,1.643,2.243,3.642,4.176,4.407a.93.93,0,0,0,1.165-.9C55.231,309.64,53.771,308.126,52.624,306.615Z" transform="translate(-24.155 -290.098)" fill="#3d4f9d"/>
    <path id="Path_13715" data-name="Path 13715" d="M44.246,316.983c-.577-1.253-2.049-1.841-3.223-2.426a9.489,9.489,0,0,0-4.256-1.384.731.731,0,0,0-.629,1.081,9.332,9.332,0,0,0,3.487,2.764c1.262.713,2.557,1.567,4.047,1.324A.939.939,0,0,0,44.246,316.983Z" transform="translate(-36.037 -275.956)" fill="#3d4f9d"/>
    <path id="Path_13716" data-name="Path 13716" d="M79.056,398.854c-1.074.013-1.83,1.122-2.7,1.668a10.666,10.666,0,0,1-4.138,1.5c-.682.1-.471,1.1.146,1.135a9.313,9.313,0,0,0,4.493-.889c1.029-.456,2.861-1.593,2.728-2.876A.547.547,0,0,0,79.056,398.854Z" transform="translate(5.188 -177.184)" fill="#3d4f9d"/>
    <path id="Path_13717" data-name="Path 13717" d="M134.686,360.409c-.338-5.625-4.357-7.845-9.147-8.407,2.443-2.79,5.414-8.34,3.556-11.666a7.442,7.442,0,0,0-7.393-4.142c1.117-3.128,1.649-6.618-.265-8.525-3.8-3.791-7.862-2.54-11.367.521-.456-3.571-2.551-6.786-6.351-7.287-4.269-.562-9.014,3.4-11.173,6.706-.112.17-.2.344-.306.515-1.309-4.3-3.942-7.5-8.546-6.473-1.7.379-2.852,2.538-3.638,4.975a4.763,4.763,0,0,0-3.815-1.04c-3.7.766-5.156,4.441-5.927,7.892-2.219-1.97-4.966-2.527-8.142-.166a5.746,5.746,0,0,0-2.054,3.212,5.256,5.256,0,0,0-4.312.174c-2.265,1.287-2.6,4.305-2.14,6.841-.183.093-.364.159-.549.273-7.4,4.538,1.208,13.795,5.4,17.678,1.087,1.008,2.708-.6,1.63-1.63a33.774,33.774,0,0,1-6.312-8.163,12.587,12.587,0,0,1,1.408-4.11,16.822,16.822,0,0,0,9.978,7.9,1.429,1.429,0,0,0,1.731-1.731A16.594,16.594,0,0,0,66.1,351.4a5.178,5.178,0,0,0,3.655.756,1.477,1.477,0,0,0,1.051-1.051c.969-3.15-2.133-8.456-6.064-11.834a13.381,13.381,0,0,1,4.086-2.954,12.845,12.845,0,0,1,.936,1,20.387,20.387,0,0,0,4.006,12.533,1.485,1.485,0,0,0,2.756-.73,27.494,27.494,0,0,0-3.649-12.447,17.875,17.875,0,0,1,1.8-6.577q2.777-1.243,4.54-.209c-.327,1.582-.527,3-.654,3.823a15.254,15.254,0,0,0,4.26,13.164,1.475,1.475,0,0,0,2.443-.661,17.453,17.453,0,0,0-.319-13.013,23.937,23.937,0,0,0-2.353-3.97q.291-.956.622-1.9,4.6-2.654,5.855,1.053a16.486,16.486,0,0,1,1.27,3.617A19.289,19.289,0,0,0,89.57,342.7c.312,1.541,2.344,1.253,2.794,0a25.487,25.487,0,0,0,.773-10.043,16.5,16.5,0,0,1,5.556-7.188c4.852-3.61,8.5.932,8.589,5.2,0,.155-.022.308-.026.463a39.6,39.6,0,0,0-5.95,10.2,1.439,1.439,0,0,0,2.09,1.606,16.024,16.024,0,0,0,6.577-10.925,13.553,13.553,0,0,1,4.842-3.128c6.237-2.284,4.654,4.454,3.352,8.092a24.292,24.292,0,0,0-11.681,9.771,1.4,1.4,0,0,0,1.206,2.071c5.341.041,8.839-3.033,11.53-7.423.323-.53.706-1.21,1.1-1.985a11.61,11.61,0,0,1,3.283-.056c6.833.954.9,9.453-.685,11.375a9.594,9.594,0,0,1-1.1,1.132,41.8,41.8,0,0,0-10.221,1.748,1.413,1.413,0,0,0,0,2.715,11.962,11.962,0,0,0,11.278-1.948,10.029,10.029,0,0,1,8.208,4.116c1.841,3.528.6,6.165-3.662,7.935-4.493-1.935-11.242-2.088-14.055-2.155-1.716-.043-1.888,2.355-.368,2.852,3.683,1.21,9.085,2.581,13.582,2.252a3.683,3.683,0,0,1,1.879,3.9c-1.246,7.461-11.3,3.832-15.532,2.112-1.606-.652-2.473,1.875-1.1,2.715a48.71,48.71,0,0,1,7.892,5.729c2.824,2.628,2.538,6.579-1.076,6.079a11.811,11.811,0,0,0-7.147-6.077c-1.328-.435-2.191,1.107-1.681,2.189a16.005,16.005,0,0,0,6.7,6.5,9.473,9.473,0,0,1,.237,1.283c.534,4.669-4.077,6.964-7.612,5.987a35.819,35.819,0,0,0-4.3-6.562,1.536,1.536,0,0,0-2.6,1.079,9.558,9.558,0,0,0,4.456,7.825c.215.56.431,1.119.614,1.72q-3.11,7.96-6.549,1.7c-1.023-1.388-1.866-2.885-2.915-4.26-1.175-1.546-3.735-.26-2.708,1.537,1.005,1.761,1.925,3.531,2.788,5.367q3.791,4.782-2.945,6.785a10.86,10.86,0,0,1-5.154-2.613,1.579,1.579,0,0,0-2.232,2.23,54.075,54.075,0,0,1,4.8,6.729c3.651,6.023-5.182,4.174-7.989,3.559-1.991-.437-2.809,2.6-.807,3.072a32.821,32.821,0,0,1,11.358,5.007,17.091,17.091,0,0,1-8.947,3.388,19,19,0,0,0-3.408.015,1.592,1.592,0,0,0-.607,3.04,34.255,34.255,0,0,1,11.9-2.073,22.354,22.354,0,0,0,4.8-3.343,1.588,1.588,0,0,0,0-2.254,39.675,39.675,0,0,0-4.172-2.779,3.7,3.7,0,0,0,2.926-2.633c.635-2.435-.958-5.483-2.945-8.245a9.015,9.015,0,0,0,6.953-1.04c1.787-1.13,1.866-3.35,1.216-5.8a5.847,5.847,0,0,0,6.4-.491c2.355-1.537,2.441-4.333,1.563-7.289a7.253,7.253,0,0,0,5.522-2.123,10.055,10.055,0,0,0,3.382-7.769,5.766,5.766,0,0,0,5.3-1.567c3.5-3.5-.258-8.049-4.519-11.56,4.659.461,8.943-.906,10.977-6.428.885-2.4.431-4.191-.794-5.548C133.2,367.291,134.952,364.869,134.686,360.409Zm-77.742-17.59q1.437-1.56,2.876-3.121a16.081,16.081,0,0,0,1.035,4.706A7.5,7.5,0,0,0,56.943,342.819Zm.84,3.236a5.4,5.4,0,0,1,2.93,1.6,8.563,8.563,0,0,1,2.609,3.942A13.644,13.644,0,0,1,57.783,346.054Zm9.061.928c3.67,6.12-1.072-.512-1.425-.984l-.842-1.32a5.03,5.03,0,0,1-.865-1.916A21.227,21.227,0,0,1,66.844,346.982Zm15.93-11.244a13.116,13.116,0,0,1,.407,6.917,13.5,13.5,0,0,1-1.522-9.479A14.739,14.739,0,0,1,82.774,335.738Zm27.788,9.86a17.02,17.02,0,0,1,5.907-5A10.814,10.814,0,0,1,110.562,345.6Z" transform="translate(-19.685 -267.103)" fill="#3d4f9d"/>
    <path id="Path_13718" data-name="Path 13718" d="M77.2,386.057a6.2,6.2,0,0,0-2.893-.149c-.887.164-2.725,1.074-3.466.321-1.6-1.623-4.079.865-2.5,2.493,2.09,2.148,4.428.868,6.938.637,1.671-.153-1.582,1.858-2.148,2.032a6.058,6.058,0,0,1-3.9-.183,1.662,1.662,0,0,0-1.886-.913l-.353.08a1.885,1.885,0,0,0-1.373,1.78l-.047.377a1.854,1.854,0,0,0,.967,1.662c4.181,2.136,10.23,1.386,12.65-3.057A3.577,3.577,0,0,0,77.2,386.057Z" transform="translate(-1.998 -192.346)" fill="#3d4f9d"/>
    <path id="Path_13719" data-name="Path 13719" d="M89.46,397.758c-7.433,1.365-14.725,3.543-22.031,5.459-3.134.822-10.454.945-10.83,5.162-.095,1.076,1.345,1.227,1.849.489,1.333-1.953,5.474-2.318,7.563-2.934l7.918-2.338c5.283-1.561,10.6-3.022,15.758-4.973A.448.448,0,0,0,89.46,397.758Z" transform="translate(-12.34 -178.458)" fill="#3d4f9d"/>
    <path id="Path_13720" data-name="Path 13720" d="M91.244,402.709a89.575,89.575,0,0,0-16.451,1.976c-5.744,1.061-12.884,1.828-17.885,4.96a.494.494,0,0,0,.243.917c5.35-.047,10.912-2.37,16.143-3.524,5.987-1.32,12.1-2.013,18.066-3.431A.458.458,0,0,0,91.244,402.709Z" transform="translate(-12.25 -172.74)" fill="#3d4f9d"/>
    <path id="Path_13721" data-name="Path 13721" d="M91.115,406.294c-7.52,1.066-14.944,2.9-22.361,4.521-4.484.977-11.5,1.042-14.212,5.276-.424.659.39,1.274,1,1,11.138-5.083,24.21-5.92,35.886-9.612A.611.611,0,0,0,91.115,406.294Z" transform="translate(-14.841 -168.616)" fill="#3d4f9d"/>
    <path id="Path_13722" data-name="Path 13722" d="M89.825,408.314c-9.126,1.7-18.178,5.608-27.144,8.122a.664.664,0,0,0,.336,1.283c9-2.2,19.041-3.881,27.463-7.793C91.433,409.483,90.747,408.142,89.825,408.314Z" transform="translate(-5.872 -166.296)" fill="#3d4f9d"/>
  </g>
</svg>
