<svg xmlns="http://www.w3.org/2000/svg" width="69.579" height="252.688" viewBox="0 0 69.579 252.688">
  <g id="Group_11182" data-name="Group 11182" opacity="0.1">
    <g id="Group_11180" data-name="Group 11180">
      <path id="Path_13608" data-name="Path 13608" d="M326.944,317.82a70.9,70.9,0,0,0-38.885-.467,1.828,1.828,0,0,0-1.363,1.765c1.479,29,3.8,57.967,6.658,86.864q2.144,21.677,4.794,43.3c1.752,14.413,2.891,29.392,6.488,43.475a1.165,1.165,0,0,0,2.284-.295c-.527-14.4-3.32-28.886-5.074-43.18q-2.651-21.619-4.794-43.3c-2.844-28.431-4.919-56.919-6.618-85.438a82.124,82.124,0,0,1,35.932-.527A1.136,1.136,0,0,0,326.944,317.82Z" transform="translate(-286.573 -299.336)" fill="#584998"/>
      <path id="Path_13609" data-name="Path 13609" d="M323.733,360.06c-.192-10.409-.123-20.981-1.126-31.346-.491-5.083-2.43-10.37-7.657-12.053-.908-.293-1.348,1.01-.6,1.485,6.284,4.028,5.093,13.5,5.255,19.969q.329,13.165.5,26.333.371,25.242,0,50.486-.329,25.239-1.419,50.463-.507,12.064-1.178,24.117c-.164,3,.747,7.894-5.272,6.734a27.212,27.212,0,0,1-6.071-2.127c-3.156-1.44-5.7-3.823-8.475-5.847-1.184-.863-2.934.881-2.062,2.065,4.054,5.524,10.8,8.512,17.377,9.782,7.629,1.47,7.875-4.928,8.211-10.607,1.3-21.913,2.088-43.856,2.519-65.8Q324.36,391.887,323.733,360.06Z" transform="translate(-276.547 -297.317)" fill="#584998"/>
      <path id="Path_13610" data-name="Path 13610" d="M337.822,397.688c.672-23.106.426-46.233-.581-69.325-.295-6.762-.1-14.591-7.436-17.672-8.353-3.5-18.464-4.183-26.987-.954-1.113.424-.351,1.92.65,1.817,8.292-.865,23.87-2.889,29.12,5.756,2.1,3.449,1.365,9.216,1.537,13.08.226,5.053.394,10.105.538,15.16.538,18.774.456,37.563-.116,56.335s-1.763,37.522-3.442,56.228c-.848,9.433-1.472,19-4.342,28.081-2.947,9.332-9.214,14.951-17.756,19.06-1.091.525-.381,1.944.661,1.847,18.255-1.688,22.244-26.119,23.706-40.228C335.755,443.884,337.153,420.787,337.822,397.688Z" transform="translate(-268.62 -307.652)" fill="#584998"/>
      <path id="Path_13611" data-name="Path 13611" d="M321,308.419c-12.223.536-26.933,7.675-34.367,18.053.09.446.174.906.237,1.378.08.336.157.674.237,1.01.121.329.23.661.319.995,5.009-4.129,9.466-8.564,15.1-11.991,5.851-3.558,12.232-5.815,18.649-8.09C321.879,309.526,321.831,308.385,321,308.419Z" transform="translate(-286.638 -306.769)" fill="#584998"/>
      <path id="Path_13612" data-name="Path 13612" d="M326.217,309.152c-4.086,1.393-8.079,3-12.04,4.712-4.314,1.869-9.455,3.735-12.9,6.984a.424.424,0,0,0,.4.706c4.1-1.038,7.858-3.645,11.661-5.485,4.366-2.112,8.82-4.021,13.282-5.92C327.188,309.908,326.794,308.956,326.217,309.152Z" transform="translate(-269.912 -305.954)" fill="#584998"/>
      <path id="Path_13613" data-name="Path 13613" d="M324.211,308.493c-9.065,3.862-19.39,7.642-27.532,13.207-.489.336-.217,1.208.411,1.012,9.479-2.939,18.867-8.691,27.57-13.425C325.191,309,324.736,308.269,324.211,308.493Z" transform="translate(-275.352 -306.732)" fill="#584998"/>
      <path id="Path_13614" data-name="Path 13614" d="M322.985,308.473a130.584,130.584,0,0,0-16.479,7.147c-5.227,2.635-11,5.345-15.345,9.315-.6.547.157,1.309.8,1.044,5.406-2.241,10.372-5.838,15.547-8.6,5.22-2.786,10.611-5.216,15.93-7.8A.6.6,0,0,0,322.985,308.473Z" transform="translate(-281.676 -306.743)" fill="#584998"/>
      <path id="Path_13615" data-name="Path 13615" d="M329.76,315.494c-7.7,3.744-16.2,7.608-23.032,12.807a.525.525,0,0,0,.519.913c7.929-3.494,15.489-8.516,23.1-12.686C331.024,316.155,330.441,315.162,329.76,315.494Z" transform="translate(-263.759 -298.69)" fill="#584998"/>
      <path id="Path_13616" data-name="Path 13616" d="M326.771,320.325c-6.118,3.853-13.362,7.472-18.576,12.514-.321.312.082.741.446.583,6.62-2.844,12.738-8.1,18.623-12.23C327.782,320.828,327.322,319.978,326.771,320.325Z" transform="translate(-261.923 -293.138)" fill="#584998"/>
      <path id="Path_13617" data-name="Path 13617" d="M328.16,326.792c-6.82,3.55-14.992,7.2-20.574,12.566-.392.377.1.919.547.719,3.6-1.619,6.854-4.2,10.221-6.258q5.118-3.135,10.365-6.039A.568.568,0,0,0,328.16,326.792Z" transform="translate(-262.654 -285.669)" fill="#584998"/>
      <path id="Path_13618" data-name="Path 13618" d="M329.089,330.116q-5.328,2.906-10.518,6.047c-3.354,2.032-7.483,4.14-9.931,7.248-.23.293-.037.857.4.706,3.335-1.137,6.185-3.681,9.117-5.6,3.815-2.5,7.627-4.977,11.541-7.319A.621.621,0,0,0,329.089,330.116Z" transform="translate(-261.387 -281.852)" fill="#584998"/>
      <path id="Path_13619" data-name="Path 13619" d="M322.232,390.857a93.255,93.255,0,0,1-7.244,9.7c-2.484,2.818-5.763,4.841-8.2,7.631a.777.777,0,0,0,.928,1.221c3.4-1.44,6.258-4.74,8.691-7.431A36.75,36.75,0,0,0,323.19,391.4.551.551,0,0,0,322.232,390.857Z" transform="translate(-263.662 -212.05)" fill="#584998"/>
      <path id="Path_13620" data-name="Path 13620" d="M323.113,389.306q-4.595,3.235-9.123,6.562c-2.42,1.776-5.221,3.427-7.027,5.858a.614.614,0,0,0,.687.891c2.818-1.076,5.169-3.332,7.535-5.182q4.427-3.462,8.785-7C324.595,389.924,323.768,388.843,323.113,389.306Z" transform="translate(-263.314 -213.655)" fill="#584998"/>
      <path id="Path_13621" data-name="Path 13621" d="M325.107,385.839c-3.094,2.142-6.131,4.364-9.233,6.493-2.768,1.9-6.118,3.419-8.48,5.8a.683.683,0,0,0,.652,1.137c3.195-.973,6.049-3.4,8.751-5.315a78.271,78.271,0,0,0,8.93-7.3C326.14,386.257,325.591,385.5,325.107,385.839Z" transform="translate(-262.929 -217.619)" fill="#584998"/>
      <path id="Path_13622" data-name="Path 13622" d="M326.061,383.159c-5.911,4.887-14.514,6.592-19.915,12.15a.485.485,0,0,0,.463.807c3.978-1.074,7.591-3.918,11.1-6.019,2.995-1.789,6.831-3.466,9.018-6.271A.473.473,0,0,0,326.061,383.159Z" transform="translate(-264.305 -220.761)" fill="#584998"/>
      <path id="Path_13623" data-name="Path 13623" d="M321.5,379.585c-3.834,2.239-7.66,4.486-11.451,6.8a.715.715,0,0,0,.706,1.242c3.914-2.095,7.789-4.254,11.661-6.424A.929.929,0,0,0,321.5,379.585Z" transform="translate(-260.052 -224.884)" fill="#584998"/>
      <path id="Path_13624" data-name="Path 13624" d="M322.262,375.869c-2.482.947-4.863,2.1-7.246,3.268-2.325,1.143-4.936,2.164-6.88,3.9-.489.435.028,1.154.594,1.038,2.23-.463,4.237-1.727,6.262-2.738a83.751,83.751,0,0,0,7.759-4.265C323.345,376.692,322.985,375.594,322.262,375.869Z" transform="translate(-262.082 -229.065)" fill="#584998"/>
      <path id="Path_13625" data-name="Path 13625" d="M328.767,370.318a96.112,96.112,0,0,0-10.529,4.041c-3.785,1.664-8.161,3.35-11.119,6.3a.668.668,0,0,0,.635,1.111c3.58-.962,6.818-3.21,10.12-4.872,3.746-1.888,7.629-3.483,11.466-5.177C330.141,371.371,329.587,370.066,328.767,370.318Z" transform="translate(-263.246 -235.451)" fill="#584998"/>
      <path id="Path_13626" data-name="Path 13626" d="M328.208,366.713q-5.27,2.264-10.529,4.56c-3.5,1.531-7.339,2.788-10.32,5.223-.469.383.047,1,.527.924,3.3-.543,6.316-2.26,9.334-3.653,3.957-1.83,7.9-3.692,11.838-5.556C330.075,367.729,329.207,366.285,328.208,366.713Z" transform="translate(-262.965 -239.661)" fill="#584998"/>
      <path id="Path_13627" data-name="Path 13627" d="M330.292,361.3l-.336-.123a.628.628,0,0,0-.717.3l-.1.25c-.009.019,0,.034,0,.054a1.931,1.931,0,0,0-1.44.59q-1.615.6-3.21,1.244c-1.688.667-3.375,1.335-5.055,2.021-4.112,1.677-8.973,3.007-12.55,5.647a.631.631,0,0,0,.469,1.154c5.018-.753,10.051-3.683,14.712-5.638,2.095-.88,8.118-2.148,8.714-4.676A.691.691,0,0,0,330.292,361.3Z" transform="translate(-263.652 -245.983)" fill="#584998"/>
      <path id="Path_13628" data-name="Path 13628" d="M328.641,355.819c-3.873,1.754-7.664,3.69-11.517,5.5-3.395,1.591-7.061,2.771-10.049,5.076a.6.6,0,0,0,.426,1.027c7.487-.861,15.756-6.168,21.855-10.342A.723.723,0,0,0,328.641,355.819Z" transform="translate(-263.289 -252.22)" fill="#584998"/>
      <path id="Path_13629" data-name="Path 13629" d="M329.018,349.239a99.75,99.75,0,0,0-11.138,4.863c-3.518,1.664-7.83,3-10.465,5.944a.452.452,0,0,0,.316.764c3.548-.247,6.641-2.349,9.78-3.909a107.116,107.116,0,0,0,12-6.458C330.092,350.05,329.758,348.993,329.018,349.239Z" transform="translate(-262.823 -259.756)" fill="#584998"/>
      <path id="Path_13630" data-name="Path 13630" d="M331.815,342.733c-4.062,1.378-8.01,3.076-11.924,4.826-4.372,1.953-9.233,3.675-12.992,6.68-.547.439.045,1.272.646,1.124,4.129-1.025,7.933-3.369,11.76-5.186,4.34-2.062,8.745-4,13-6.228C332.971,343.605,332.529,342.49,331.815,342.733Z" transform="translate(-263.532 -267.252)" fill="#584998"/>
      <path id="Path_13631" data-name="Path 13631" d="M329.3,337.411c-6.807,3.022-14.249,5.548-20.617,9.42-.863.525-.329,2.045.687,1.692,7.115-2.467,13.851-6.6,20.585-9.959C330.728,338.177,330.065,337.073,329.3,337.411Z" transform="translate(-261.726 -273.421)" fill="#584998"/>
      <path id="Path_13632" data-name="Path 13632" d="M305.58,382.569a21.98,21.98,0,0,1-.56-6.986c.054-.87-1.4-1.068-1.524-.2-.549,3.707-.824,9.692,2.14,12.527a.7.7,0,0,0,1.175-.487A22.046,22.046,0,0,0,305.58,382.569Z" transform="translate(-267.607 -230.22)" fill="#584998"/>
      <path id="Path_13633" data-name="Path 13633" d="M303.9,362.079c-.256,1.029-.5,2.052-.691,3.1a5.905,5.905,0,0,0-.134,3.065c.14.364.654.633.965.26a5.469,5.469,0,0,0,.9-2.872c.161-1.124.271-2.239.364-3.369C305.371,361.439,304.093,361.306,303.9,362.079Z" transform="translate(-267.883 -245.504)" fill="#584998"/>
      <path id="Path_13634" data-name="Path 13634" d="M294.1,318.786a7.5,7.5,0,0,0-1.638,3.113c-.254.984-.474,2.56.527,3.154a.609.609,0,0,0,.734-.1c.54-.65.323-1.348.372-2.151a5.132,5.132,0,0,1,1.184-2.837C295.945,319.146,294.808,317.964,294.1,318.786Z" transform="translate(-280.174 -295.139)" fill="#584998"/>
      <path id="Path_13635" data-name="Path 13635" d="M306.9,336.123q-1.98-3.7-4.019-7.373c-.517-.932-1.869-.131-1.421.807q1.808,3.8,3.673,7.569c1.087,2.191,2.049,4.74,3.849,6.439a.573.573,0,0,0,.951-.547C309.6,340.569,308.059,338.283,306.9,336.123Z" transform="translate(-269.649 -283.81)" fill="#584998"/>
      <path id="Path_13636" data-name="Path 13636" d="M294.542,341.991a.82.82,0,0,0-1.606.209c-.034,1.912-.136,4.56.941,6.211a.7.7,0,0,0,1.266-.164C295.784,346.385,295.04,343.836,294.542,341.991Z" transform="translate(-279.4 -268.749)" fill="#584998"/>
      <path id="Path_13637" data-name="Path 13637" d="M294.4,362.951q.052,1.469.1,2.936a.654.654,0,0,0,1.307,0q.052-1.469.1-2.936A.757.757,0,0,0,294.4,362.951Z" transform="translate(-277.689 -244.752)" fill="#584998"/>
      <path id="Path_13638" data-name="Path 13638" d="M299.956,394.449c-.689-2.5-1.417-4.977-2.09-7.479a.87.87,0,0,0-1.681.441q.911,3.778,1.75,7.567c.489,2.209.8,4.618,1.968,6.575a.8.8,0,0,0,1.481-.39C301.469,398.875,300.558,396.638,299.956,394.449Z" transform="translate(-275.666 -216.94)" fill="#584998"/>
      <path id="Path_13639" data-name="Path 13639" d="M313.458,390.027c-1.774.385-3.156,1.95-4.488,3.106-1.849,1.6-3.709,3.2-5.419,4.947-.573.586.192,1.683.9,1.18,1.858-1.322,3.612-2.786,5.354-4.256,1.511-1.279,3.492-2.506,4.232-4.4C314.173,390.253,313.768,389.96,313.458,390.027Z" transform="translate(-267.372 -212.706)" fill="#584998"/>
      <path id="Path_13640" data-name="Path 13640" d="M308.775,369.823c-.56-2.228-3.165-2.982-5.1-2.129-.62.271-.189,1.242.437,1.074,1.386-.372,2.422.586,3.042,1.716A.886.886,0,0,0,308.775,369.823Z" transform="translate(-267.346 -238.833)" fill="#584998"/>
      <path id="Path_13641" data-name="Path 13641" d="M301.779,333.5a.441.441,0,0,0-.734.2,6.98,6.98,0,0,0,.769,3.141c.237.685,1.294.426,1.1-.289A7.084,7.084,0,0,0,301.779,333.5Z" transform="translate(-270.06 -277.998)" fill="#584998"/>
      <path id="Path_13642" data-name="Path 13642" d="M306.808,318.832a21.09,21.09,0,0,0-2.471,5.341c-.289.73.962,1.24,1.281.519a20.773,20.773,0,0,0,2.041-5.371C307.717,318.892,307.157,318.382,306.808,318.832Z" transform="translate(-266.285 -294.967)" fill="#584998"/>
    </g>
    <g id="Group_11181" data-name="Group 11181" transform="translate(8.745 206.382)">
      <path id="Path_13643" data-name="Path 13643" d="M332.143,420.2C328.92,409.177,316,408.471,306,409.989a1.167,1.167,0,0,0-.846-1.223c-11.4-2.547-16.357,10.861-13.793,19.775,3.126,10.863,15.188,16.32,25.7,15.263C329.6,442.543,335.557,431.885,332.143,420.2ZM329.813,431.2c-.861,5.481-6.966,8.159-11.7,9.227-8.081,1.819-16.8-2.189-21.446-8.779-5.192-7.365-2.734-16.111,4.519-19.431,8.736-.784,18.109-1.931,25.224,4.273C330.563,420.114,330.6,426.186,329.813,431.2Z" transform="translate(-290.7 -397.839)" fill="#584998"/>
      <path id="Path_13644" data-name="Path 13644" d="M338.737,409c-8.422-6.411-19.523-6.7-29.26-3.4-8.144,2.758-17.646,9.866-18.193,19.11a.588.588,0,0,0,1.152.149c3.5-16.686,27.213-22.072,40.829-15.618,9.451,4.48,10.975,14.6,6.846,23.4-3.834,8.172-12.03,12.551-20.092,15.483-.859.312-.829,1.817.222,1.709C337.325,448.051,356.419,422.457,338.737,409Z" transform="translate(-290.029 -403.521)" fill="#584998"/>
      <path id="Path_13645" data-name="Path 13645" d="M319.653,417.332q-3.139,2.015-6.086,4.3c-1.787,1.38-4.37,3.093-5.285,5.205a.476.476,0,0,0,.644.644c1.927-.85,3.455-2.93,5.009-4.338q2.951-2.677,6.153-5.05C320.53,417.767,320.14,417.02,319.653,417.332Z" transform="translate(-270.489 -387.686)" fill="#584998"/>
      <path id="Path_13646" data-name="Path 13646" d="M321.656,413.922c-4.052,3.126-8.463,5.756-12.516,8.856-.749.573.2,1.645.96,1.259,4.534-2.286,8.635-5.909,12.31-9.362C322.923,414.191,322.181,413.515,321.656,413.922Z" transform="translate(-269.759 -391.675)" fill="#584998"/>
      <path id="Path_13647" data-name="Path 13647" d="M323.129,410.918c-4.624,2.594-9.877,4.637-14.249,7.6-.775.525-.34,1.86.644,1.58,5.074-1.442,10.008-5.057,14.159-8.208C324.238,411.467,323.777,410.554,323.129,410.918Z" transform="translate(-270.201 -395.091)" fill="#584998"/>
      <path id="Path_13648" data-name="Path 13648" d="M320.857,408.574c-2.392,1.231-4.743,2.523-7.078,3.856-2.082,1.188-4.727,2.135-6.135,4.127a.631.631,0,0,0,.545.939c2.153-.2,3.922-1.66,5.756-2.732,2.613-1.524,5.208-3.07,7.754-4.708A.852.852,0,0,0,320.857,408.574Z" transform="translate(-271.272 -397.821)" fill="#584998"/>
      <path id="Path_13649" data-name="Path 13649" d="M317.637,406.319c-2.179.921-4.331,1.866-6.478,2.861-2.08.964-4.753,1.774-6.237,3.571a.538.538,0,0,0,.377.911c2.14-.082,4.024-1.421,5.892-2.385,2.392-1.229,4.727-2.542,7.057-3.879C318.958,406.988,318.351,406.017,317.637,406.319Z" transform="translate(-274.463 -400.362)" fill="#584998"/>
      <path id="Path_13650" data-name="Path 13650" d="M315.772,404.924c-2.861,1.472-5.625,3.137-8.357,4.837-2.415,1.5-5.255,2.812-7.192,4.919a.883.883,0,0,0,.844,1.468c2.734-.848,5.106-2.818,7.5-4.357,2.777-1.787,5.522-3.627,8.146-5.634C317.443,405.6,316.519,404.539,315.772,404.924Z" transform="translate(-279.989 -401.999)" fill="#584998"/>
      <path id="Path_13651" data-name="Path 13651" d="M312.5,404.718a66.533,66.533,0,0,0-7.965,4.049c-2.915,1.63-6.265,3.025-8.768,5.248a.822.822,0,0,0,.784,1.369c2.824-.878,5.371-2.719,7.933-4.178a75.2,75.2,0,0,0,8.525-5.24C313.556,405.547,313.285,404.408,312.5,404.718Z" transform="translate(-285.142 -402.202)" fill="#584998"/>
      <path id="Path_13652" data-name="Path 13652" d="M308.606,414.81a5.807,5.807,0,0,0-2.751.713q-1.563.652-3.122,1.307c-.809.338-.235,1.744.577,1.421L306.457,417a5.8,5.8,0,0,0,2.469-1.414A.462.462,0,0,0,308.606,414.81Z" transform="translate(-277.279 -390.525)" fill="#584998"/>
      <path id="Path_13653" data-name="Path 13653" d="M300.814,414.016c-1.935-.013-4.469-.467-6.267.372a.434.434,0,0,0,0,.749c1.8.84,4.331.385,6.267.375A.748.748,0,0,0,300.814,414.016Z" transform="translate(-286.513 -391.578)" fill="#584998"/>
    </g>
  </g>
</svg>
